SplineFontDB: 3.0
FontName: Besley-BlackItalic
FullName: Besley* Fatface Italic
FamilyName: Besley* Fatface
Weight: Black
Copyright: Copyright 2020 The Besley Project Authors (https://github.com/indestructible-type)
Version: 002.011
ItalicAngle: -13
UnderlinePosition: -200
UnderlineWidth: 100
Ascent: 1600
Descent: 400
InvalidEm: 0
LayerCount: 2
Layer: 0 0 "Back" 1
Layer: 1 0 "Fore" 0
PreferredKerning: 4
XUID: [1021 31 -699969567 16487490]
FSType: 0
OS2Version: 0
OS2_WeightWidthSlopeOnly: 0
OS2_UseTypoMetrics: 1
CreationTime: 1460762150
ModificationTime: 1650090399
PfmFamily: 17
TTFWeight: 900
TTFWidth: 5
LineGap: 0
VLineGap: 0
OS2TypoAscent: 2500
OS2TypoAOffset: 0
OS2TypoDescent: -850
OS2TypoDOffset: 0
OS2TypoLinegap: 0
OS2WinAscent: 2500
OS2WinAOffset: 0
OS2WinDescent: 850
OS2WinDOffset: 0
HheadAscent: 2500
HheadAOffset: 0
HheadDescent: -850
HheadDOffset: 0
OS2CapHeight: 1500
OS2XHeight: 1040
OS2FamilyClass: 1024
OS2Vendor: 'PfEd'
OS2UnicodeRanges: 00000001.00000000.00000000.00000000
Lookup: 4 0 1 "'liga' Standard Ligatures lookup 0" { "'liga' Standard Ligatures lookup 0 subtable"  } ['liga' ('DFLT' <'dflt' > 'grek' <'dflt' > 'latn' <'dflt' > ) ]
Lookup: 1 0 0 "'onum' Oldstyle Figures lookup 1" { "'onum' Oldstyle Figures lookup 1 subtable" ("oldstyle") } ['onum' ('DFLT' <'dflt' > 'grek' <'dflt' > 'latn' <'dflt' > ) ]
Lookup: 1 0 0 "'tnum' Tabular Numbers lookup 2" { "'tnum' Tabular Numbers lookup 2 subtable"  } ['tnum' ('DFLT' <'dflt' > 'grek' <'dflt' > 'latn' <'dflt' > ) ]
Lookup: 1 0 0 "'ss01' Style Set 1 lookup 3" { "'ss01' Style Set 1 lookup 3 subtable"  } ['ss01' ('DFLT' <'dflt' > 'grek' <'dflt' > 'latn' <'dflt' > ) ]
Lookup: 6 0 0 "'calt' Contextual Alternates lookup 4" { "'calt' Contextual Alternates lookup 4 contextual 0"  "'calt' Contextual Alternates lookup 4 contextual 1"  } ['calt' ('DFLT' <'dflt' > 'grek' <'dflt' > 'latn' <'dflt' > ) ]

StartChar: ampersand
Encoding: 38 38 0
GlifName: ampersand
Width: 1840
Flags: HMW
LayerCount: 2
Fore
SplineSet
1366 648 m 0
 1276 648 1228 716 1228 812 c 0
 1228 952 1380 1018 1518 1018 c 0
 1694 1018 1780 912 1780 750 c 0
 1780 592.057743823 1602.1640421 400.009961474 1351.09998934 246.00000677 c 0
 1311.3539055 221.618608857 1283.15097693 203.652111714 1349 187.474731945 c 0
 1365.4269589 183.439058518 1384.72419268 182 1408 182 c 0
 1439.52480678 182 1480.06379444 202.281906988 1515.23929846 241.999975991 c 0
 1542.28663584 272.540206828 1539.00436668 294.694424795 1577 266.418604651 c 2
 1689 183.069767442 l 2
 1718.43802661 161.162398802 1721.64825957 159.483331224 1699.0000055 128.606739163 c 0
 1604.99542867 0.449356223599 1445.5256532 -70 1262 -70 c 0
 1165.31213967 -70 1057.2214786 -49.3872448059 972.00000411 24.0771689139 c 0
 932.798570993 57.8704154879 920.947688474 47.7343122351 864.000014672 31.412735293 c 0
 728.777835911 -7.34282832529 590.941087483 -30 460 -30 c 0
 174 -30 2 114 2 320 c 0
 2 606.912025 206.473434152 733.193348493 437.64488715 827 c 0
 491.357683982 848.796020004 502.099586333 844.609936135 474.031662269 896 c 0
 429.573020248 977.400122347 398 1077.76726834 398 1166 c 4
 398 1406 708 1540 1080 1540 c 0
 1334 1540 1512 1458 1512 1310 c 0
 1512 1076.81890918 1279.93341827 985.529956906 1034.00000751 893.991589985 c 0
 967.943740956 869.40492343 960.642213021 872.35544203 992.575757576 810 c 2
 1175.91515152 452 l 2
 1204.22479074 396.720822811 1204.35336423 390.795302932 1254.99998798 425.876574129 c 0
 1390.27969247 519.580431332 1470 615.499900126 1470 642 c 0
 1470 654 1468 660 1458 660 c 0
 1440 660 1434 648 1366 648 c 0
462 380 m 0
 462 256 522 220 630 220 c 0
 682.254280809 220 733.016581636 224.266130258 781.999980128 231.947691162 c 0
 842.392964288 241.418499645 826.803295941 250.10411033 803.920844327 292 c 2
 623.137203166 623 l 2
 591.296914148 681.29695429 584.357339516 671.146793998 544.659618348 622 c 0
 493.125911544 558.199953101 462 479.860648827 462 380 c 0
1084 1310 m 0
 1084 1344 1072 1380 1026 1380 c 0
 952 1380 848 1326 848 1220 c 0
 848 1175.14092314 857.856343397 1130.28184628 879.148124712 1067 c 0
 895.29329223 1019.01453585 897.374002336 1015.38000764 937.367045675 1044 c 0
 1026.22115101 1107.58615409 1084 1189.83606097 1084 1310 c 0
EndSplineSet
EndChar

StartChar: period
Encoding: 46 46 1
GlifName: period
Width: 620
Flags: HMW
LayerCount: 2
Fore
SplineSet
-60 200 m 0
 -60 332 48 440 180 440 c 0
 312 440 420 332 420 200 c 0
 420 68 312 -40 180 -40 c 0
 48 -40 -60 68 -60 200 c 0
EndSplineSet
EndChar

StartChar: zero
Encoding: 48 48 2
GlifName: zero
Width: 1364
Flags: HMW
LayerCount: 2
Fore
SplineSet
105.151367188 750 m 0
 235.822265625 1316 496.919921875 1520 862.919921875 1520 c 4
 1228.91992188 1520 1455.82226562 1316 1325.15136719 750 c 0
 1194.47949219 184 923.3828125 -20 577.3828125 -20 c 4
 231.3828125 -20 -25.5205078125 184 105.151367188 750 c 0
525.151367188 750 m 0
 422.645507812 306 457.865234375 190 585.865234375 190 c 0
 723.865234375 190 802.645507812 306 905.151367188 750 c 0
 1007.65625 1194 982.4375 1310 844.4375 1310 c 0
 716.4375 1310 627.65625 1194 525.151367188 750 c 0
EndSplineSet
Substitution2: "'tnum' Tabular Numbers lookup 2 subtable" uniFF10
Substitution2: "'onum' Oldstyle Figures lookup 1 subtable" zero.oldstyle
EndChar

StartChar: one
Encoding: 49 49 3
GlifName: one
Width: 1200
VWidth: 2310
Flags: HMW
LayerCount: 2
Fore
SplineSet
-10 65 m 2
 -10 166 l 2
 -10 208 0 210 43 210 c 2
 295 210 l 2
 344 210 349.538707262 219.456916712 360 264 c 2
 550 1073 l 2
 550 1113 541 1120 503 1120 c 2
 299 1120 l 2
 266 1120 254 1123 254 1159 c 2
 254 1279 l 2
 254 1333 286 1330 333 1331 c 0
 517 1335 716 1360 829 1535 c 0
 848.656037146 1565.44076549 871 1580 923 1580 c 2
 989 1580 l 2
 1032 1580 1048.91087307 1572.9620243 1040 1534 c 2
 750 266 l 2
 738.263728158 214.684163118 760 210 815 210 c 2
 1037 210 l 2
 1070 210 1090 206 1090 170 c 2
 1090 59 l 2
 1090 10 1088 0 1039 0 c 2
 55 0 l 2
 -3 0 -10 5 -10 65 c 2
EndSplineSet
Substitution2: "'tnum' Tabular Numbers lookup 2 subtable" uniFF11
Substitution2: "'onum' Oldstyle Figures lookup 1 subtable" one.oldstyle
EndChar

StartChar: two
Encoding: 50 50 4
GlifName: two
Width: 1425
VWidth: 2310
Flags: HMW
LayerCount: 2
Fore
SplineSet
1334 510 m 0
 1273 191 1043 -20 775 -20 c 0
 541 -20 431 100 285 100 c 0
 228 100 191 74 168 34 c 0
 152 7 158 0 113 0 c 2
 -29 0 l 2
 -68 0 -74.1666650636 4.0003654918 -74 42 c 0
 -73 270 173.820258048 588.758297105 469 748 c 0
 697 871 999 1022 999 1200 c 4
 999 1298 937 1346 789 1346 c 0
 661 1346 497 1298 497 1254 c 0
 497 1218 659 1228 659 1056 c 0
 659 922 554 850 440 850 c 0
 322 850 207 926 207 1082 c 0
 207 1356 565 1520 919 1520 c 0
 1221 1520 1421 1450 1421 1190 c 0
 1421 910 1010 792 709 660 c 0
 541 586 403 501 340 441 c 0
 288.078754872 391.551195117 220.945463102 307.380162696 242 301 c 0
 275 291 284 356 366 414 c 0
 418.5625 451.177734375 519 469 585 469 c 0
 755 469 785 381 937 381 c 0
 1044 381 1125 431 1138 510 c 0
 1144 552 1139 554 1187 554 c 2
 1293 554 l 2
 1337 554 1341.88841024 551.252506033 1334 510 c 0
EndSplineSet
Substitution2: "'tnum' Tabular Numbers lookup 2 subtable" uniFF12
Substitution2: "'onum' Oldstyle Figures lookup 1 subtable" two.oldstyle
EndChar

StartChar: three
Encoding: 51 51 5
GlifName: three
Width: 1235
VWidth: 2310
Flags: HMW
LayerCount: 2
Fore
SplineSet
-20 348 m 0
 -20 484 70 590 218 590 c 0
 352 590 422 518 422 424 c 0
 422 292 297 292 297 246 c 0
 297 192 394 164 472 164 c 0
 620 164 758 262 758 470 c 0
 758 606 689 655 556 670 c 0
 518.121902014 674.271965938 504 663 504 707 c 2
 504 838 l 2
 504 877 513 869 547 872 c 0
 731 886 878 1055 878 1202 c 0
 878 1310 780 1346 652 1346 c 0
 594 1346 528 1330 528 1296 c 0
 528 1250 662 1260 662 1118 c 0
 662 1034 582 952 458 952 c 0
 340 952 220 1028 220 1174 c 0
 220 1368 468 1520 782 1520 c 0
 1114 1520 1280 1402 1280 1212 c 0
 1280 988 1065 868 844 798 c 0
 800 784 770 789 770 775 c 0
 770 758 789 766 844 752 c 0
 1082 689 1150 621 1150 460 c 0
 1150 160 784 -20 482 -20 c 0
 158 -20 -20 154 -20 348 c 0
EndSplineSet
Substitution2: "'tnum' Tabular Numbers lookup 2 subtable" uniFF13
Substitution2: "'onum' Oldstyle Figures lookup 1 subtable" three.oldstyle
EndChar

StartChar: four
Encoding: 52 52 6
GlifName: four
Width: 1310
VWidth: 2310
Flags: HMW
LayerCount: 2
Fore
SplineSet
1140 164 m 2
 1140 36 l 2
 1140 3 1132 0 1098 0 c 2
 366 0 l 6
 319 0 310 1 310 48 c 6
 310 165 l 6
 310 201 317 210 354 210 c 6
 533 210 l 2
 577 210 578.756473946 219.724342036 590 262 c 2
 615 356 l 2
 628.479019131 406.681111933 600 410 546 410 c 2
 88 410 l 2
 45 410 45 418 31 444 c 2
 0 502 l 2
 -12 523 -5 532 6 554 c 0
 163 868 795 1048 898 1444 c 0
 909 1486 910 1500 966 1500 c 2
 1236 1500 l 2
 1289 1500 1298 1495 1290 1448 c 0
 1226 1062 577 911 381 692 c 0
 354 662 329 620 407 620 c 2
 632 620 l 2
 667 620 666.836248013 633.723370429 680 664 c 2
 695 710 l 2
 712.02734375 749.162109375 711 754 742 771 c 0
 808 806 947 854 988 940 c 0
 997 960 1003 970 1034 970 c 2
 1100 970 l 2
 1131 970 1147.04837355 967.557695538 1140 938 c 2
 1078 678 l 2
 1070.50036392 646.549913219 1087 620 1124 620 c 2
 1254 620 l 2
 1286 620 1290 612 1290 582 c 2
 1290 466 l 2
 1290 420 1290 410 1244 410 c 2
 1059 410 l 2
 1018 410 1015.77894342 403.45747471 1005 362 c 2
 979 262 l 2
 967.97751967 219.605844886 984 210 1031 210 c 2
 1096 210 l 2
 1135 210 1140 204 1140 164 c 2
EndSplineSet
Substitution2: "'tnum' Tabular Numbers lookup 2 subtable" uniFF14
Substitution2: "'onum' Oldstyle Figures lookup 1 subtable" four.oldstyle
EndChar

StartChar: five
Encoding: 53 53 7
GlifName: five
Width: 1300
VWidth: 2310
Flags: HMW
LayerCount: 2
Fore
SplineSet
-5 318 m 0
 -5 464 95 550 223 550 c 0
 347 550 427 468 427 384 c 0
 427 292 353 252 353 206 c 0
 353 162 409 144 487 144 c 0
 645 144 833 392 833 600 c 0
 833 768 755 812 637 812 c 0
 558 812 446 763 360 655 c 0
 344 634 333 624 294 624 c 2
 230 624 l 2
 176 624 181 642 186 686 c 2
 458 1460 l 2
 470.435717469 1495.38693133 472 1500 514 1500 c 2
 789 1500 l 2
 990 1500 1152 1468 1218 1543 c 0
 1231 1558 1241 1564 1272 1564 c 2
 1377 1564 l 2
 1403 1564 1414 1557 1409 1534 c 2
 1401 1500 l 2
 1365 1336 1229 1120 755 1120 c 2
 530 1120 l 2
 492 1120 494.503469854 1108.95479161 483 1078 c 2
 428 930 l 2
 413.78125 894.926757812 388 850 396 846 c 0
 411 837 432 872 464 896 c 0
 540 952 670 1000 811 1000 c 4
 1113 1000 1245 830 1245 600 c 0
 1245 260 909 -20 527 -20 c 0
 223 -20 -5 114 -5 318 c 0
EndSplineSet
Substitution2: "'tnum' Tabular Numbers lookup 2 subtable" uniFF15
Substitution2: "'onum' Oldstyle Figures lookup 1 subtable" five.oldstyle
EndChar

StartChar: six
Encoding: 54 54 8
GlifName: six
Width: 1330
VWidth: 2310
Flags: HMW
LayerCount: 2
Fore
SplineSet
989 1322 m 4
 989 1348.68359375 961 1366 913 1366 c 4
 795 1366 640 1197 543 864 c 4
 533 829 525 815 531 811 c 4
 539 806 546 822 571 842 c 4
 659 914 784 960 914 960 c 4
 1136 960 1317 810 1245 500 c 4
 1160 130 875 -20 573 -20 c 4
 251 -20 -21 170 111 740 c 4
 222 1220 577 1520 949 1520 c 4
 1233 1520 1362 1386 1362 1222 c 4
 1362 1082 1260 990 1131 990 c 4
 997 990 910 1052 910 1146 c 4
 910 1250 989 1276 989 1322 c 4
839 470 m 4
 882 658 813 722 705 722 c 4
 599 722 483 620 446 460 c 4
 410 302 448 210 576 210 c 4
 694 210 798 292 839 470 c 4
EndSplineSet
Substitution2: "'tnum' Tabular Numbers lookup 2 subtable" uniFF16
EndChar

StartChar: seven
Encoding: 55 55 9
GlifName: seven
Width: 1203
VWidth: 2310
Flags: HMW
LayerCount: 2
Fore
SplineSet
155 982 m 0
 215 1317 434 1520 635 1520 c 0
 829 1520 889 1400 1055 1400 c 0
 1123 1400 1156 1427 1176 1471 c 0
 1184 1489 1187 1500 1215 1500 c 2
 1344 1500 l 2
 1379 1500 1385 1493 1380 1460 c 0
 1357 1305 1056 933 841 726 c 0
 697.7670725 588.096669802 593 512 593 444 c 0
 593 358 749 378 749 216 c 0
 749 102 659 -20 511 -20 c 0
 363 -20 259 54 259 222 c 0
 259 400 424.728515625 578.790039062 613 752 c 0
 713 844 861 975 967 1100 c 4
 999.73046875 1138.59667969 1021 1176 1011 1186 c 4
 996 1201 972 1159 943 1136 c 4
 896 1098 839 1066 755 1066 c 4
 635 1066 585 1134 483 1134 c 0
 396 1134 341 1082 331 980 c 0
 329 957 336 946 308 946 c 2
 192 946 l 2
 162 946 150.060477997 954.42100215 155 982 c 0
EndSplineSet
Substitution2: "'tnum' Tabular Numbers lookup 2 subtable" uniFF17
Substitution2: "'onum' Oldstyle Figures lookup 1 subtable" seven.oldstyle
EndChar

StartChar: eight
Encoding: 56 56 10
GlifName: eight
Width: 1290
VWidth: 2310
Flags: HMW
LayerCount: 2
Fore
SplineSet
442.505859375 444 m 0
 394.485351562 236 441.248046875 170 539.248046875 170 c 0
 627.248046875 170 704.485351562 236 752.505859375 444 c 0
 791.291015625 612 754.224609375 720 666.224609375 720 c 0
 568.224609375 720 481.291015625 612 442.505859375 444 c 0
253.189453125 1140 m 0
 303.98046875 1360 488.919921875 1520 810.919921875 1520 c 0
 1142.91992188 1520 1333.98046875 1360 1283.18945312 1140 c 0
 1249.48339844 994 1145.08886719 897 1009.390625 842 c 0
 975.159179688 828 949.235351562 824 946.002929688 810 c 0
 943.232421875 798 967.84765625 792 994.077148438 780 c 0
 1133.30175781 716 1206.44335938 591 1166.96484375 420 c 0
 1106.93847656 160 897.3828125 -20 535.3828125 -20 c 4
 173.3828125 -20 -23.0615234375 160 36.96484375 420 c 0
 78.5205078125 600 212.764648438 731 394.385742188 790 c 0
 417.001953125 797 430.001953125 797 433.46484375 812 c 0
 436.697265625 826 413.927734375 827 401.08203125 832 c 0
 278.087890625 884 217.173828125 984 253.189453125 1140 c 0
645.109375 1105 m 0
 610.940429688 957 649.78125 900 707.78125 900 c 0
 785.78125 900 830.940429688 957 865.109375 1105 c 0
 899.278320312 1253 885.0546875 1330 817.0546875 1330 c 0
 749.0546875 1330 679.278320312 1253 645.109375 1105 c 0
EndSplineSet
Substitution2: "'tnum' Tabular Numbers lookup 2 subtable" uniFF18
EndChar

StartChar: nine
Encoding: 57 57 11
GlifName: nine
Width: 1330
VWidth: 2310
Flags: HMW
LayerCount: 2
Fore
SplineSet
411 178 m 4
 411 151.31640625 439 134 487 134 c 4
 605 134 760 303 857 636 c 4
 867 671 875 685 869 689 c 4
 861 694 854 678 829 658 c 4
 741 586 616 540 486 540 c 4
 264 540 83 690 155 1000 c 4
 240 1370 525 1520 827 1520 c 4
 1149 1520 1421 1330 1289 760 c 4
 1178 280 823 -20 451 -20 c 4
 167 -20 38 114 38 278 c 4
 38 418 140 510 269 510 c 4
 403 510 490 448 490 354 c 4
 490 250 411 224 411 178 c 4
561 1030 m 4
 518 842 587 778 695 778 c 4
 801 778 917 880 954 1040 c 4
 990 1198 952 1290 824 1290 c 4
 706 1290 602 1208 561 1030 c 4
EndSplineSet
Substitution2: "'tnum' Tabular Numbers lookup 2 subtable" uniFF19
Substitution2: "'onum' Oldstyle Figures lookup 1 subtable" nine.oldstyle
EndChar

StartChar: A
Encoding: 65 65 12
GlifName: A_
Width: 2020
Flags: HMW
AnchorPoint: "Anchor-2" 1396 0 basechar 0
AnchorPoint: "Anchor-1" 656 0 basechar 0
AnchorPoint: "Anchor-0" 1198 1500 basechar 0
AnchorPoint: "Anchor-3" 1396 0 basechar 0
AnchorPoint: "Anchor-2" 656 0 basechar 0
AnchorPoint: "Anchor-0" 1198 1500 basechar 0
LayerCount: 2
Fore
SplineSet
931 994 m 2
 755 732 l 2
 728 691 710 670 794 670 c 2
 1002 670 l 2
 1061 670 1077 665 1067 718 c 2
 1018 988 l 2
 1007 1046 1016 1083 996 1083 c 0
 979.630859375 1083 962 1041 931 994 c 2
-120 40 m 2
 -120 236 l 2
 -120 266 -111 270 -80 270 c 2
 104 270 l 2
 145 270 145 279 161 302 c 2
 958 1482 l 2
 981 1516 981 1530 1040 1530 c 2
 1308 1530 l 2
 1398 1530 1392 1519 1407 1446 c 2
 1643 306 l 2
 1650 272 1649 270 1690 270 c 2
 1822 270 l 2
 1853 270 1860 265 1860 232 c 2
 1860 46 l 2
 1860 8 1857 0 1820 0 c 2
 984 0 l 2
 951 0 940 3 940 38 c 2
 940 206 l 2
 940 251 944 270 993 270 c 2
 1112 270 l 2
 1154 270 1149 274 1143 308 c 2
 1132 368 l 2
 1122 419 1111 420 1050 420 c 2
 608 420 l 2
 550 420 544 416 522 382 c 2
 474 310 l 2
 449 272 440 270 506 270 c 2
 558 270 l 2
 592 270 600 256 600 220 c 2
 600 56 l 2
 600 8 598 0 550 0 c 2
 -72 0 l 2
 -111 0 -120 1 -120 40 c 2
EndSplineSet
Substitution2: "'c2sc' Capitals to Small Capitals in Latin lookup 1 subtable" a.sc
EndChar

StartChar: B
Encoding: 66 66 13
GlifName: B_
Width: 1744
Flags: HMW
AnchorPoint: "Anchor-1" 686 0 basechar 0
AnchorPoint: "Anchor-0" 1028 1500 basechar 0
AnchorPoint: "Anchor-2" 686 0 basechar 0
AnchorPoint: "Anchor-0" 1028 1500 basechar 0
LayerCount: 2
Fore
SplineSet
864 0 m 2
 -32 0 l 2
 -91 0 -100 1 -100 60 c 2
 -100 222 l 2
 -100 257 -97 270 -59 270 c 2
 122 270 l 2
 183 270 182 274 193 324 c 2
 373 1168 l 2
 385 1226 381 1230 302 1230 c 2
 232 1230 l 2
 164 1230 156 1238 156 1304 c 2
 156 1429 l 2
 156 1492 175 1500 234 1500 c 2
 1144 1500 l 2
 1526 1500 1724 1380 1724 1140 c 0
 1724 952 1607 858 1412 808 c 0
 1356 794 1322 803 1322 781 c 4
 1322 762 1346 769 1400 757 c 0
 1560 720 1644 644 1644 470 c 0
 1644 150 1386 0 864 0 c 2
844 270 m 2
 1056 270 1144 352 1144 490 c 0
 1144 628 1056 650 964 650 c 2
 804 650 l 2
 749 650 741 642 731 596 c 2
 673 322 l 2
 662 272 668 270 730 270 c 2
 844 270 l 2
832 900 m 2
 984 900 l 2
 1116 900 1244 972 1244 1110 c 0
 1244 1208 1176 1230 1104 1230 c 2
 910 1230 l 2
 860 1230 864 1222 856 1182 c 2
 805 944 l 2
 799 914 791 900 832 900 c 2
EndSplineSet
Substitution2: "'c2sc' Capitals to Small Capitals in Latin lookup 1 subtable" b.sc
EndChar

StartChar: C
Encoding: 67 67 14
GlifName: C_
Width: 1734
Flags: HMW
AnchorPoint: "Anchor-1" 777 0 basechar 0
AnchorPoint: "Anchor-0" 1150 1500 basechar 0
AnchorPoint: "Anchor-2" 777 0 basechar 0
AnchorPoint: "Anchor-0" 1150 1500 basechar 0
LayerCount: 2
Fore
SplineSet
1638.00001111 497.145956387 m 0
 1539.10188049 231.722940181 1233.38413894 -40 770 -40 c 0
 364 -40 70 160 70 620 c 0
 70 1122 454 1540 1030 1540 c 0
 1187.30747029 1540 1299.86080088 1496.94538458 1378.00000097 1432.26235842 c 0
 1413.41759481 1402.94394786 1415.2657007 1377.39590543 1452 1412.38095238 c 2
 1502 1460 l 2
 1526.16723475 1483.01641405 1532.29918511 1500 1582 1500 c 2
 1770 1500 l 2
 1813.60988983 1500 1812.22070312 1494.17578125 1805.25683594 1457 c 2
 1705.36507937 920 l 2
 1698.63569776 884.071945676 1695.20996094 870 1650 870 c 2
 1474 870 l 2
 1432.47558594 870 1427.51825317 872.70312814 1430.23861677 907.999881714 c 0
 1449.58542562 1159.02498134 1282.32510928 1288 1086 1288 c 0
 784 1288 580 980 580 630 c 0
 580 346 710 256 878 256 c 4
 1049.38241928 256 1217.57777978 351.611763141 1319.99999538 510.119835309 c 0
 1341.48845227 543.375256078 1348.12792969 570 1406 570 c 2
 1568 570 l 2
 1650.9453125 570 1661.15612735 559.292391086 1638.00001111 497.145956387 c 0
EndSplineSet
Substitution2: "'c2sc' Capitals to Small Capitals in Latin lookup 1 subtable" c.sc
EndChar

StartChar: D
Encoding: 68 68 15
GlifName: D_
Width: 1916
Flags: HMW
AnchorPoint: "Anchor-1" 793 0 basechar 0
AnchorPoint: "Anchor-0" 1168 1500 basechar 0
AnchorPoint: "Anchor-2" 793 0 basechar 0
AnchorPoint: "Anchor-0" 1168 1500 basechar 0
LayerCount: 2
Fore
SplineSet
-100 53 m 2
 -100 217 l 2
 -100 267.43359375 -78.0950173288 270 -32 270 c 2
 124 270 l 2
 176.032226562 270 184.496910457 274.204267769 193.413333333 316 c 2
 373.599609375 1165 l 2
 386.938476562 1227.52539062 387.26981071 1230 312 1230 c 2
 220 1230 l 2
 163.142578125 1230 154 1231.07598312 154 1288 c 2
 154 1434 l 6
 154 1492.31152344 173.561954634 1500 228 1500 c 2
 1086 1500 l 2
 1672 1500 1846 1216 1846 930 c 0
 1846 284 1332 0 786 0 c 2
 -38 0 l 2
 -83.0511346307 0 -100 4.4169921875 -100 53 c 2
734 270 m 2
 786 270 l 2
 1094 270 1336 526 1336 970 c 0
 1336 1174 1214 1230 1046 1230 c 2
 922 1230 l 2
 869.612746639 1230 868.194211565 1229.03536671 859.013333333 1186 c 2
 675.12 324 l 2
 665.281638393 277.882679968 674.877929688 270 734 270 c 2
EndSplineSet
Substitution2: "'c2sc' Capitals to Small Capitals in Latin lookup 1 subtable" d.sc
EndChar

StartChar: E
Encoding: 69 69 16
GlifName: E_
Width: 1618
Flags: HMW
AnchorPoint: "Anchor-2" 1298 50 basechar 0
AnchorPoint: "Anchor-1" 676 0 basechar 0
AnchorPoint: "Anchor-0" 1008 1500 basechar 0
AnchorPoint: "Anchor-3" 1298 50 basechar 0
AnchorPoint: "Anchor-2" 676 0 basechar 0
AnchorPoint: "Anchor-0" 1008 1500 basechar 0
LayerCount: 2
Fore
SplineSet
744.24 654 m 2
 670.8 330 l 2
 660.410995849 284.166158156 654.123046875 270 716 270 c 2
 816 270 l 2
 1073.10829019 270 1252.73228161 328.113224069 1339.99998522 594.712006055 c 0
 1353.67429275 636.486380547 1356.77539062 650 1416 650 c 2
 1514 650 l 2
 1579.38867188 650 1572.84653547 635.358914678 1562.21538462 586 c 2
 1449.78461538 64 l 2
 1438.02027961 9.37986960023 1432.62207031 0 1364 0 c 2
 -54 0 l 2
 -91.6896834186 0 -100 3.8125 -100 44 c 2
 -100 209 l 2
 -100 265.934570312 -91.0139795134 270 -36 270 c 2
 106 270 l 2
 167.149414062 270 177.740938265 272.386492344 188.986666667 322 c 2
 382.56 1176 l 2
 391.441365968 1215.18249692 396.391601562 1230 343 1230 c 2
 224 1230 l 2
 183.563444711 1230 168 1230.36523438 168 1274 c 2
 168 1466 l 2
 168 1496.05602257 174.796875 1500 206 1500 c 2
 1682 1500 l 2
 1745.17089844 1500 1733.08428385 1476.20169164 1723.54098361 1430 c 2
 1626.87213115 962 l 2
 1616.02695331 909.495567592 1615.01367188 890 1548 890 c 2
 1442 890 l 2
 1387.52636719 890 1397.06245061 910.722715297 1402.43154205 950 c 0
 1431.80256965 1164.86209085 1343.12811045 1230 1120 1230 c 2
 926 1230 l 2
 890.822489831 1230 874.212220337 1226.43777782 867.360351562 1196 c 2
 799.827148438 896 l 2
 796.243003885 880.07830051 803.290039062 876.544921875 814 876.544921875 c 2
 814.68359375 876.544921875 l 2
 919.008789062 876.544921875 986.237563219 916.117353003 1028 995.401423983 c 0
 1050.3917056 1037.91105017 1048.91113281 1066 1120 1066 c 2
 1186 1066 l 2
 1243.78222656 1066 1244.5222052 1059.29308516 1234.54237288 1014 c 2
 1128.33898305 532 l 2
 1118.4128548 486.950648724 1113.95117188 476 1056 476 c 2
 974 476 l 2
 925.567382812 476 930.761269932 487.735136619 933.301480322 524.000047448 c 0
 940.430467181 625.775897891 869.893554688 676 773 676 c 2
 770 676 l 2
 751.5859375 676 747.419013597 668.025059986 744.24 654 c 2
EndSplineSet
Substitution2: "'c2sc' Capitals to Small Capitals in Latin lookup 1 subtable" e.sc
EndChar

StartChar: F
Encoding: 70 70 17
GlifName: F_
Width: 1638
Flags: HMW
AnchorPoint: "Anchor-1" 376 0 basechar 0
AnchorPoint: "Anchor-0" 1058 1500 basechar 0
AnchorPoint: "Anchor-2" 376 0 basechar 0
AnchorPoint: "Anchor-0" 1058 1500 basechar 0
LayerCount: 2
Fore
SplineSet
-100 37 m 2
 -100 220 l 2
 -100 261.408203125 -98.3591755336 270 -57 270 c 2
 105 270 l 2
 154.439974764 270 159.159179688 274.818359375 168.266601562 315 c 2
 364.146666667 1183 l 2
 372.512130658 1219.90645879 374.580078125 1230 325 1230 c 2
 201 1230 l 2
 149.815322289 1230 148 1238.45410156 148 1290 c 2
 148 1458 l 2
 148 1490.92578125 149.087890625 1500 182 1500 c 2
 1696 1500 l 2
 1755.91015625 1500 1756.53436641 1493.19527261 1746.36923077 1446 c 2
 1630.06153846 906 l 2
 1622.20243322 869.511297103 1619.66796875 850 1572 850 c 2
 1430 850 l 2
 1375.35058594 850 1382.32633369 865.540419095 1388.47269846 906.00000391 c 0
 1423.80154333 1138.55867064 1325.91309571 1230 1090 1230 c 2
 916 1230 l 2
 870.508129329 1230 854.318359375 1226.69726562 845.546875 1188 c 2
 771.387023269 862 l 2
 768.980075428 851.38106707 764.438476562 826.889648438 782 826.889648438 c 2
 783.428710938 826.889648438 l 2
 906.575195312 826.889648438 987.487053453 891.506234175 1028.00000134 1001.88057036 c 0
 1035.5361449 1022.41220002 1033.81877564 1026 1063 1026 c 2
 1189 1026 l 2
 1232.56054688 1026 1234.58266137 1020.24206183 1226.4 987 c 2
 1084.12307692 409 l 2
 1076.95721697 379.888693925 1068.47558594 376 1031 376 c 2
 919 376 l 2
 875.90234375 376 877.997698565 384.136558957 881.635909914 419 c 0
 898.271516641 578.411985335 849.526367188 626 736 626 c 2
 735 626 l 2
 725.041015625 626 716.648420836 620.507738982 714.946666667 613 c 2
 644.226666667 301 l 2
 638.022517001 273.628751473 642.736328125 270 678 270 c 2
 878 270 l 2
 912.788075233 270 914 261.03125 914 226 c 2
 914 38 l 2
 914 1.78223462457 905.529296875 0 869 0 c 2
 -54 0 l 2
 -86.1600210041 0 -100 1.7109375 -100 37 c 2
EndSplineSet
Substitution2: "'c2sc' Capitals to Small Capitals in Latin lookup 1 subtable" f.sc
EndChar

StartChar: G
Encoding: 71 71 18
GlifName: G_
Width: 1914
Flags: HMW
AnchorPoint: "Anchor-1" 747 0 basechar 0
AnchorPoint: "Anchor-0" 1150 1500 basechar 0
AnchorPoint: "Anchor-2" 747 0 basechar 0
AnchorPoint: "Anchor-0" 1150 1500 basechar 0
LayerCount: 2
Fore
SplineSet
1048 780 m 2
 1848 780 l 2
 1889.36096845 780 1894 773.864257812 1894 731 c 2
 1894 603 l 2
 1894 557.204468281 1889.65917969 550 1842 550 c 2
 1730 550 l 2
 1689.08789062 550 1679.90469565 547.475826048 1673.63636364 513 c 2
 1631.81818182 283 l 2
 1621.54159069 226.478748789 1602.24432666 232.037368653 1554 204.820125836 c 0
 1411.76178565 124.575830061 1158.80581311 -40 768 -40 c 0
 352 -40 70 214 70 620 c 0
 70 1122 454 1540 1030 1540 c 0
 1184.64315198 1540 1296.03532866 1498.3914668 1374.00000097 1435.53025252 c 0
 1419.20418234 1399.08310731 1416.06675548 1378.15881474 1462 1421.9047619 c 2
 1520 1477.14285714 l 2
 1537.2622729 1493.58311705 1551.74609375 1500 1588 1500 c 2
 1762 1500 l 2
 1807.35398626 1500 1813.02832031 1495.48828125 1805.44433594 1455 c 2
 1705.42871094 925 l 2
 1696.22558594 875.868164062 1687.30336982 870 1630 870 c 2
 1486 870 l 2
 1432.47265625 870 1428.35112488 872.315758177 1430.97184152 918.999883435 c 0
 1444.65765337 1162.79203704 1279.43676617 1288 1086 1288 c 0
 784 1288 580 980 580 630 c 0
 580 366 652 244 850 244 c 0
 981.34940712 244 1065.43986587 270.780070742 1154 348.107417729 c 0
 1177.09458751 368.272734772 1187.75093547 378.311895947 1193.75409836 419 c 2
 1206.80371094 511 l 2
 1211.4296875 542.359375 1210.78599034 550 1176 550 c 2
 1040 550 l 2
 1002.58398438 550 994 551.646469577 994 589 c 2
 994 739 l 2
 994 779.727539062 1010.71886145 780 1048 780 c 2
EndSplineSet
Substitution2: "'c2sc' Capitals to Small Capitals in Latin lookup 1 subtable" g.sc
EndChar

StartChar: H
Encoding: 72 72 19
GlifName: H_
Width: 1966
Flags: HMW
AnchorPoint: "Anchor-1" 866 0 basechar 0
AnchorPoint: "Anchor-0" 1245 1500 basechar 0
AnchorPoint: "Anchor-2" 866 0 basechar 0
AnchorPoint: "Anchor-0" 1245 1500 basechar 0
LayerCount: 2
Fore
SplineSet
-100 45 m 6
 -100 207 l 6
 -100 264.814453125 -94.188174092 270 -38 270 c 6
 102 270 l 6
 165.534497841 270 161.702993721 278.014088099 172.5375 329 c 6
 355.7125 1191 l 6
 362.742872364 1224.08410524 360.438476562 1230 318 1230 c 6
 208 1230 l 6
 164.54038107 1230 156 1233.60742188 156 1279 c 6
 156 1437 l 6
 156 1497.83007812 166.289391965 1500 225 1500 c 6
 1018 1500 l 6
 1051.40562538 1500 1056 1493.70117188 1056 1459 c 6
 1056 1275 l 6
 1056 1230.68869214 1046.5234375 1230 1002 1230 c 6
 888 1230 l 6
 847.013272766 1230 842.162109375 1220.76660156 835 1187 c 6
 784.393939394 949 l 6
 776.932552686 913.824891232 772.637695312 900 820 900 c 6
 1248 900 l 6
 1282.8281137 900 1284.07382271 900.348021354 1290.15151515 929 c 6
 1345.84863281 1191 l 6
 1352.17089844 1220.80761719 1353.95888888 1230 1318 1230 c 6
 1232 1230 l 6
 1186.69194823 1230 1186 1239.4765625 1186 1285 c 6
 1186 1461 l 6
 1186 1494.10096449 1191.48535156 1500 1226 1500 c 6
 2014 1500 l 6
 2056.38378906 1500 2066 1499.46468873 2066 1457 c 6
 2066 1271 l 6
 2066 1236.4140625 2061.51371227 1230 2028 1230 c 6
 1880 1230 l 6
 1841.54437347 1230 1832.72949219 1223.43261719 1825.83789062 1191 c 6
 1641.2625 323 l 6
 1631.82605386 278.593194616 1630.89648438 270 1688 270 c 6
 1776 270 l 6
 1819.61297677 270 1830 267.561523438 1830 221 c 6
 1830 51 l 6
 1830 4.5146484375 1822.94498916 0 1778 0 c 6
 978 0 l 6
 941.782234625 0 940 8.470703125 940 45 c 6
 940 229 l 6
 940 265.52734375 947.52309232 270 982 270 c 6
 1102 270 l 6
 1155.63254752 270 1151.69297444 277.984151062 1160.81413613 321 c 6
 1221.88219895 609 l 6
 1230.48058332 649.550405271 1224.92285156 652 1174 652 c 6
 756 652 l 6
 721.642255561 652 720.841421959 651.252138128 714.85078534 623 c 6
 650.814136126 321 l 6
 643.34877929 285.793008503 637.622070312 270 686 270 c 6
 772 270 l 6
 810.99882725 270 820 266.614257812 820 225 c 6
 820 49 l 6
 820 0.4697265625 805.44695812 0 760 0 c 6
 -46 0 l 6
 -90.3779296875 0 -100 0.535072649809 -100 45 c 6
EndSplineSet
Substitution2: "'c2sc' Capitals to Small Capitals in Latin lookup 1 subtable" h.sc
EndChar

StartChar: I
Encoding: 73 73 20
GlifName: I_
Width: 1146
Flags: HMW
AnchorPoint: "Anchor-2" 473 0 basechar 0
AnchorPoint: "Anchor-1" 473 0 basechar 0
AnchorPoint: "Anchor-0" 781 1500 basechar 0
AnchorPoint: "Anchor-3" 473 0 basechar 0
AnchorPoint: "Anchor-2" 473 0 basechar 0
AnchorPoint: "Anchor-0" 781 1500 basechar 0
LayerCount: 2
Fore
SplineSet
-40 33 m 2
 -40 239 l 2
 -40 269.356069403 -30.521484375 270 0 270 c 2
 208 270 l 2
 246.349996174 270 243.199329716 276.502995706 249.949333333 307 c 2
 445.37890625 1189 l 2
 453.046875 1223.64355469 450.402280982 1230 410 1230 c 2
 248 1230 l 2
 209.392400714 1230 206 1237.08007812 206 1277 c 2
 206 1464 l 2
 206 1493.50683594 212.155562191 1500 240 1500 c 2
 1154 1500 l 2
 1185.3529459 1500 1186 1490.52148438 1186 1459 c 2
 1186 1273 l 2
 1186 1234.70410156 1178.90069729 1230 1142 1230 c 2
 946 1230 l 2
 913.059805583 1230 914.008185268 1227.30993304 908.22 1201 c 2
 713.3 315 l 2
 704.543930134 275.199682426 707.034179688 270 758 270 c 2
 916 270 l 2
 952.734375 270 960 266.744602763 960 231 c 2
 960 51 l 2
 960 5.3701171875 954.230457332 0 910 0 c 2
 0 0 l 2
 -31.42578125 0 -40 1.65767780357 -40 33 c 2
EndSplineSet
Substitution2: "'c2sc' Capitals to Small Capitals in Latin lookup 1 subtable" i.sc
EndChar

StartChar: J
Encoding: 74 74 21
GlifName: J_
Width: 1452
Flags: HMW
AnchorPoint: "Anchor-1" 408 0 basechar 0
AnchorPoint: "Anchor-0" 1070 1500 basechar 0
AnchorPoint: "Anchor-2" 408 0 basechar 0
AnchorPoint: "Anchor-0" 1070 1500 basechar 0
LayerCount: 2
Fore
SplineSet
-80 430 m 0
 -80 654 68 800 248 800 c 0
 398 800 506 698 506 562 c 0
 506 364 332 366 332 302 c 0
 332 288 348 220 472 220 c 0
 574 220 649 290 692 480 c 2
 848.970703125 1175 l 2
 859.682617188 1222.50488281 859.558144723 1230 802 1230 c 2
 626 1230 l 2
 589.265625 1230 582 1233.25539724 582 1269 c 2
 582 1459 l 2
 582 1498.21222404 590.466796875 1500 630 1500 c 2
 1522 1500 l 2
 1577.43692206 1500 1592 1496.28808594 1592 1437 c 2
 1592 1289 l 2
 1592 1236.15429688 1587.43319287 1230 1536 1230 c 2
 1398 1230 l 2
 1333.45652389 1230 1335.80060572 1223.68948476 1323.65625 1173 c 2
 1172 540 l 2
 1082 163 874 -30 472 -30 c 0
 158 -30 -80 170 -80 430 c 0
EndSplineSet
Substitution2: "'c2sc' Capitals to Small Capitals in Latin lookup 1 subtable" j.sc
EndChar

StartChar: K
Encoding: 75 75 22
GlifName: K_
Width: 1860
Flags: HMW
AnchorPoint: "Anchor-1" 860 0 basechar 0
AnchorPoint: "Anchor-0" 1230 1500 basechar 0
AnchorPoint: "Anchor-2" 860 0 basechar 0
AnchorPoint: "Anchor-0" 1230 1500 basechar 0
LayerCount: 2
Fore
SplineSet
-100 48 m 6
 -100 215 l 2
 -100 265.79296875 -90.9810186537 270 -42 270 c 2
 76 270 l 2
 123.665002887 270 122.264615322 273.930069643 130.64 312 c 2
 320.48046875 1174 l 2
 331.87890625 1225.8125 326.251156726 1230 266 1230 c 2
 182 1230 l 2
 144.113738078 1230 130 1231.15527344 130 1272 c 2
 130 1462 l 2
 130 1493.09765625 133.847515711 1500 164 1500 c 2
 878 1500 l 2
 923.091156886 1500 942 1496.45214844 942 1447 c 2
 942 1270 l 2
 942 1226.38378906 931.011283768 1224 890 1224 c 2
 826 1224 l 2
 772.470387131 1224 780.173782777 1205.04130748 771.108433735 1164 c 2
 698.658634538 836 l 2
 691.440254749 803.320426044 698.578595171 792.54347267 736 824.522875817 c 2
 1144 1173.18954248 l 2
 1174.52956028 1199.27934645 1225.04003906 1224 1140 1224 c 2
 1094 1224 l 2
 1060.98339844 1224 1056 1230.83930037 1056 1262 c 2
 1056 1450 l 2
 1056 1499.26953125 1081.19901155 1500 1126 1500 c 2
 1812 1500 l 2
 1859.8379911 1500 1860 1499.99959005 1860 1452 c 2
 1860 1272 l 2
 1860 1230.75390625 1856.11082079 1224 1816 1224 c 2
 1670 1224 l 2
 1617.93146851 1224 1606.52298601 1217.12109023 1580 1195.61471103 c 2
 1148 845.323992995 l 2
 1090.65531741 798.825590125 1128.04980469 798.329101562 1188 775.123046875 c 0
 1563.8203125 629.646484375 1343.89453125 270 1606 270 c 2
 1696 270 l 2
 1737.45059053 270 1744 265.139648438 1744 222 c 2
 1744 52 l 2
 1744 2.095703125 1733.05140787 0 1686 0 c 2
 1274 0 l 2
 885.80859375 0 977.293665479 329.479299609 890.576560076 575.999994454 c 0
 871.085296812 631.41005157 863.758253779 614.844258318 826 584.227670753 c 2
 644 436.651488616 l 2
 625.000027625 421.245206288 605.176971044 412.783014361 598.819277108 384 c 2
 584.240963855 318 l 2
 575.020219978 276.255177719 576.323242188 270 630 270 c 2
 734 270 l 2
 762.164807656 270 772 266.311523438 772 236 c 2
 772 46 l 2
 772 0.3369140625 756.625431199 0 714 0 c 2
 -62 0 l 2
 -99.871742956 0 -100 10 -100 48 c 6
EndSplineSet
Substitution2: "'c2sc' Capitals to Small Capitals in Latin lookup 1 subtable" k.sc
EndChar

StartChar: L
Encoding: 76 76 23
GlifName: L_
Width: 1602
Flags: HMW
AnchorPoint: "Anchor-1" 646 0 basechar 0
AnchorPoint: "Anchor-0" 678 1500 basechar 0
AnchorPoint: "Anchor-2" 646 0 basechar 0
AnchorPoint: "Anchor-1" 1114 943 basechar 0
AnchorPoint: "Anchor-0" 678 1500 basechar 0
LayerCount: 2
Fore
SplineSet
-100 55 m 2
 -100 225 l 2
 -100 260.40625 -99.4636257601 270 -64 270 c 2
 106 270 l 2
 164.506309295 270 164.241142065 273.005353431 174.48 321 c 2
 357.093333333 1177 l 2
 368.153331058 1228.84373934 361.283203125 1230 298 1230 c 2
 202 1230 l 2
 157.622070312 1230 148 1230.53507265 148 1275 c 2
 148 1465 l 2
 148 1499.34348749 157.477539062 1500 192 1500 c 2
 1054 1500 l 2
 1094.10153036 1500 1100 1494.69335938 1100 1453 c 2
 1100 1278 l 2
 1100 1238.22851562 1096.72411088 1230 1058 1230 c 2
 910 1230 l 2
 848.32818646 1230 847.891991982 1227.61871242 837.093333333 1177 c 2
 655.76 327 l 2
 645.22524127 277.618318452 644.87109375 270 708 270 c 2
 812 270 l 2
 1074.94423895 270 1173.96289062 359.618164062 1252.22753906 645 c 4
 1262.53515625 682.5859375 1266.22230097 690 1314 690 c 2
 1446 690 l 2
 1491.84179688 690 1500.24902344 681.14453125 1491.95605469 643 c 2
 1358.73913043 31 l 2
 1352.33861696 1.55763799701 1342.203125 0 1306 0 c 2
 -40 0 l 2
 -90.1457141494 0 -100 2.6240234375 -100 55 c 2
EndSplineSet
Substitution2: "'c2sc' Capitals to Small Capitals in Latin lookup 1 subtable" l.sc
EndChar

StartChar: M
Encoding: 77 77 24
GlifName: M_
Width: 2306
Flags: HMW
AnchorPoint: "Anchor-1" 995 0 basechar 0
AnchorPoint: "Anchor-0" 1470 1500 basechar 0
AnchorPoint: "Anchor-2" 995 0 basechar 0
AnchorPoint: "Anchor-0" 1470 1500 basechar 0
LayerCount: 2
Fore
SplineSet
1503 851 m 2
 1041 25 l 2
 1022 -9 1023 -20 966 -20 c 2
 804 -20 l 2
 739 -20 738 -19 729 37 c 2
 607 821 l 2
 591 927 597.848632812 1004 578 1004 c 4
 558 1004 552 934 526 829 c 2
 400 317 l 2
 389 272 395 270 452 270 c 2
 558 270 l 2
 598 270 600 262 600 221 c 2
 600 49 l 2
 600 5 594 0 548 0 c 2
 -54 0 l 2
 -110 0 -120 1 -120 57 c 2
 -120 232 l 2
 -120 263 -114 270 -84 270 c 2
 54 270 l 2
 121 270 117 279 130 331 c 2
 342 1167 l 2
 356 1221 358 1230 286 1230 c 2
 214 1230 l 2
 160 1230 154 1235 154 1287 c 2
 154 1455 l 2
 154 1500 170 1500 212 1500 c 2
 928 1500 l 2
 997 1500 1003 1494 1013 1433 c 2
 1111 843 l 2
 1127 745 1128 688 1142 688 c 0
 1159 688 1192 764 1235 839 c 2
 1586 1445 l 2
 1611 1489 1622 1500 1694 1500 c 2
 2300 1500 l 2
 2339 1500 2346 1497 2346 1459 c 2
 2346 1299 l 2
 2346 1238 2343 1230 2282 1230 c 2
 2128 1230 l 2
 2084 1230 2083 1229 2077 1191 c 2
 1937 331 l 2
 1928 277 1932 270 1994 270 c 2
 2112 270 l 2
 2155 270 2162 267 2162 225 c 2
 2162 57 l 2
 2162 3 2152 0 2100 0 c 2
 1350 0 l 2
 1293 0 1282 2 1282 61 c 2
 1282 209 l 2
 1282 265 1288 270 1342 270 c 2
 1398 270 l 2
 1476 270 1472 278 1483 343 c 2
 1566 841 l 2
 1582 934 1634 1000 1601 1000 c 0
 1581.10058594 1000 1547 930 1503 851 c 2
EndSplineSet
Substitution2: "'c2sc' Capitals to Small Capitals in Latin lookup 1 subtable" m.sc
EndChar

StartChar: N
Encoding: 78 78 25
GlifName: N_
Width: 1916
Flags: HMW
AnchorPoint: "Anchor-1" 766 0 basechar 0
AnchorPoint: "Anchor-0" 1040 1500 basechar 0
AnchorPoint: "Anchor-2" 766 0 basechar 0
AnchorPoint: "Anchor-0" 1040 1500 basechar 0
LayerCount: 2
Fore
SplineSet
271 1230 m 2
 168 1230 l 2
 127 1230 120 1234 120 1274 c 2
 120 1460 l 2
 120 1498 128 1500 167 1500 c 2
 814 1500 l 2
 873 1500 889 1496 911 1461 c 2
 1283 885 l 2
 1312 841 1318 793 1340 793 c 0
 1360 793 1358 824 1370 880 c 2
 1435 1189 l 2
 1442 1225 1439 1230 1394 1230 c 2
 1319 1230 l 2
 1282 1230 1276 1236 1276 1272 c 2
 1276 1460 l 2
 1276 1494 1281 1500 1317 1500 c 2
 1922 1500 l 2
 1950 1500 1956 1494 1956 1467 c 2
 1956 1271 l 2
 1956 1236 1951 1230 1917 1230 c 2
 1746 1230 l 2
 1704 1230 1703 1229 1696 1195 c 2
 1448 20 l 2
 1442 -11 1437 -20 1400 -20 c 2
 1232 -20 l 2
 1186 -20 1175 -12 1158 15 c 2
 607 887 l 2
 576 936 570.153320312 983 547 983 c 0
 527 983 528 948 515 888 c 2
 390 307 l 2
 384 279 384 270 417 270 c 2
 535 270 l 2
 560 270 570 270 570 245 c 2
 570 35 l 2
 570 5 564 0 536 0 c 2
 -72 0 l 2
 -96 0 -100 7 -100 32 c 2
 -100 225 l 2
 -100 261 -99 270 -63 270 c 2
 86 270 l 2
 127 270 128 271 135 304 c 2
 321 1177 l 2
 331 1225 327 1230 271 1230 c 2
EndSplineSet
Substitution2: "'c2sc' Capitals to Small Capitals in Latin lookup 1 subtable" n.sc
EndChar

StartChar: O
Encoding: 79 79 26
GlifName: O_
Width: 1900
Flags: HMW
AnchorPoint: "Anchor-1" 766 0 basechar 0
AnchorPoint: "Anchor-0" 1140 1500 basechar 0
AnchorPoint: "Anchor-2" 766 0 basechar 0
AnchorPoint: "Anchor-0" 1140 1500 basechar 0
LayerCount: 2
Fore
SplineSet
1090 1540 m 1
 1516 1540 1830 1346 1830 900 c 0
 1830 354 1396 -40 810 -40 c 1
 830 220 l 1
 1138 220 1320 606 1320 930 c 0
 1320 1154 1258 1280 1070 1280 c 1
 1090 1540 l 1
810 -40 m 5
 384 -40 70 154 70 600 c 4
 70 1146 504 1540 1090 1540 c 5
 1070 1280 l 5
 782 1280 580 894 580 570 c 4
 580 346 642 220 830 220 c 5
 810 -40 l 5
EndSplineSet
Substitution2: "'c2sc' Capitals to Small Capitals in Latin lookup 1 subtable" o.sc
EndChar

StartChar: P
Encoding: 80 80 27
GlifName: P_
Width: 1594
Flags: HMW
AnchorPoint: "Anchor-1" 322 0 basechar 0
AnchorPoint: "Anchor-0" 980 1500 basechar 0
AnchorPoint: "Anchor-2" 322 0 basechar 0
AnchorPoint: "Anchor-0" 980 1500 basechar 0
LayerCount: 2
Fore
SplineSet
760 820 m 6
 814 820 l 6
 1006 820 1114 962 1114 1100 c 4
 1114 1178 1056 1230 964 1230 c 6
 854 1230 l 6
 803.078649498 1230 805.3065472 1224.87444 796.586666667 1184 c 6
 726.613333333 856 l 6
 720.459413976 827.153503013 721.8515625 820 760 820 c 6
650.24 498 m 2
 609.706666667 308 l 2
 602.667015735 275.00163626 605.834960938 270 648 270 c 2
 790 270 l 2
 857.581264177 270 860 262.060546875 860 194 c 2
 860 60 l 2
 860 1.28164845915 851.041992188 0 792 0 c 2
 -32 0 l 2
 -74.5675731474 0 -100 1.880859375 -100 49 c 2
 -100 230 l 2
 -100 263.130859375 -96.147504192 270 -64 270 c 2
 86 270 l 2
 124.89963033 270 122.624377557 274.8017698 129.28 306 c 2
 315.013671875 1174 l 2
 326.546875 1228.06347656 312.060973646 1230 252 1230 c 2
 162 1230 l 2
 123.995699683 1230 120 1236.640625 120 1276 c 2
 120 1462 l 2
 120 1493.07528144 124.859375 1500 158 1500 c 2
 1034 1500 l 2
 1416 1500 1614 1360 1614 1100 c 0
 1614 680 1196 550 834 550 c 2
 704 550 l 2
 653.007889995 550 658.777562997 538.019826549 650.24 498 c 2
EndSplineSet
Substitution2: "'c2sc' Capitals to Small Capitals in Latin lookup 1 subtable" p.sc
EndChar

StartChar: Q
Encoding: 81 81 28
GlifName: Q_
Width: 1930
Flags: HMW
AnchorPoint: "Anchor-0" 1140 1500 basechar 0
AnchorPoint: "Anchor-0" 1140 1500 basechar 0
LayerCount: 2
Fore
SplineSet
610 570 m 4
 610 346 672 220 860 220 c 4
 1168 220 1350 606 1350 930 c 4
 1350 1154 1288 1280 1100 1280 c 4
 812 1280 610 894 610 570 c 4
70 -308 m 0
 70 -78 410 -54 568 -54 c 0
 1027 -54 1013 -338 1088 -338 c 0
 1112 -338 1118 -332 1118 -320 c 0
 1118 -290 1076 -312 1076 -220 c 0
 1076 -106 1202 -54 1316 -54 c 0
 1430 -54 1538 -128 1538 -236 c 0
 1538 -486 1208 -500 1050 -500 c 0
 571 -500 641 -216 526 -216 c 0
 504 -216 496 -218 496 -230 c 0
 496 -254 542 -242 542 -334 c 0
 542 -448 432 -500 298 -500 c 0
 164 -500 70 -424 70 -308 c 0
100 600 m 0
 100 1146 534 1540 1120 1540 c 0
 1546 1540 1860 1346 1860 900 c 0
 1860 354 1426 -40 840 -40 c 0
 414 -40 100 154 100 600 c 0
EndSplineSet
Substitution2: "'c2sc' Capitals to Small Capitals in Latin lookup 1 subtable" q.sc
EndChar

StartChar: R
Encoding: 82 82 29
GlifName: R_
Width: 1834
Flags: HMW
AnchorPoint: "Anchor-1" 776 0 basechar 0
AnchorPoint: "Anchor-0" 1060 1500 basechar 0
AnchorPoint: "Anchor-2" 776 0 basechar 0
AnchorPoint: "Anchor-0" 1060 1500 basechar 0
LayerCount: 2
Fore
SplineSet
1780 155 m 4
 1664 16 1476 -30 1338 -30 c 4
 1150 -30 1018 44 1018 194 c 4
 1018 294 1044 366 1044 446 c 4
 1044 496 1004 610 838 610 c 6
 764 610 l 6
 720 610 712 602 704 565 c 6
 653 323 l 6
 645 284 640 270 692 270 c 6
 790 270 l 6
 830 270 840 269 840 229 c 6
 840 55 l 6
 840 5 834 0 786 0 c 6
 -15 0 l 6
 -54 0 -60 7 -60 45 c 6
 -60 225 l 6
 -60 264 -55 270 -14 270 c 6
 120 270 l 6
 170 270 164 282 172 321 c 6
 355 1177 l 6
 365 1224 363 1230 308 1230 c 6
 212 1230 l 6
 167 1230 160 1233 160 1277 c 6
 160 1461 l 6
 160 1499 169 1500 208 1500 c 6
 1118 1500 l 6
 1480 1500 1718 1420 1718 1160 c 4
 1718 971 1575 859 1374 794 c 4
 1313 775 1281 773 1281 757 c 4
 1281 742 1311 739 1374 717 c 4
 1471 683 1530 625 1530 492 c 4
 1530 400 1486 366 1486 322 c 4
 1486 300 1504 284 1526 284 c 4
 1553 284 1582 291 1630 341 c 4
 1656 368 1655 371 1683 341 c 6
 1787 231 l 6
 1818 198 1809 190 1780 155 c 4
834 890 m 6
 978 890 l 6
 1130 890 1238 992 1238 1112 c 4
 1238 1182 1170 1230 1078 1230 c 6
 906 1230 l 6
 855 1230 845 1224 836 1181 c 6
 785 943 l 6
 775 897 776 890 834 890 c 6
EndSplineSet
Substitution2: "'c2sc' Capitals to Small Capitals in Latin lookup 1 subtable" r.sc
Substitution2: "'ss01' Style Set 1 lookup 3 subtable" R.alt
EndChar

StartChar: S
Encoding: 83 83 30
GlifName: S_
Width: 1498
Flags: HMW
AnchorPoint: "Anchor-1" 645 0 basechar 0
AnchorPoint: "Anchor-0" 1030 1500 basechar 0
AnchorPoint: "Anchor-2" 645 0 basechar 0
AnchorPoint: "Anchor-0" 1030 1500 basechar 0
LayerCount: 2
Fore
SplineSet
644 1140 m 0
 644 898 1404 1050 1404 490 c 0
 1404 190 1146 -50 744 -50 c 0
 544.543029848 -50 416.285635863 2.01406163155 336 75.3342220535 c 0
 303.08414498 105.394341084 306.303769617 112.545037799 270 82.1367521368 c 2
 188 13.452991453 l 2
 168.582648344 -2.81111506227 152.454101562 -10 114 -10 c 2
 -8 -10 l 2
 -54.201171875 -10 -82.351524547 -19.7196347943 -72.2580645161 22 c 2
 57.9032258065 560 l 2
 67.1745549491 598.32149379 71.8125 610 122 610 c 2
 236 610 l 2
 306.623046875 610 294.792385339 585.873060649 295.180243685 528 c 0
 296.999769711 256.505159205 492.192142609 178 664 178 c 0
 854 178 924 262 924 380 c 0
 924 662 170 476 170 1016 c 0
 170 1316 436 1550 784 1550 c 0
 957.721082368 1550 1092.47132995 1493.97942499 1181.99998118 1410.06670201 c 0
 1203.13105434 1390.26113292 1204.14506517 1377.41057728 1228 1397.73913043 c 2
 1328 1482.95652174 l 2
 1345.85510729 1498.17217839 1368.31835938 1500 1404 1500 c 2
 1518 1500 l 2
 1573.79245461 1500 1576.92578125 1494.40625 1566.75292969 1446 c 2
 1464.50847458 960 l 2
 1452.50660805 902.894344733 1438.64243683 910 1372 910 c 2
 1268 910 l 6
 1222.15722656 910 1215.82324219 913.791015625 1217.33398438 955 c 0
 1225.10449219 1166.93261719 1070.70152744 1318 856 1318 c 0
 718 1318 644 1224 644 1140 c 0
EndSplineSet
Substitution2: "'c2sc' Capitals to Small Capitals in Latin lookup 1 subtable" s.sc
EndChar

StartChar: T
Encoding: 84 84 31
GlifName: T_
Width: 1628
Flags: HMW
AnchorPoint: "Anchor-1" 666 0 basechar 0
AnchorPoint: "Anchor-0" 1039 1500 basechar 0
AnchorPoint: "Anchor-2" 666 0 basechar 0
AnchorPoint: "Anchor-0" 1039 1500 basechar 0
LayerCount: 2
Fore
SplineSet
212 58 m 2
 212 222 l 2
 212 269.301524515 221.4765625 270 269 270 c 2
 427 270 l 2
 489.214712856 270 484.174496908 280.189671503 494.804123711 330 c 2
 686.65257732 1229 l 2
 688.623321334 1238.23488741 675.879882812 1240 664 1240 c 2
 662 1240 l 2
 479.000976562 1240 408.966173656 1163.07481532 339.683456965 945 c 0
 323.278332295 893.363102609 318.166193134 880 256 880 c 2
 158 880 l 2
 82.248046875 880 81.3089917853 885.635936853 95.0967741935 945 c 2
 211.458064516 1446 l 2
 222.471461746 1493.41879363 229.643554688 1500 290 1500 c 2
 1660 1500 l 2
 1736.4369231 1500 1746.68725539 1494.50066448 1728.66451613 1419 c 2
 1611.93548387 930 l 2
 1603.17686842 893.30850283 1598.99023438 880 1551 880 c 2
 1421 880 l 2
 1343.85253906 880 1355.58331362 898.683502908 1366.12388651 954 c 0
 1407.23736637 1169.76186744 1359.32303597 1240 1184 1240 c 2
 1152 1240 l 2
 1124.12230619 1240 1122.4765625 1222.86132812 1117.81152344 1201 c 2
 938.645360825 348 l 2
 926.751224212 292.26419075 913.798828125 270 989 270 c 2
 1117 270 l 2
 1167.28671746 270 1172 264.024414062 1172 212 c 2
 1172 73 l 2
 1172 4.5947265625 1165.51997507 0 1099 0 c 2
 271 0 l 2
 219.217186854 0 212 4.19921875 212 58 c 2
EndSplineSet
Substitution2: "'c2sc' Capitals to Small Capitals in Latin lookup 1 subtable" t.sc
EndChar

StartChar: U
Encoding: 85 85 32
GlifName: U_
Width: 1830
Flags: HMW
AnchorPoint: "Anchor-2" 1228 90 basechar 0
AnchorPoint: "Anchor-1" 866 0 basechar 0
AnchorPoint: "Anchor-0" 1170 1500 basechar 0
AnchorPoint: "Anchor-3" 1228 90 basechar 0
AnchorPoint: "Anchor-2" 866 0 basechar 0
AnchorPoint: "Anchor-0" 1170 1500 basechar 0
LayerCount: 2
Fore
SplineSet
836.5 1174 m 2
 698 620 l 2
 676 534 670 462 670 410 c 0
 670 320 718 236 868 236 c 0
 1036 236 1223 294 1298 600 c 2
 1439.24414062 1176 l 2
 1450.09277344 1220.37988281 1453.14858072 1230 1398 1230 c 2
 1290 1230 l 2
 1240.16875927 1230 1240 1240 1240 1290 c 2
 1240 1448 l 2
 1240 1488.90429688 1241.0825046 1500 1282 1500 c 2
 1910 1500 l 2
 1949.86499259 1500 1950 1490 1950 1450 c 2
 1950 1270 l 2
 1950 1236.86914062 1936.14746094 1230 1904 1230 c 2
 1782 1230 l 2
 1739.17089844 1230 1730.89860578 1225.49429639 1722.71111111 1192 c 2
 1578 600 l 2
 1469 156 1254 -50 798 -50 c 0
 364 -50 186 134 186 364 c 0
 186 438 198 517 218 600 c 2
 360.755555556 1184 l 2
 370.358337943 1223.28410977 367.747070312 1230 316 1230 c 2
 206 1230 l 2
 166.549640115 1230 160 1236.91113281 160 1278 c 2
 160 1457 l 2
 160 1494.27832031 171.081842502 1500 206 1500 c 2
 1030 1500 l 2
 1084.7167645 1500 1100 1495.58691406 1100 1437 c 2
 1100 1280 l 2
 1100 1236.17089844 1092.27154566 1230 1050 1230 c 2
 916 1230 l 2
 849.863092823 1230 849.644667837 1226.57867135 836.5 1174 c 2
EndSplineSet
Substitution2: "'c2sc' Capitals to Small Capitals in Latin lookup 1 subtable" u.sc
EndChar

StartChar: V
Encoding: 86 86 33
GlifName: V_
Width: 1850
Flags: HMW
AnchorPoint: "Anchor-1" 832 0 basechar 0
AnchorPoint: "Anchor-0" 1330 1500 basechar 0
AnchorPoint: "Anchor-2" 832 0 basechar 0
AnchorPoint: "Anchor-0" 1330 1500 basechar 0
LayerCount: 2
Fore
SplineSet
581 16 m 2
 345 1180 l 2
 337 1219 333 1230 284 1230 c 2
 170 1230 l 2
 121 1230 120 1239 120 1288 c 2
 120 1449 l 2
 120 1497 135 1500 180 1500 c 2
 1062 1500 l 2
 1099 1500 1110 1496 1110 1456 c 2
 1110 1272 l 2
 1110 1238 1104 1230 1068 1230 c 2
 898 1230 l 2
 852 1230 852 1222 859 1182 c 2
 957 586 l 2
 971 499 961 436 984 436 c 4
 1008.56054688 436 1026 489 1067 552 c 2
 1475 1184 l 2
 1503 1227 1504 1230 1430 1230 c 2
 1390 1230 l 2
 1345 1230 1340 1240 1340 1282 c 2
 1340 1440 l 2
 1340 1489 1341 1500 1390 1500 c 2
 1980 1500 l 2
 2013 1500 2020 1494 2020 1459 c 2
 2020 1281 l 2
 2020 1236 2014 1230 1970 1230 c 2
 1880 1230 l 2
 1833 1230 1828 1227 1810 1200 c 2
 1017 10 l 2
 996 -21 984 -30 930 -30 c 2
 644 -30 l 2
 595 -30 589 -23 581 16 c 2
EndSplineSet
Substitution2: "'c2sc' Capitals to Small Capitals in Latin lookup 1 subtable" v.sc
EndChar

StartChar: W
Encoding: 87 87 34
GlifName: W_
Width: 2618
Flags: HMW
AnchorPoint: "Anchor-1" 1216 0 basechar 0
AnchorPoint: "Anchor-0" 1630 1500 basechar 0
AnchorPoint: "Anchor-2" 1216 0 basechar 0
AnchorPoint: "Anchor-0" 1630 1500 basechar 0
LayerCount: 2
Fore
SplineSet
987 638 m 2
 1322 1100 l 2
 1338 1121 1361 1139 1357 1172 c 2
 1354 1200 l 2
 1351 1228 1352 1230 1320 1230 c 2
 1206 1230 l 2
 1169 1230 1162 1236 1162 1274 c 2
 1162 1426 l 2
 1162 1495 1168 1500 1236 1500 c 2
 1904 1500 l 2
 1946 1500 1962 1498 1962 1452 c 2
 1962 1282 l 2
 1962 1230 1952 1230 1900 1230 c 2
 1848 1230 l 2
 1799 1230 1801 1215 1806 1174 c 2
 1856 754 l 2
 1865 679 1846.91308594 591 1870 591 c 0
 1885 591 1900 627 1917 654 c 2
 2243 1172 l 2
 2275 1222 2294 1230 2206 1230 c 2
 2151 1230 l 2
 2104 1230 2100 1239 2100 1284 c 2
 2100 1458 l 2
 2100 1499 2109 1500 2150 1500 c 2
 2724 1500 l 2
 2781 1500 2788 1494 2788 1435 c 2
 2788 1278 l 2
 2788 1235 2782 1230 2738 1230 c 2
 2618 1230 l 2
 2571 1230 2571 1213 2554 1186 c 2
 1825 42 l 2
 1799 1 1790 -20 1718 -20 c 2
 1574 -20 l 2
 1507 -20 1492 -15 1485 48 c 2
 1424 582 l 2
 1412 688 1428 770 1404 770 c 0
 1390.84667969 770 1360 727 1319 672 c 2
 846 36 l 2
 814 -6 801 -20 722 -20 c 2
 576 -20 l 2
 506 -20 509 -14 501 46 c 2
 350 1140 l 2
 341 1206 353 1230 274 1230 c 2
 184 1230 l 2
 131 1230 120 1232 120 1288 c 2
 120 1436 l 2
 120 1491 121 1500 176 1500 c 2
 914 1500 l 2
 972 1500 1000 1496 1000 1432 c 2
 1000 1300 l 2
 1000 1250 998 1230 944 1230 c 2
 854 1230 l 2
 810 1230 807 1213 812 1176 c 2
 878 644 l 2
 889 559 877.844726562 529 894 529 c 0
 913 529 952 589 987 638 c 2
EndSplineSet
Substitution2: "'c2sc' Capitals to Small Capitals in Latin lookup 1 subtable" w.sc
EndChar

StartChar: X
Encoding: 88 88 35
GlifName: X_
Width: 1700
Flags: HMW
AnchorPoint: "Anchor-1" 706 0 basechar 0
AnchorPoint: "Anchor-0" 1230 1500 basechar 0
AnchorPoint: "Anchor-2" 706 0 basechar 0
AnchorPoint: "Anchor-0" 1230 1500 basechar 0
LayerCount: 2
Fore
SplineSet
221 1230 m 2
 135 1230 l 2
 73 1230 70 1239 70 1299 c 2
 70 1454 l 2
 70 1497 94 1500 133 1500 c 2
 955 1500 l 2
 1005 1500 1010 1494 1010 1443 c 2
 1010 1291 l 2
 1010 1241 1008 1230 955 1230 c 2
 877 1230 l 2
 815 1230 806 1227 841 1183 c 2
 947 1047 l 2
 973 1014 976 987 993 987 c 4
 1012.10449219 987 1041 1015 1081 1048 c 2
 1251 1189 l 2
 1278 1211 1316 1230 1243 1230 c 2
 1199 1230 l 2
 1150 1230 1150 1230 1150 1279 c 2
 1150 1435 l 2
 1150 1493 1154 1500 1211 1500 c 2
 1797 1500 l 2
 1852 1500 1870 1498 1870 1439 c 2
 1870 1299 l 2
 1870 1239 1867 1230 1805 1230 c 2
 1741 1230 l 2
 1678 1230 1661 1224 1629 1197 c 2
 1245 880 l 2
 1192 836 1156 805 1156 780 c 0
 1156 758 1186 742 1224 693 c 2
 1523 311 l 2
 1546 281 1559 270 1615 270 c 2
 1737 270 l 2
 1778 270 1778 260 1778 219 c 2
 1778 51 l 2
 1778 2 1768 0 1719 0 c 2
 851 0 l 2
 812 0 798 3 798 45 c 2
 798 223 l 2
 798 270 808 270 855 270 c 2
 973 270 l 2
 1021 270 1005 296 979 329 c 2
 849 497 l 2
 818 537 809.262695312 568 792 568 c 0
 773 568 746 547 705 512 c 2
 505 342 l 2
 478 319 432 270 477 270 c 2
 511 270 l 2
 549 270 560 268 560 227 c 2
 560 75 l 2
 560 9 545 0 483 0 c 2
 -105 0 l 2
 -155 0 -180 2 -180 57 c 2
 -180 195 l 2
 -180 255 -178 270 -114 270 c 2
 -13 270 l 2
 44 270 54 279 83 304 c 2
 541 697 l 2
 587 737 618 761 618 786 c 0
 618 818.015625 577 848 530 909 c 2
 321 1179 l 2
 293 1216 290 1230 221 1230 c 2
EndSplineSet
Substitution2: "'c2sc' Capitals to Small Capitals in Latin lookup 1 subtable" x.sc
EndChar

StartChar: Y
Encoding: 89 89 36
GlifName: Y_
Width: 1670
Flags: HMW
AnchorPoint: "Anchor-1" 761 0 basechar 0
AnchorPoint: "Anchor-0" 1020 1500 basechar 0
AnchorPoint: "Anchor-2" 761 0 basechar 0
AnchorPoint: "Anchor-0" 1020 1500 basechar 0
LayerCount: 2
Fore
SplineSet
308 40 m 2
 308 220 l 2
 308 270 318 270 368 270 c 2
 512 270 l 2
 560 270 554 283 563 320 c 2
 605 504 l 2
 621 574 615 597 588 654 c 2
 344 1172 l 2
 322 1220 323 1230 250 1230 c 2
 172 1230 l 2
 124 1230 120 1238 120 1284 c 2
 120 1446 l 2
 120 1490 122 1500 166 1500 c 2
 900 1500 l 2
 955 1500 960 1495 960 1438 c 2
 960 1300 l 2
 960 1234 952 1230 888 1230 c 2
 846 1230 l 2
 789 1230 788 1217 804 1182 c 2
 919 930 l 2
 947 868 933.864257812 837 966 837 c 0
 990 837 1004 867 1030 896 c 2
 1290 1184 l 2
 1320 1217 1341 1230 1264 1230 c 2
 1198 1230 l 2
 1158 1230 1150 1235 1150 1274 c 2
 1150 1443 l 2
 1150 1495 1158 1500 1208 1500 c 2
 1772 1500 l 2
 1820 1500 1830 1498 1830 1450 c 2
 1830 1268 l 2
 1830 1234 1821 1230 1786 1230 c 2
 1716 1230 l 2
 1677 1230 1662 1225 1644 1206 c 2
 1159 678 l 2
 1130 646 1114 629 1102 576 c 2
 1045 328 l 2
 1033 274 1039 270 1102 270 c 2
 1200 270 l 2
 1268 270 1278 268 1278 198 c 2
 1278 69 l 2
 1278 3 1260 0 1198 0 c 2
 357 0 l 2
 318 0 308 1 308 40 c 2
EndSplineSet
Substitution2: "'c2sc' Capitals to Small Capitals in Latin lookup 1 subtable" y.sc
EndChar

StartChar: Z
Encoding: 90 90 37
GlifName: Z_
Width: 1570
Flags: HMW
AnchorPoint: "Anchor-1" 686 0 basechar 0
AnchorPoint: "Anchor-0" 860 1500 basechar 0
AnchorPoint: "Anchor-2" 686 0 basechar 0
AnchorPoint: "Anchor-0" 860 1500 basechar 0
LayerCount: 2
Fore
SplineSet
-110 82 m 2
 -110 306 l 2
 -110 378 -95 381 -56 411 c 2
 812 1066 l 2
 851 1095 1022 1180 1022 1216 c 0
 1022 1236.04980469 969 1230 942 1230 c 2
 730 1230 l 2
 479 1230 386 1158 318 936 c 0
 305 892 303 870 240 870 c 2
 120 870 l 2
 56 870 63 891 71 940 c 2
 152 1450 l 2
 159 1495 166 1500 220 1500 c 2
 1492 1500 l 2
 1550 1500 1550 1490 1550 1432 c 2
 1550 1190 l 2
 1550 1124 1538 1121 1502 1094 c 2
 624 431 l 2
 571 391 421 327.712890625 421 293 c 0
 421 260 471 270 540 270 c 2
 830 270 l 2
 1089 270 1180 347 1257 620 c 0
 1269 663 1276 670 1334 670 c 2
 1450 670 l 2
 1511 670 1507 655 1500 606 c 2
 1419 62 l 2
 1410 4 1402 0 1334 0 c 2
 -36 0 l 2
 -109 0 -110 9 -110 82 c 2
EndSplineSet
Substitution2: "'c2sc' Capitals to Small Capitals in Latin lookup 1 subtable" z.sc
EndChar

StartChar: a
Encoding: 97 97 38
GlifName: a
Width: 1444
VWidth: 2310
Flags: HW
AnchorPoint: "Anchor-2" 1137 10 basechar 0
AnchorPoint: "Anchor-1" 495 0 basechar 0
AnchorPoint: "Anchor-0" 861 1040 basechar 0
AnchorPoint: "Anchor-0" 861 1040 basechar 0
AnchorPoint: "Anchor-2" 495 0 basechar 0
AnchorPoint: "Anchor-3" 1137 10 basechar 0
LayerCount: 2
Fore
SplineSet
749 640 m 0
 749 750 732 850 681 850 c 0
 567 850 443 608 443 360 c 0
 443 232 466 188 520 188 c 0
 594 188 749 372 749 640 c 0
1374 273 m 0
 1268 71 1100 -50 900 -50 c 0
 807 -50 738 -7 694 49 c 0
 683 63 675 72 668 79 c 0
 648 98 638 90 604 61 c 0
 535 1 448 -40 342 -40 c 0
 161 -40 -22 40 -22 340 c 0
 -22 780 281 1078 536 1078 c 0
 663 1078 738 1031 786 937 c 0
 801 908 814 895 826 954 c 2
 837 1008 l 2
 842 1032 849 1040 886 1040 c 2
 1192 1040 l 2
 1240 1040 1240 1031 1230 994 c 2
 1050 302 l 2
 1047 290 1044 272 1044 262 c 0
 1044 240 1051 234 1069 234 c 0
 1105 234 1147 277 1197 372 c 0
 1221 418 1231 417 1270 399 c 2
 1352 361 l 2
 1400 338 1403 328 1374 273 c 0
EndSplineSet
Substitution2: "'smcp' Lowercase to Small Capitals in Latin lookup 0 subtable" a.sc
EndChar

StartChar: b
Encoding: 98 98 39
GlifName: b
Width: 1275
VWidth: 2310
Flags: HW
AnchorPoint: "Anchor-1" 495 0 basechar 0
AnchorPoint: "Anchor-0" 1041 1040 basechar 0
AnchorPoint: "Anchor-0" 1041 1040 basechar 0
AnchorPoint: "Anchor-2" 495 0 basechar 0
LayerCount: 2
Fore
SplineSet
396 254 m 0
 410 211 437 190 473 190 c 0
 570 190 716 392 716 700 c 0
 716 788.005681635 697 846 654 846 c 0
 584 846 491 760 446 555 c 2
 395 323 l 2
 389 297 388 278 396 254 c 0
1 302 m 2
 227 1291 l 2
 237 1335 234 1350 175 1350 c 2
 82 1350 l 2
 52 1350 49 1358 49 1389 c 2
 49 1519 l 2
 49 1553 53 1560 86 1560 c 2
 617 1560 l 2
 661 1560 663 1555 653 1513 c 2
 545 1009 l 2
 535 964 536 939 577 974 c 0
 646 1033 748 1078 849 1078 c 0
 1037 1078 1183 990 1183 710 c 0
 1183 330 877 -50 451 -50 c 0
 222 -50 89 53 20 172 c 0
 -8 220 -13 241 1 302 c 2
EndSplineSet
Substitution2: "'smcp' Lowercase to Small Capitals in Latin lookup 0 subtable" b.sc
EndChar

StartChar: c
Encoding: 99 99 40
GlifName: c
Width: 1211
VWidth: 2310
Flags: HW
AnchorPoint: "Anchor-1" 489 0 basechar 0
AnchorPoint: "Anchor-0" 750 1040 basechar 0
AnchorPoint: "Anchor-0" 750 1040 basechar 0
AnchorPoint: "Anchor-2" 489 0 basechar 0
LayerCount: 2
Fore
SplineSet
1165 734 m 0
 1165 558 1045 480 917 480 c 0
 805 480 725 552 727 686 c 0
 728 782 805 810 805 844 c 0
 805 868 789 886 746 886 c 0
 618 886 417 688 417 380 c 4
 417 231.986487103 466 188 536 188 c 0
 605 188 698 218 766 309 c 0
 782 331 791 346 832 346 c 2
 998 346 l 2
 1040 346 1058 334 1036 302 c 0
 916 130 760 -40 475 -40 c 0
 233 -40 -21 98 -21 400 c 0
 -21 800 307 1080 678 1080 c 0
 941 1080 1165 938 1165 734 c 0
EndSplineSet
Substitution2: "'smcp' Lowercase to Small Capitals in Latin lookup 0 subtable" c.sc
EndChar

StartChar: d
Encoding: 100 100 41
GlifName: d
Width: 1486
VWidth: 2310
Flags: HW
AnchorPoint: "Anchor-1" 552 0 basechar 0
AnchorPoint: "Anchor-0" 590 1040 basechar 0
AnchorPoint: "Anchor-0" 590 1040 basechar 0
AnchorPoint: "Anchor-1" 1578 1040 basechar 0
AnchorPoint: "Anchor-2" 552 0 basechar 0
LayerCount: 2
Fore
SplineSet
742 640 m 4
 742 750.004545361 725 850 674 850 c 0
 560 850 436 608 436 360 c 4
 436 231.99609381 459 188 513 188 c 0
 587 188 742 372 742 640 c 4
1398 292 m 0
 1293 78 1118 -50 901 -50 c 0
 787 -50 720 9 678 80 c 0
 671 93 663 100 656 104 c 0
 642 112 628 102 612 85 c 0
 540 9 455 -40 330 -40 c 0
 142 -40 -22 40 -22 340 c 0
 -22 780 284 1078 529 1078 c 0
 645 1078 727 1040 767 961 c 0
 794 909 812 900 825 952 c 2
 912 1313 l 2
 920 1346 915 1350 874 1350 c 2
 757 1350 l 2
 718 1350 705 1353 706 1399 c 2
 707 1517 l 2
 707 1552 711 1560 742 1560 c 2
 1304 1560 l 2
 1376 1560 1383 1552 1368 1494 c 2
 1059 302 l 2
 1056 290 1053 272 1053 262 c 0
 1053 240 1060 234 1079 234 c 0
 1119 234 1168 283 1222 393 c 0
 1236 421 1245 420 1274 406 c 2
 1375 355 l 2
 1413 337 1416 329 1398 292 c 0
EndSplineSet
Substitution2: "'smcp' Lowercase to Small Capitals in Latin lookup 0 subtable" d.sc
EndChar

StartChar: e
Encoding: 101 101 42
GlifName: e
Width: 1247
VWidth: 2310
Flags: HW
AnchorPoint: "Anchor-2" 823 102 basechar 0
AnchorPoint: "Anchor-1" 497 0 basechar 0
AnchorPoint: "Anchor-0" 724 1040 basechar 0
AnchorPoint: "Anchor-0" 724 1040 basechar 0
AnchorPoint: "Anchor-2" 497 0 basechar 0
AnchorPoint: "Anchor-3" 823 102 basechar 0
LayerCount: 2
Fore
SplineSet
-21 410 m 0
 -21 770 280 1080 708 1080 c 0
 974 1080 1164 950 1164 756 c 0
 1164 466 729 423 442 395 c 0
 421 393 417 386 417 365 c 0
 415 217 475 188 581 188 c 0
 650 188 745 219 815 311 c 0
 832 333 841 346 883 346 c 2
 1037 346 l 2
 1096 346 1107 330 1078 290 c 0
 958 122 772 -40 493 -40 c 0
 252 -40 -21 108 -21 410 c 0
465 569 m 0
 640 593 770 664 772 808 c 0
 772 846 758 884 688 884 c 0
 592 884 502 804 446 602 c 0
 438 571 440 566 465 569 c 0
EndSplineSet
Substitution2: "'smcp' Lowercase to Small Capitals in Latin lookup 0 subtable" e.sc
EndChar

StartChar: f
Encoding: 102 102 43
GlifName: f
Width: 916
VWidth: 2310
Flags: HW
AnchorPoint: "Anchor-1" 251 0 basechar 0
AnchorPoint: "Anchor-0" 951 1692 basechar 0
AnchorPoint: "Anchor-0" 951 1692 basechar 0
AnchorPoint: "Anchor-2" 251 0 basechar 0
LayerCount: 2
Fore
SplineSet
-24 -233 m 2
 180 777 l 2
 189 822 188 830 131 830 c 2
 48 830 l 2
 16 830 14 838 14 871 c 2
 14 988 l 2
 14 1031 15 1040 58 1040 c 2
 180 1040 l 2
 226 1040 233 1047 239 1078 c 2
 252 1144 l 2
 322 1508 542 1600 813 1600 c 0
 1055 1600 1199 1482 1199 1308 c 4
 1199 1162 1091 1074 963 1074 c 0
 856 1074 755 1135.99596781 755 1260 c 4
 755 1352 807 1376 807 1400 c 0
 807 1412 791 1420 769 1420 c 0
 697 1420 672 1356 623 1100 c 2
 620 1084 l 2
 613 1051 613 1040 653 1040 c 2
 804 1040 l 2
 843 1040 848 1032 847 988 c 2
 846 868 l 2
 846 832 838 830 805 830 c 2
 620 830 l 2
 574 830 569 820 561 779 c 2
 386 -242 l 2
 376 -294 369 -300 308 -300 c 2
 37 -300 l 2
 -31 -300 -35 -285 -24 -233 c 2
EndSplineSet
Substitution2: "'smcp' Lowercase to Small Capitals in Latin lookup 0 subtable" f.sc
EndChar

StartChar: g
Encoding: 103 103 44
GlifName: g
Width: 1135
VWidth: 2310
Flags: HW
AnchorPoint: "Anchor-1" 105 -565 basechar 0
AnchorPoint: "Anchor-0" 681 1040 basechar 0
AnchorPoint: "Anchor-0" 681 1040 basechar 0
AnchorPoint: "Anchor-2" 105 -565 basechar 0
LayerCount: 2
Fore
SplineSet
-265 -310 m 0
 -265 -188 -156 -106 -18 -56 c 0
 42 -34 23 -40 -11 -2 c 0
 -42 32 -61 74 -61 122 c 0
 -61 247 30 331 138 383 c 0
 197 413 194 402 151 444 c 0
 98 492 67 555 67 634 c 0
 67 932 383 1080 632 1080 c 0
 634 1080 635 1080 637 1080 c 0
 656 1079 662 1083 669 1108 c 0
 707 1250 798 1394 973 1394 c 0
 1150 1394 1246 1278 1246 1174 c 0
 1246 1086 1178 992 1060 992 c 0
 964 992 875 1051.99489809 875 1150 c 4
 875 1226 940 1246 908 1246 c 0
 873 1246 828 1176 807 1081 c 0
 802 1057 802 1056 822 1049 c 0
 937 1006 1014 919 1014 792 c 0
 1014 492 713 340 460 340 c 0
 433 340 405 342 379 345 c 0
 341 350 323 354 302 326 c 0
 293 313 287 298 287 280 c 0
 287 258 302 238 354 238 c 0
 399 238 613 240 666 240 c 0
 851 240 961 148 961 -18 c 0
 961 -389 601 -530 251 -530 c 0
 -68 -530 -265 -454 -265 -310 c 0
162 -130 m 0
 133 -159 114 -192 114 -230 c 0
 113 -304 198 -326 327 -326 c 0
 483 -326 592 -286 593 -176 c 0
 594 -130 553 -118 452 -118 c 0
 414 -118 323 -118 283 -118 c 0
 263 -118 243 -117 222 -114 c 0
 189 -110 181 -110 162 -130 c 0
456 604 m 4
 456 553.990001 470 520 508 520 c 0
 586 520 645 690 645 816 c 4
 645 866.009999 630 900 592 900 c 0
 514 900 456 730 456 604 c 4
EndSplineSet
Substitution2: "'smcp' Lowercase to Small Capitals in Latin lookup 0 subtable" g.sc
EndChar

StartChar: h
Encoding: 104 104 45
GlifName: h
Width: 1432
VWidth: 2310
Flags: HW
AnchorPoint: "Anchor-1" 549 0 basechar 0
AnchorPoint: "Anchor-0" 1137 1039 basechar 0
AnchorPoint: "Anchor-0" 1137 1039 basechar 0
AnchorPoint: "Anchor-2" 549 0 basechar 0
LayerCount: 2
Fore
SplineSet
1389 287 m 0
 1289 90 1115 -40 894 -40 c 0
 714 -40 620 44 620 146 c 0
 620 184 629 220 638 250 c 2
 742 620 l 2
 780 748 794 806 725 806 c 0
 650 806 510 588 453 327 c 2
 395 62 l 2
 384 10 378 0 316 0 c 2
 52 0 l 2
 -25 0 -33 8 -19 68 c 2
 267 1308 l 2
 276 1345 272 1350 224 1350 c 2
 140 1350 l 2
 101 1350 95 1355 95 1396 c 2
 95 1498 l 2
 95 1558 106 1560 164 1560 c 2
 656 1560 l 2
 723 1560 726 1555 713 1498 c 2
 593 966 l 2
 577 890 582 872 645 939 c 0
 742 1039 788 1078 910 1078 c 0
 1068 1078 1279 1014 1172 682 c 2
 1052 310 l 2
 1047 294 1044 280 1044 272 c 0
 1044 252 1054 244 1072 244 c 0
 1108 244 1148 274 1198 362 c 0
 1222 405 1220 439 1275 413 c 2
 1357 374 l 2
 1414 347 1419 345 1389 287 c 0
EndSplineSet
Substitution2: "'smcp' Lowercase to Small Capitals in Latin lookup 0 subtable" h.sc
EndChar

StartChar: i
Encoding: 105 105 46
GlifName: i
Width: 906
VWidth: 2310
Flags: HW
AnchorPoint: "Anchor-2" 352 30 basechar 0
AnchorPoint: "Anchor-1" 247 10 basechar 0
AnchorPoint: "Anchor-3" 352 30 basechar 0
AnchorPoint: "Anchor-2" 247 10 basechar 0
LayerCount: 2
Fore
SplineSet
654 980 m 6
 490 302 l 6
 487 290 485 272 485 262 c 4
 485 240 492 234 510 234 c 4
 545 234 586 276 633 368 c 4
 657 413 654 425 705 401 c 6
 809 352 l 6
 855 330 830 307 809 267 c 4
 703 68 537 -50 329 -50 c 4
 165 -50 63 34 63 154 c 4
 63 192 76 249 83 280 c 6
 193 772 l 6
 204 821 206 830 146 830 c 6
 50 830 l 6
 8 830 3 836 3 880 c 6
 3 998 l 6
 3 1037 13 1040 50 1040 c 6
 602 1040 l 6
 668 1040 668 1035 654 980 c 6
274 1380 m 4
 274 1516 380 1590 510 1590 c 4
 640 1590 748 1516 748 1380 c 4
 746 1244 640 1170 510 1170 c 4
 380 1170 274 1244 274 1380 c 4
EndSplineSet
Substitution2: "'smcp' Lowercase to Small Capitals in Latin lookup 0 subtable" i.sc
EndChar

StartChar: j
Encoding: 106 106 47
GlifName: j
Width: 777
VWidth: 2310
Flags: HW
AnchorPoint: "Anchor-1" -189 -565 basechar 0
AnchorPoint: "Anchor-2" -189 -565 basechar 0
LayerCount: 2
Fore
SplineSet
702 970 m 2
 482 0 l 2
 408 -322 279 -520 -98 -520 c 0
 -357 -520 -512 -382 -512 -248 c 0
 -512 -92 -374 -14 -247 -14 c 0
 -123 -14 -40 -76 -40 -190 c 0
 -40 -282.005434622 -94 -290 -94 -318 c 0
 -94 -330 -77 -340 -46 -340 c 0
 84 -340 60 -128 134 206 c 2
 252 764 l 2
 263 815 261 830 200 830 c 2
 128 830 l 2
 87 830 84 846 84 888 c 2
 85 982 l 2
 86 1033 92 1040 136 1040 c 2
 645 1040 l 2
 721 1040 715 1027 702 970 c 2
335 1380 m 4
 335 1516.01470509 436 1590 560 1590 c 0
 692 1590 800 1516 800 1380 c 0
 800 1244 692 1170 560 1170 c 0
 435 1170 335 1244 335 1380 c 4
EndSplineSet
Substitution2: "'smcp' Lowercase to Small Capitals in Latin lookup 0 subtable" j.sc
EndChar

StartChar: k
Encoding: 107 107 48
GlifName: k
Width: 1432
VWidth: 2310
Flags: HW
AnchorPoint: "Anchor-1" 586 0 basechar 0
AnchorPoint: "Anchor-0" 1219 1040 basechar 0
AnchorPoint: "Anchor-0" 1219 1040 basechar 0
AnchorPoint: "Anchor-2" 586 0 basechar 0
LayerCount: 2
Fore
SplineSet
1329 296 m 0
 1217 63 1027 -50 852 -50 c 0
 680 -50 592.269722557 20.7517490953 611 192 c 6
 625 320 l 6
 628.397828709 351.065862485 632 383 628 414 c 0
 630 436 623 438 600 431 c 0
 584 426 567 424 548 424 c 0
 524 424 502 432 484 446 c 0
 462 463 459 455 454 434 c 2
 377 52 l 2
 367 9 372 0 320 0 c 2
 6 0 l 2
 -61 0 -50 8 -38 60 c 2
 244 1294 l 2
 254 1341 256 1350 197 1350 c 2
 126 1350 l 2
 83 1350 78 1356 78 1398 c 2
 78 1498 l 2
 78 1557 87 1560 144 1560 c 2
 623 1560 l 2
 684 1560 699 1551 684 1482 c 2
 530 780 l 2
 525 760 512 731 551 745 c 0
 575 754 601 758 631 758 c 0
 639 758 647 758 655 757 c 0
 673 755 673 760 679 775 c 0
 682 781 684 787 687 794 c 0
 765 966 873 1080 1040 1080 c 0
 1251 1080 1356 972 1356 828 c 0
 1356 700 1249 598 1131 598 c 0
 1021 598 929 666 929 756 c 0
 929 820.007812023 954 850 954 872 c 0
 954 888 943 890 934 890 c 0
 905 890 878 855 831 750 c 0
 829 745 826 740 824 734 c 0
 817 718 817 702 843 682 c 0
 944 605 1018.38389732 476.533255543 999 336 c 6
 991 278 l 2
 987 250 992 234 1018 234 c 0
 1043 234 1088 264 1150 392 c 0
 1164 417 1171 420 1204 405 c 2
 1315 351 l 2
 1342 338 1346 331 1329 296 c 0
EndSplineSet
Substitution2: "'smcp' Lowercase to Small Capitals in Latin lookup 0 subtable" k.sc
EndChar

StartChar: l
Encoding: 108 108 49
GlifName: l
Width: 815
VWidth: 2310
Flags: HW
AnchorPoint: "Anchor-1" 250 0 basechar 0
AnchorPoint: "Anchor-0" 436 1696 basechar 0
AnchorPoint: "Anchor-0" 436 1696 basechar 0
AnchorPoint: "Anchor-1" 965 1040 basechar 0
AnchorPoint: "Anchor-2" 250 0 basechar 0
LayerCount: 2
Fore
SplineSet
678 1478 m 2
 424 302 l 6
 421 290 418 272 418 262 c 4
 418 240 425 234 443 234 c 4
 479 234 521 278 570 376 c 4
 589 412 591 423 632 404 c 6
 736 356 l 6
 767 341 776 336 761 304 c 4
 657 83 464 -50 251 -50 c 0
 88 -50 -12 28 -12 148 c 0
 -12 186 -3 241 6 280 c 2
 226 1278 l 2
 236 1325 249 1350 184 1350 c 2
 89 1350 l 2
 48 1350 38 1351 38 1392 c 2
 38 1521 l 2
 38 1553 43 1560 74 1560 c 2
 614 1560 l 2
 697 1560 692 1539 678 1478 c 2
EndSplineSet
Substitution2: "'smcp' Lowercase to Small Capitals in Latin lookup 0 subtable" l.sc
EndChar

StartChar: m
Encoding: 109 109 50
GlifName: m
Width: 2063
VWidth: 2310
Flags: HW
AnchorPoint: "Anchor-1" 900 0 basechar 0
AnchorPoint: "Anchor-0" 1218 1040 basechar 0
AnchorPoint: "Anchor-0" 1218 1040 basechar 0
AnchorPoint: "Anchor-2" 900 0 basechar 0
LayerCount: 2
Fore
SplineSet
49 1040 m 2
 522 1040 l 2
 567 1040 590 1035 583 992 c 2
 566 878 l 2
 557 820 577 829 611 875 c 0
 709 1007 797 1078 919 1078 c 0
 1037 1078 1115 1041 1165 922 c 0
 1193 857 1201 858 1238 905 c 0
 1333 1023 1416 1078 1532 1078 c 0
 1690 1078 1861 1014 1754 682 c 2
 1634 310 l 2
 1629 294 1626 280 1626 272 c 0
 1626 252 1636 244 1653 244 c 0
 1691 244 1736 282 1792 396 c 0
 1818 433 1818 431 1856 413 c 2
 1935 372 l 2
 1992 345 1993 342 1963 284 c 0
 1863 88 1689 -40 1476 -40 c 0
 1296 -40 1202 44 1202 146 c 0
 1202 184 1212 220 1221 250 c 2
 1324 620 l 2
 1362 748 1359 796 1307 796 c 0
 1242 796 1140 597 1084 341 c 2
 1019 42 l 2
 1013 14 1006 0 971 0 c 2
 629 0 l 2
 580 0 578 11 588 55 c 2
 749 676 l 2
 778 787 750 796 716 796 c 4
 661 796 540 596 484 339 c 2
 421 52 l 2
 413 18 402 0 359 0 c 2
 69 0 l 2
 -1 0 -4 14 8 66 c 2
 172 772 l 2
 183 819 176 830 113 830 c 2
 63 830 l 2
 11 830 3 832 3 884 c 2
 3 988 l 2
 3 1032 5 1040 49 1040 c 2
EndSplineSet
Substitution2: "'smcp' Lowercase to Small Capitals in Latin lookup 0 subtable" m.sc
EndChar

StartChar: n
Encoding: 110 110 51
GlifName: n
Width: 1446
VWidth: 2310
Flags: HW
AnchorPoint: "Anchor-1" 600 0 basechar 0
AnchorPoint: "Anchor-0" 720 1040 basechar 0
AnchorPoint: "Anchor-0" 720 1040 basechar 0
AnchorPoint: "Anchor-2" 600 0 basechar 0
LayerCount: 2
Fore
SplineSet
43 1040 m 2
 554 1040 l 2
 588 1040 596 1032 591 1002 c 2
 568 860 l 6
 560 809 565 801 602 852 c 0
 710 1004 779 1078 970 1078 c 0
 1148 1078 1277 978 1182 682 c 2
 1062 310 l 2
 1057 294 1054 280 1054 272 c 0
 1054 252 1063 244 1080 244 c 0
 1118 244 1164 282 1219 394 c 0
 1240 421 1252 432 1283 418 c 2
 1377 366 l 2
 1423 344 1418 338 1395 293 c 0
 1295 92 1120 -40 904 -40 c 0
 724 -40 630 44 630 146 c 0
 630 184 639 220 648 250 c 2
 752 620 l 2
 790 748 774 776 725 776 c 0
 633 776 541 597 485 341 c 2
 421 48 l 2
 412 7 404 0 357 0 c 2
 59 0 l 2
 -9 0 -5 11 7 62 c 2
 172 774 l 2
 183 822 184 830 121 830 c 2
 50 830 l 2
 8 830 3 838 3 878 c 2
 3 996 l 2
 3 1033 7 1040 43 1040 c 2
EndSplineSet
Substitution2: "'smcp' Lowercase to Small Capitals in Latin lookup 0 subtable" n.sc
EndChar

StartChar: o
Encoding: 111 111 52
GlifName: o
Width: 1298
VWidth: 2310
Flags: HW
AnchorPoint: "Anchor-1" 455 0 basechar 0
AnchorPoint: "Anchor-0" 717 1040 basechar 0
AnchorPoint: "Anchor-0" 717 1040 basechar 0
AnchorPoint: "Anchor-2" 455 0 basechar 0
LayerCount: 2
Fore
SplineSet
-12 430 m 0
 -12 810 358 1060 670 1060 c 0
 961 1060 1196 930 1196 610 c 0
 1196 230 866 -20 523 -20 c 0
 204 -20 -12 110 -12 430 c 0
411 320 m 4
 411 211.99537047 446 180 516 180 c 0
 613 180 772 412 772 680 c 4
 772 798.004237212 738 860 677 860 c 0
 552 860 411 588 411 320 c 4
EndSplineSet
Substitution2: "'smcp' Lowercase to Small Capitals in Latin lookup 0 subtable" o.sc
EndChar

StartChar: p
Encoding: 112 112 53
GlifName: p
Width: 1314
VWidth: 2310
Flags: HW
AnchorPoint: "Anchor-1" 737 0 basechar 0
AnchorPoint: "Anchor-0" 957 1040 basechar 0
AnchorPoint: "Anchor-0" 957 1040 basechar 0
AnchorPoint: "Anchor-2" 737 0 basechar 0
LayerCount: 2
Fore
SplineSet
43 1040 m 2
 529 1040 l 2
 560 1040 573 1038 564 1008 c 2
 545 940 l 2
 533 898 535 887 574 931 c 0
 653 1020 753 1078 893 1078 c 0
 1085 1078 1250 958 1250 658 c 0
 1250 218 904 -40 682 -40 c 0
 586 -40 508 -8 456 57 c 0
 423 97 412 79 403 40 c 2
 299 -448 l 2
 289 -492 282 -500 232 -500 c 2
 -49 -500 l 2
 -122 -500 -120 -480 -108 -426 c 2
 167 786 l 2
 175 821 176 830 131 830 c 2
 43 830 l 2
 -1 830 -3 838 -3 882 c 2
 -3 998 l 2
 -3 1037 7 1040 43 1040 c 2
486 398 m 0
 486 287.995454639 504 198 555 198 c 0
 669 198 787 429.991935615 787 678 c 0
 787 806 762 850 707 850 c 0
 631 850 486 666 486 398 c 0
EndSplineSet
Substitution2: "'smcp' Lowercase to Small Capitals in Latin lookup 0 subtable" p.sc
EndChar

StartChar: q
Encoding: 113 113 54
GlifName: q
Width: 1241
VWidth: 2310
Flags: HW
AnchorPoint: "Anchor-1" 325 0 basechar 0
AnchorPoint: "Anchor-0" 675 1040 basechar 0
AnchorPoint: "Anchor-0" 675 1040 basechar 0
AnchorPoint: "Anchor-2" 325 0 basechar 0
LayerCount: 2
Fore
SplineSet
-22 380 m 0
 -22 820 325 1078 547 1078 c 0
 660 1078 735 1031 785 944 c 0
 808 904 819 893 830 944 c 2
 844 1004 l 2
 852 1038 860 1040 898 1040 c 2
 1165 1040 l 2
 1221 1040 1224 1035 1213 990 c 2
 933 -230 l 2
 923 -273 915 -290 971 -290 c 2
 1053 -290 l 2
 1093 -290 1097 -299 1097 -340 c 2
 1097 -445 l 2
 1097 -494 1091 -500 1043 -500 c 2
 559 -500 l 2
 502 -500 495 -493 505 -444 c 2
 605 8 l 2
 613 43 603 60 547 22 c 0
 488 -17 416 -40 330 -40 c 0
 142 -40 -22 80 -22 380 c 0
742 640 m 4
 742 750.004545361 734 850 665 850 c 0
 569 850 436 608 436 360 c 0
 436 231.99609381 459 188 513 188 c 0
 587 188 742 372 742 640 c 4
EndSplineSet
Substitution2: "'smcp' Lowercase to Small Capitals in Latin lookup 0 subtable" q.sc
EndChar

StartChar: r
Encoding: 114 114 55
GlifName: r
Width: 1181
VWidth: 2310
Flags: HW
AnchorPoint: "Anchor-1" 237 0 basechar 0
AnchorPoint: "Anchor-0" 714 1040 basechar 0
AnchorPoint: "Anchor-0" 714 1040 basechar 0
AnchorPoint: "Anchor-2" 237 0 basechar 0
LayerCount: 2
Fore
SplineSet
37 1040 m 2
 520 1040 l 2
 571 1040 595 1034 585 984 c 2
 576 938 l 2
 567 891 562 869 606 919 c 0
 704 1034 782 1066 895 1066 c 0
 1019 1066 1141 974 1141 838 c 0
 1141 674 1029 560 870 560 c 0
 752 560 680 648 681 730 c 0
 681 768 693 786 693 800 c 0
 693 808 688 810 684 810 c 0
 653 810 553 664 494 387 c 2
 425 70 l 2
 414 18 411 0 347 0 c 2
 63 0 l 2
 6 0 -5 6 5 50 c 2
 174 774 l 2
 185 822 184 830 125 830 c 2
 49 830 l 2
 5 830 3 838 3 882 c 2
 3 999 l 2
 3 1030 7 1040 37 1040 c 2
EndSplineSet
Substitution2: "'smcp' Lowercase to Small Capitals in Latin lookup 0 subtable" r.sc
EndChar

StartChar: s
Encoding: 115 115 56
GlifName: s
Width: 1050
VWidth: 2310
Flags: HW
AnchorPoint: "Anchor-1" 370 0 basechar 0
AnchorPoint: "Anchor-0" 599 1040 basechar 0
AnchorPoint: "Anchor-0" 599 1040 basechar 0
AnchorPoint: "Anchor-2" 370 0 basechar 0
LayerCount: 2
Fore
SplineSet
534 265 m 4
 534 419 41 488 41 740 c 0
 41 978 281 1084 531 1084 c 0
 865 1084 1017 934 1017 802 c 0
 1017 702 943 624 819 624 c 0
 732 624 650 689.994444616 650 780 c 4
 650 838 671 848 671 872 c 0
 671 892 614 904 565 904 c 0
 478 904 443 866 443 812 c 4
 443 631.988889232 970 594 970 318 c 4
 970 50 650 -44 397 -44 c 0
 155 -44 -105 62 -105 282 c 0
 -105 398 -7 492 123 492 c 0
 226 492 300 428 300 334 c 4
 300 227.995283124 242 218 242 198 c 0
 242 180 326 156 411 156 c 0
 465 156 534 182.993902666 534 265 c 4
EndSplineSet
Substitution2: "'smcp' Lowercase to Small Capitals in Latin lookup 0 subtable" s.sc
EndChar

StartChar: t
Encoding: 116 116 57
GlifName: t
Width: 906
VWidth: 2310
Flags: HW
AnchorPoint: "Anchor-1" 345 0 basechar 0
AnchorPoint: "Anchor-0" 650 1277 basechar 0
AnchorPoint: "Anchor-0" 650 1277 basechar 0
AnchorPoint: "Anchor-1" 809 1153 basechar 0
AnchorPoint: "Anchor-2" 345 0 basechar 0
LayerCount: 2
Fore
SplineSet
47 1040 m 6
 189 1040 l 6
 228 1040 224 1048 231 1078 c 6
 258 1192 l 6
 264 1215 271 1222 297 1223 c 4
 417 1229 488 1265 525 1291 c 4
 563 1318 556 1316 617 1316 c 4
 666 1316 684 1314 675 1278 c 6
 627 1084 l 6
 618 1048 616 1040 659 1040 c 6
 803 1040 l 6
 832 1040 847 1038 847 1006 c 6
 847 884 l 6
 847 838 845 830 799 830 c 6
 599 830 l 6
 567 830 562 820 555 792 c 6
 439 324 l 6
 429 286 420 236 463 236 c 4
 504 236 544 285 593 378 c 4
 608 405 618 422 651 405 c 6
 747 355 l 6
 784 336 783 331 767 290 c 4
 685 79 508 -40 301 -40 c 4
 89 -40 -5 60 37 252 c 6
 164 782 l 6
 171 812 178 830 135 830 c 6
 45 830 l 6
 6 830 -15 832 -15 875 c 6
 -15 995 l 6
 -15 1039 7 1040 47 1040 c 6
EndSplineSet
Substitution2: "'smcp' Lowercase to Small Capitals in Latin lookup 0 subtable" t.sc
Substitution2: "'ss01' Style Set 1 lookup 3 subtable" t.alt
EndChar

StartChar: u
Encoding: 117 117 58
GlifName: u
Width: 1573
VWidth: 2310
Flags: HW
AnchorPoint: "Anchor-2" 1352 50 basechar 0
AnchorPoint: "Anchor-1" 532 0 basechar 0
AnchorPoint: "Anchor-0" 899 1040 basechar 0
AnchorPoint: "Anchor-0" 899 1040 basechar 0
AnchorPoint: "Anchor-2" 532 0 basechar 0
AnchorPoint: "Anchor-3" 1352 50 basechar 0
LayerCount: 2
Fore
SplineSet
3 743 m 4
 102 946 276 1080 478 1080 c 4
 693 1080 751 958 706 790 c 6
 608 420 l 6
 572 292 550 214 615 214 c 4
 705 214 818 462 875 728 c 6
 928 976 l 6
 936 1014 940 1040 987 1040 c 6
 1289 1040 l 6
 1347 1040 1360 1040 1348 994 c 6
 1168 302 l 6
 1160 272 1153 234 1189 234 c 4
 1227 234 1269 278 1320 374 c 4
 1335 402 1348 422 1382 406 c 6
 1469 363 l 6
 1507 345 1527 334 1508 296 c 4
 1403 80 1231 -50 1014 -50 c 4
 867 -50 775 39 774 150 c 6
 774 170 l 6
 774 187 762 185 745 164 c 4
 645 37 550 -38 424 -38 c 4
 281 -38 109 28 219 358 c 5
 332 730 l 6
 341 760 346 796 314 796 c 4
 278 796 238 759 183 648 c 4
 163 609 163 608 121 628 c 6
 13 679 l 6
 -26 697 -15 706 3 743 c 4
EndSplineSet
Substitution2: "'smcp' Lowercase to Small Capitals in Latin lookup 0 subtable" u.sc
EndChar

StartChar: v
Encoding: 118 118 59
GlifName: v
Width: 1274
VWidth: 2310
Flags: HW
AnchorPoint: "Anchor-1" 567 0 basechar 0
AnchorPoint: "Anchor-0" 903 1040 basechar 0
AnchorPoint: "Anchor-0" 903 1040 basechar 0
AnchorPoint: "Anchor-2" 567 0 basechar 0
LayerCount: 2
Fore
SplineSet
862 684 m 0
 745 684 676 750 677 866 c 0
 678 986 768 1098 956 1098 c 0
 1118 1098 1231 1000 1231 818 c 0
 1231 471 931 277 374 -11 c 0
 337 -29 317 -49 280 -28 c 2
 170 34 l 2
 151 45 151 48 158 76 c 0
 169 119 190 177 190 240 c 4
 190 434.010309004 0 588 0 776 c 0
 0 969 215 1019 439 1119 c 0
 460 1129 460 1132 470 1109 c 2
 522 979 l 2
 531 957 532 958 514 945 c 0
 478 919 436 877.008771255 436 820 c 0
 436 681 622 633 631 387 c 0
 632 371 631.14586836 360.566610623 634 356 c 4
 639 348 647 356 668 369 c 0
 885 508 994 602 994 716 c 0
 994 722 991 725 986 725 c 0
 966 725 947 684 862 684 c 0
EndSplineSet
Substitution2: "'smcp' Lowercase to Small Capitals in Latin lookup 0 subtable" v.sc
EndChar

StartChar: w
Encoding: 119 119 60
GlifName: w
Width: 2127
VWidth: 2310
Flags: HW
AnchorPoint: "Anchor-1" 907 0 basechar 0
AnchorPoint: "Anchor-0" 1086 1040 basechar 0
AnchorPoint: "Anchor-0" 1086 1040 basechar 0
AnchorPoint: "Anchor-2" 907 0 basechar 0
LayerCount: 2
Fore
SplineSet
23 747 m 0
 123 946 298 1078 513 1078 c 0
 693 1078 787 994 787 892 c 4
 787 853.986844383 778 818 769 788 c 2
 673 438 l 2
 635 310 630 232 692 232 c 0
 810 232 964 448 1017 707 c 2
 1074 991 l 2
 1082 1032 1089 1040 1138 1040 c 2
 1448 1040 l 2
 1515 1040 1510 1030 1497 973 c 2
 1369 418 l 2
 1331 250 1308 176 1430 176 c 0
 1681 176 1827 524 1827 700 c 0
 1827 712 1825 718 1819 718 c 0
 1798 718 1810 694 1730 694 c 0
 1644 694 1582 760 1582 876 c 0
 1582 976 1655 1068 1796 1068 c 0
 1910 1068 2063 1000 2063 798 c 0
 2063 498 1851 -40 1403 -40 c 0
 1273 -40 1086 -6 1008 172 c 0
 983 229 964 225 914 163 c 0
 791 27 631 -40 497 -40 c 0
 339 -40 132 24 237 356 c 2
 355 728 l 2
 360 744 363 758 363 766 c 0
 363 786 354 794 337 794 c 0
 299 794 254 757 199 645 c 0
 178 603 176 608 133 628 c 2
 39 673 l 2
 -7 695 0 702 23 747 c 0
EndSplineSet
Substitution2: "'smcp' Lowercase to Small Capitals in Latin lookup 0 subtable" w.sc
EndChar

StartChar: x
Encoding: 120 120 61
GlifName: x
Width: 1430
VWidth: 2310
Flags: HW
AnchorPoint: "Anchor-1" 467 2 basechar 0
AnchorPoint: "Anchor-0" 914 1040 basechar 0
AnchorPoint: "Anchor-0" 914 1040 basechar 0
AnchorPoint: "Anchor-2" 467 2 basechar 0
LayerCount: 2
Fore
SplineSet
-105 268 m 0
 -105 416 11 538 131 538 c 0
 257 538 318 470 318 360 c 4
 318 235.995967807 228 226 228 184 c 0
 228 164 240 160 262 160 c 0
 320 160 368 244 451 373 c 0
 474 409 471 424 462 474 c 0
 444 566 427 654 404 725 c 0
 397 746 382 780 352 780 c 0
 319 780 285 746 243 662 c 0
 228 632 230 621 201 639 c 2
 79 710 l 2
 49 727 59 736 73 768 c 0
 146 932 287 1084 491 1084 c 0
 667 1084 750 953 772 857 c 0
 773 855 772.56147099 852.192645048 773 850 c 4
 780 815 792 829 807 850 c 0
 894 976 952 1080 1097 1080 c 0
 1290 1080 1427 952 1427 768 c 0
 1427 620 1321 518 1201 518 c 0
 1088 518 999 575.995454639 999 686 c 4
 999 810 1089 820 1089 862 c 0
 1089 882 1077 886 1055 886 c 0
 995 886 948 798 862 647 c 0
 841 610 830 600 840 549 c 0
 855 471 874 391 901 307 c 0
 908 286 926 256 954 256 c 0
 990 256 1032 303 1076 384 c 0
 1096 420 1094 440 1131 414 c 2
 1228 349 l 2
 1255 331 1261 330 1246 296 c 0
 1172 127 1007 -40 817 -40 c 0
 647 -40 573 43 539 126 c 0
 534 140 530 150 526 158 c 0
 512 189 511 172 478 131 c 0
 397 31 343 -44 220 -44 c 0
 32 -44 -105 84 -105 268 c 0
EndSplineSet
Substitution2: "'smcp' Lowercase to Small Capitals in Latin lookup 0 subtable" x.sc
EndChar

StartChar: y
Encoding: 121 121 62
GlifName: y
Width: 1347
VWidth: 2310
Flags: HW
AnchorPoint: "Anchor-1" -15 -565 basechar 0
AnchorPoint: "Anchor-0" 793 1040 basechar 0
AnchorPoint: "Anchor-0" 793 1040 basechar 0
AnchorPoint: "Anchor-2" -15 -565 basechar 0
LayerCount: 2
Fore
SplineSet
968 696 m 0
 869 696 802 792 802 888 c 4
 802 1028.01464844 920 1090 1036 1090 c 0
 1184 1090 1296 962 1296 800 c 0
 1296 320 749 -530 198 -530 c 0
 -112 -530 -198 -306 -198 -132 c 0
 -198 20 -100 154 57 154 c 0
 157 154 246 88 245 -34 c 0
 243 -216 113 -220 112 -270 c 0
 111 -316 138 -336 198 -336 c 0
 286 -336 383 -300 479 -239 c 0
 504 -223 503 -222 490 -194 c 0
 352 91 356 599 312 735 c 0
 305 756 299 780 267 780 c 0
 226 780 178 718 117 618 c 0
 106 600 96 597 77 608 c 2
 -38 678 l 2
 -61 690 -52 696 -41 718 c 0
 64 924 212 1084 426 1084 c 0
 620 1084 675 1010 709 895 c 0
 751 752 722 438 802 159 c 0
 816 111 817 112 843 148 c 0
 983 348 1070 552 1070 718 c 0
 1070 730 1069 736 1063 736 c 0
 1043 736 1044 696 968 696 c 0
EndSplineSet
Substitution2: "'smcp' Lowercase to Small Capitals in Latin lookup 0 subtable" y.sc
EndChar

StartChar: z
Encoding: 122 122 63
GlifName: z
Width: 1226
VWidth: 2310
Flags: HW
AnchorPoint: "Anchor-1" 399 0 basechar 0
AnchorPoint: "Anchor-0" 677 1040 basechar 0
AnchorPoint: "Anchor-0" 677 1040 basechar 0
AnchorPoint: "Anchor-2" 399 0 basechar 0
LayerCount: 2
Fore
SplineSet
-64 695 m 0
 54 825 276 1080 428 1080 c 0
 616 1080 715 942 816 942 c 0
 892 942 997 1005 1064 1051 c 0
 1090 1068 1089 1072 1109 1049 c 2
 1184 960 l 2
 1209 930 1209 930 1177 906 c 2
 594 450 l 2
 560 423 538 415 541 405 c 0
 545 392 560 407 599 416 c 0
 621 421 641 424 655 424 c 0
 771 424 786 380 833 380 c 0
 902 380 945 428 1002 509 c 0
 1020 534 1022 526 1045 508 c 2
 1148 428 l 2
 1172 410 1167 409 1150 383 c 0
 1051 234 844 -40 624 -40 c 0
 490 -40 355 78 272 78 c 0
 197 78 81 30 9 -11 c 0
 -20 -27 -19 -33 -40 -8 c 2
 -132 100 l 2
 -149 120 -149 120 -127 136 c 2
 494 621 l 2
 511 635 538 646 533 655 c 0
 528 664 517 645 493 638 c 0
 477 633 462 630 451 630 c 0
 354 630 345 686 262 686 c 0
 204 686 151 646 99 591 c 0
 73 565 74 555 41 578 c 2
 -52 645 l 2
 -83 667 -91 666 -64 695 c 0
EndSplineSet
Substitution2: "'smcp' Lowercase to Small Capitals in Latin lookup 0 subtable" z.sc
EndChar

StartChar: comma
Encoding: 44 44 65
GlifName: comma
Width: 590
Flags: HMW
LayerCount: 2
Fore
SplineSet
-32 172 m 4
 -32 316 86 406 222 406 c 4
 360 406 500 324 500 98 c 4
 500 -163.303826435 190.322265625 -299.100585938 -47 -311.124023438 c 4
 -81.8203125 -312.887695312 -86 -310.922901312 -86 -276 c 6
 -86 -170 l 6
 -86 -146.209503729 -77.3813994088 -152.441789241 -56.0000031472 -150.758468415 c 4
 60.4968631822 -141.586869014 234.837890625 -101.55078125 302 -24.3955078125 c 4
 334.504882812 12.9453125 308.232291831 18.3532974894 278 0.659804730568 c 4
 246.541861455 -17.7511166005 207.58984375 -30 156 -30 c 4
 40 -30 -32 46 -32 172 c 4
EndSplineSet
EndChar

StartChar: exclam
Encoding: 33 33 67
GlifName: exclam
Width: 756
Flags: HMW
LayerCount: 2
Fore
SplineSet
10 200 m 0
 10 332 118 440 250 440 c 0
 382 440 490 332 490 200 c 0
 490 68 382 -40 250 -40 c 0
 118 -40 10 68 10 200 c 0
760 1196 m 0
 638.754535517 872.678761377 482.322778453 825.292132986 402.972581107 562 c 0
 393.820679706 531.633047913 383.340820312 530 343 530 c 2
 297 530 l 2
 248.90234375 530 233.325132847 531.585099399 240.87377233 570 c 0
 292.60369711 833.2527256 181.380817917 952.998001193 250 1298 c 0
 278 1438 386 1518 526 1518 c 0
 690 1518 782 1416 782 1314 c 0
 782 1278 772 1227 760 1196 c 0
EndSplineSet
EndChar

StartChar: quotesingle
Encoding: 39 39 70
GlifName: quotesingle
Width: 614
Flags: HMW
LayerCount: 2
Fore
SplineSet
569.925925926 1232 m 0
 502.062384119 1151.21654542 400.989722748 1074.92755816 373.522730709 966 c 0
 366.730150203 939.062241143 370.573156936 936 336 936 c 2
 266 936 l 2
 228.488500003 936 231.883661152 941.095637514 228.905295572 974 c 0
 211.796214868 1163.0175595 180 1219.9461085 180 1344 c 0
 180 1482 298 1556 430 1556 c 0
 522 1556 634 1498 634 1374 c 0
 634 1321.33333333 606.888888889 1276 569.925925926 1232 c 0
EndSplineSet
EndChar

StartChar: quoteleft
Encoding: 8216 8216 71
GlifName: quoteleft
Width: 704
Flags: HMW
LayerCount: 2
Fore
SplineSet
735 1116 m 4
 735 972 617 882 481 882 c 4
 343 882 203 964 203 1190 c 4
 203 1451.30371094 512.677734375 1587.10058594 750 1599.12402344 c 4
 784.8203125 1600.88769531 789 1598.92285156 789 1564 c 6
 789 1458 l 6
 789 1434.20996094 780.381835938 1440.44140625 759 1438.75878906 c 4
 642.502929688 1429.58691406 468.162109375 1389.55078125 401 1312.39550781 c 4
 368.495117188 1275.0546875 394.767578125 1269.64648438 425 1287.33984375 c 4
 456.458007812 1305.75097656 495.41015625 1318 547 1318 c 4
 663 1318 735 1242 735 1116 c 4
EndSplineSet
EndChar

StartChar: quotedblleft
Encoding: 8220 8220 72
GlifName: quotedblleft
Width: 1324
Flags: HMW
LayerCount: 2
Fore
SplineSet
735 1116 m 4
 735 972 617 882 481 882 c 4
 343 882 203 964 203 1190 c 4
 203 1451.30371094 512.677734375 1587.10058594 750 1599.12402344 c 4
 784.8203125 1600.88769531 789 1598.92285156 789 1564 c 6
 789 1458 l 6
 789 1434.20996094 780.381835938 1440.44140625 759 1438.75878906 c 4
 642.502929688 1429.58691406 468.162109375 1389.55078125 401 1312.39550781 c 4
 368.495117188 1275.0546875 394.767578125 1269.64648438 425 1287.33984375 c 4
 456.458007812 1305.75097656 495.41015625 1318 547 1318 c 4
 663 1318 735 1242 735 1116 c 4
1355 1116 m 4
 1355 972 1237 882 1101 882 c 4
 963 882 823 964 823 1190 c 4
 823 1451.30371094 1132.67773438 1587.10058594 1370 1599.12402344 c 4
 1404.8203125 1600.88769531 1409 1598.92285156 1409 1564 c 6
 1409 1458 l 6
 1409 1434.20996094 1400.38183594 1440.44140625 1379 1438.75878906 c 4
 1262.50292969 1429.58691406 1088.16210938 1389.55078125 1021 1312.39550781 c 4
 988.495117188 1275.0546875 1014.76757812 1269.64648438 1045 1287.33984375 c 4
 1076.45800781 1305.75097656 1115.41015625 1318 1167 1318 c 4
 1283 1318 1355 1242 1355 1116 c 4
EndSplineSet
EndChar

StartChar: quotedblright
Encoding: 8221 8221 73
GlifName: quotedblright
Width: 1324
Flags: HMW
LayerCount: 2
Fore
SplineSet
279 1476 m 4
 279 1620 397 1710 533 1710 c 4
 671 1710 811 1628 811 1402 c 4
 811 1140.69628906 501.322265625 1004.89941406 264 992.875976562 c 4
 229.1796875 991.112304688 225 993.077148438 225 1028 c 6
 225 1134 l 6
 225 1157.79003906 233.618164062 1151.55859375 255 1153.24121094 c 4
 371.497070312 1162.41308594 545.837890625 1202.44921875 613 1279.60449219 c 4
 645.504882812 1316.9453125 619.232421875 1322.35351562 589 1304.66015625 c 4
 557.541992188 1286.24902344 518.58984375 1274 467 1274 c 4
 351 1274 279 1350 279 1476 c 4
899 1476 m 4
 899 1620 1017 1710 1153 1710 c 4
 1291 1710 1431 1628 1431 1402 c 4
 1431 1140.69628906 1121.32226562 1004.89941406 884 992.875976562 c 4
 849.1796875 991.112304688 845 993.077148438 845 1028 c 6
 845 1134 l 6
 845 1157.79003906 853.618164062 1151.55859375 875 1153.24121094 c 4
 991.497070312 1162.41308594 1165.83789062 1202.44921875 1233 1279.60449219 c 4
 1265.50488281 1316.9453125 1239.23242188 1322.35351562 1209 1304.66015625 c 4
 1177.54199219 1286.24902344 1138.58984375 1274 1087 1274 c 4
 971 1274 899 1350 899 1476 c 4
EndSplineSet
EndChar

StartChar: quoteright
Encoding: 8217 8217 74
GlifName: quoteright
Width: 704
Flags: HMW
LayerCount: 2
Fore
SplineSet
289 1476 m 4
 289 1620 407 1710 543 1710 c 4
 681 1710 821 1628 821 1402 c 4
 821 1140.69628906 511.322265625 1004.89941406 274 992.875976562 c 4
 239.1796875 991.112304688 235 993.077148438 235 1028 c 6
 235 1134 l 6
 235 1157.79003906 243.618164062 1151.55859375 265 1153.24121094 c 4
 381.497070312 1162.41308594 555.837890625 1202.44921875 623 1279.60449219 c 4
 655.504882812 1316.9453125 629.232421875 1322.35351562 599 1304.66015625 c 4
 567.541992188 1286.24902344 528.58984375 1274 477 1274 c 4
 361 1274 289 1350 289 1476 c 4
EndSplineSet
EndChar

StartChar: question
Encoding: 63 63 75
GlifName: question
Width: 1220
Flags: HMW
LayerCount: 2
Fore
SplineSet
727 493.5078125 m 4
 654.477539062 475.666015625 593.267578125 472 562 472 c 4
 441 472 290 536 290 680 c 4
 290 996 858 865 858 1200 c 4
 858 1308 800 1366 702 1366 c 4
 634 1366 578 1350 578 1326 c 4
 578 1286 660 1282 660 1140 c 4
 660 1016 514 940 404 940 c 4
 294 940 150 1026 150 1162 c 4
 150 1366 398 1540 762 1540 c 4
 1104 1540 1280 1400 1280 1180 c 4
 1280 726 531 783 531 701 c 4
 531 678 553 666 600 666 c 4
 622.116210938 666 674.802734375 669.743164062 728 688.071289062 c 4
 766.1171875 701.203125 769.188476562 713.870117188 774.639648438 661 c 6
 785.567382812 555 l 6
 791.154296875 500.806640625 769.939453125 504.071289062 727 493.5078125 c 4
EndSplineSet
Refer: 1 46 S 1 0 0 1 338 0 2
EndChar

StartChar: parenleft
Encoding: 40 40 76
GlifName: parenleft
Width: 960
Flags: HMW
LayerCount: 2
Fore
SplineSet
783 -214 m 2
 739 -302 l 2
 718.079926295 -343.84014741 711.439327516 -338.358477106 665.472127992 -322.00001966 c 4
 294.862680075 -190.110347331 100 82.5787102376 100 470 c 0
 100 1039.62310224 453.387805911 1437.27673743 992.999968397 1587.64550533 c 0
 1034.70321259 1599.26656557 1039.07999223 1601.84001553 1057 1566 c 2
 1109 1462 l 2
 1124.13650538 1431.72698925 1105.2736646 1437.44178858 1075.00003228 1427.37333 c 0
 754.647078131 1320.82977368 570 894.500792395 570 470 c 0
 570 178.562917269 608.600394672 -68.7594286943 777.433153566 -167.999995515 c 0
 804.104892244 -183.677749536 796.624477054 -186.751045892 783 -214 c 2
EndSplineSet
EndChar

StartChar: parenright
Encoding: 41 41 77
GlifName: parenright
Width: 920
Flags: HMW
LayerCount: 2
Fore
SplineSet
137 1478 m 2
 181 1566 l 2
 201.919921875 1607.83984375 208.560546875 1602.35839844 254.528320312 1586 c 4
 625.137695312 1454.11035156 820 1181.42089844 820 794 c 0
 820 224.376953125 466.612304688 -173.276367188 -73 -323.645507812 c 0
 -114.703125 -335.266601562 -119.080078125 -337.83984375 -137 -302 c 2
 -189 -198 l 2
 -204.13671875 -167.7265625 -185.2734375 -173.44140625 -155 -163.373046875 c 0
 165.352539062 -56.830078125 350 369.499023438 350 794 c 0
 350 1085.4375 311.399414062 1332.75976562 142.56640625 1432 c 0
 115.895507812 1447.67773438 123.375976562 1450.75097656 137 1478 c 2
EndSplineSet
EndChar

StartChar: asterisk
Encoding: 42 42 78
GlifName: asterisk
Width: 1318
VWidth: 2310
Flags: HMW
LayerCount: 2
Fore
SplineSet
792 974.822266005 m 0
 869.995706591 949.02009015 942.284626196 946.814602197 1024 896 c 0
 1143 822 1131 698 1085 618 c 0
 1049 556 953 505 863 557 c 0
 770.214289339 610.35178363 768.901202271 765.937675981 702.812094626 885.99999669 c 0
 676.638290221 933.549249669 653.678394491 963.337334087 671.26822915 880 c 0
 687.745036921 801.935978338 717.000000033 733.896796235 717 652 c 0
 717 514 599 460 507 460 c 0
 435 460 343 518 343 622 c 0
 343 730.437533596 481.308575252 810.472413346 551.239643498 931 c 0
 582.325815892 984.577636248 581.167131073 997.396555761 534 956.472740201 c 0
 470.623039194 901.484722152 425.750653197 838.697746425 352 796 c 0
 232 727 126 802 80 882 c 0
 44 944 49 1053 139 1105 c 0
 237.648028409 1161.72261634 384.27743037 1071.79793604 529.999992775 1079.66702464 c 0
 585.484459802 1082.66321261 568.453791441 1090.41328256 532 1103.4145169 c 0
 452.198990772 1131.87552411 379.692255723 1135.15541424 294 1184 c 0
 194 1241 186 1382 232 1462 c 0
 268 1524 365 1575 455 1523 c 0
 552.498047979 1466.93862241 548.996234011 1297.99504618 625.779079501 1176.00000319 c 0
 643.861344325 1147.27032196 661.194471078 1118.29588229 650.953286794 1178 c 0
 635.933669095 1265.56145757 600.999999964 1338.50696503 601 1428 c 0
 601 1566 719 1620 811 1620 c 0
 883 1620 975 1562 975 1458 c 0
 975 1353.81582545 847.328677855 1275.84986883 775.292424051 1163 c 0
 738.563827671 1105.46206507 730.465777215 1075.76332195 790 1128.8034096 c 0
 850.264192449 1182.49384008 894.597955529 1242.66197441 966 1284 c 0
 1086 1353 1191 1278 1237 1198 c 0
 1273 1136 1269 1027 1179 975 c 0
 1084.63911717 920.742492372 946.376684976 1000.66295955 807.000007225 1000.82488254 c 0
 742.319569273 1000.90002603 739.222982101 992.281712896 792 974.822266005 c 0
EndSplineSet
EndChar

StartChar: at
Encoding: 64 64 79
GlifName: at
Width: 2300
VWidth: 2310
Flags: HMW
LayerCount: 2
Fore
SplineSet
1348 692 m 0
 1348 776 1344 836 1288 836 c 0
 1200 836 1130 608 1130 480 c 0
 1130 386 1140 364 1168 364 c 0
 1250 364 1348 536 1348 692 c 0
1768 -173 m 4
 1600 -353 1350 -448 1038 -448 c 0
 672 -448 90 -224 90 442 c 0
 90 1108 644 1600 1270 1600 c 0
 1856 1600 2180 1248 2180 802 c 0
 2180 462 1944 126 1582 126 c 0
 1481 126 1405 172 1354 230 c 0
 1324 264 1314 272 1274 239 c 0
 1200 178 1119 130 1008 130 c 0
 850 130 708 211 708 420 c 0
 708 640 878 1068 1196 1068 c 0
 1314 1068 1372 1027 1400 958 c 0
 1415 922 1420 917 1428 961 c 2
 1438 1012 l 2
 1444 1042 1449 1040 1486 1040 c 2
 1719 1040 l 2
 1770 1040 1783 1036 1772 989 c 2
 1640 440 l 2
 1636 414 1610 340 1676 340 c 0
 1778 340 1954 482 1954 810 c 0
 1954 1224 1612 1364 1344 1364 c 0
 956 1364 540 1046 540 482 c 0
 540 58 762 -218 1110 -218 c 0
 1284 -218 1446 -208 1612 -51 c 0
 1642 -23 1645 -3 1677 -35 c 2
 1770 -128 l 2
 1791 -149 1788 -151 1768 -173 c 4
EndSplineSet
EndChar

StartChar: dollar
Encoding: 36 36 80
GlifName: dollar
Width: 1506
Flags: HMW
LayerCount: 2
Fore
SplineSet
1034 1102 m 0
 1034 1194 1118 1204 1118 1250 c 0
 1118 1282.25058181 1108.10606395 1302.75211457 1067 1314.5991745 c 0
 1028.48465539 1325.69957069 997.594726562 1314.41308594 985.326171875 1271 c 2
 918.543478261 1035 l 2
 902.888194665 979.604381123 893.518592012 973.323660562 950.999994645 956.617599281 c 0
 1161.91167228 895.319453272 1404 806.058995938 1404 490 c 0
 1404 208.288659473 1012.48435505 -11.697241535 665.000008956 -37.4719406507 c 0
 621.884490061 -40.6700401888 615.613035406 -36.9077208728 605.413043478 -73 c 2
 587.891304348 -135 l 2
 579.955255623 -163.081403181 572.93359375 -170 535 -170 c 2
 403 -170 l 2
 361.245607349 -170 359.017578125 -163.474609375 368.760742188 -129 c 2
 389.369565217 -59 l 2
 400.32604324 -20.2309239199 395.509084424 -23.9579287899 357 -14.8257345659 c 0
 69.4752023776 53.3590154841 -1.70530256582e-13 246.274859493 0 392 c 0
 0 528 80 634 218 634 c 0
 352 634 422 562 422 448 c 0
 422 316 338 340 338 280 c 0
 338 243.265442022 358.859168547 210.54226261 427 191.484834704 c 0
 457.184993793 183.042784162 458.566439768 185.850479178 466.804347826 215 c 2
 561.717773438 554 l 2
 572.565429688 592.384765625 545.162109375 601.125 510.73828125 612 c 0
 331.024414062 668.774414062 170 758.069347672 170 1016 c 0
 170 1314.37565411 498.079076055 1492.60967474 768.999993399 1531.77812754 c 0
 828.165697997 1540.33202265 839.295646203 1533.04613272 853.97826087 1585 c 2
 867.934570312 1635 l 2
 876.159179688 1664.10253906 888.737419682 1670 925 1670 c 2
 1035 1670 l 2
 1087.86834232 1670 1098.16699219 1667.66796875 1085.54394531 1623 c 2
 1070.02173913 1571 l 2
 1054.59046269 1516.39702182 1065.09279069 1523.92261702 1118.99999394 1510.23050998 c 0
 1306.88027348 1462.51004329 1476 1353.75691661 1476 1158 c 0
 1476 1002 1376 916 1258 916 c 0
 1144 916 1034 968 1034 1102 c 0
644 1140 m 0
 644 1118.02801802 650.265003653 1099.30394584 661.65737007 1083 c 0
 683.523471108 1051.70678893 698.761557748 1035.77166588 712.108695652 1083 c 2
 764.108695652 1267 l 2
 776.201578049 1309.79019925 778.939712895 1318.15190205 736.999987164 1297.1882496 c 0
 674.398104904 1265.89657852 644 1211.84529557 644 1140 c 0
924 380 m 4
 924 440.729258974 889.032136925 479.754327073 834.157208025 509 c 0
 779.730696315 538.006688335 776.514695852 532.436616092 759.152173913 471 c 2
 690.760869565 229 l 2
 674.506036425 171.482898119 685.096504843 174.677666029 744.999970884 188.227846492 c 0
 862.204825382 214.739616756 924 278.397605644 924 380 c 4
EndSplineSet
EndChar

StartChar: numbersign
Encoding: 35 35 81
GlifName: numbersign
Width: 1320
Flags: HMW
LayerCount: 2
Fore
SplineSet
611 1610 m 2
 731 1610 l 2
 777.978522275 1610 782.475585938 1605.2890625 771.51171875 1566 c 2
 657.302325581 1156 l 2
 646.446085698 1117.09847375 646.107421875 1110 699 1110 c 2
 809 1110 l 2
 854.599196087 1110 849.820502185 1122.02346616 859.302325581 1156 c 2
 975.953488372 1574 l 2
 984.757978232 1605.549422 993.28125 1610 1035 1610 c 2
 1147 1610 l 2
 1199.46567643 1610 1195.50390625 1600.80761719 1183.83691406 1559 c 2
 1071.06976744 1148 l 2
 1062.58520171 1117.59697278 1062.35058594 1110 1105 1110 c 2
 1335 1110 l 2
 1369.54643039 1110 1380 1107.05273438 1380 1070 c 2
 1380 944 l 2
 1380 906.36328125 1375.50821831 900 1339 900 c 2
 1049 900 l 2
 995.031335399 900 999.143884404 890.265585781 987.906976744 850 c 2
 941.581395349 684 l 2
 933.248139328 654.139165926 931.4140625 630 977 630 c 2
 1191 630 l 2
 1236.25878906 630 1240 621.610351562 1240 578 c 2
 1240 466 l 2
 1240 429.596679688 1239.46380408 420 1203 420 c 2
 921 420 l 2
 866.054001351 420 866.730881659 415.785659279 855.069767442 374 c 2
 730.046511628 -74 l 2
 720.470163411 -108.315247778 709.455078125 -110 665 -110 c 2
 557 -110 l 2
 514.190429688 -110 506.10070541 -109.639138946 515.488372093 -76 c 2
 642.744186047 380 l 2
 653.130647244 417.218152624 648.509765625 420 599 420 c 2
 489 420 l 2
 449.57050239 420 450.783988922 415.975960305 442.418604651 386 c 2
 315.720930233 -68 l 2
 306.381734414 -101.465451683 300.083984375 -110 255 -110 c 2
 133 -110 l 2
 83.9169921875 -110 97.1614052443 -84.3382978746 106.186046512 -52 c 2
 226.744186047 380 l 2
 236.213704335 413.932440535 225.103515625 420 179 420 c 2
 -13 420 l 2
 -46.188227556 420 -60 421.608398438 -60 458 c 2
 -60 580 l 2
 -60 618.136966664 -57.9287109375 630 -17 630 c 2
 257 630 l 2
 300.968348743 630 298.35427271 636.602810544 307.674418605 670 c 2
 360.139534884 858 l 2
 369.6323754 892.016011849 370.6015625 900 323 900 c 2
 123 900 l 2
 84.3212890625 900 80 911.793956813 80 948 c 2
 80 1078 l 2
 80 1108.6640625 97.2105587484 1110 125 1110 c 2
 379 1110 l 2
 433.059772344 1110 431.831222828 1114.89521513 443.302325581 1156 c 2
 564.418604651 1590 l 2
 571.15846714 1614.15117392 581.062970883 1610 611 1610 c 2
747 900 m 2
 615 900 l 2
 585.866243262 900 585.470695185 898.603324412 579.162790698 876 c 2
 522.790697674 674 l 2
 512.882789159 638.496661153 511.280273438 630 561 630 c 2
 665 630 l 2
 713.026848314 630 713.277690437 632.745057399 723.674418605 670 c 2
 778.930232558 868 l 2
 787.303832843 898.005401022 778.488155978 900 747 900 c 2
EndSplineSet
EndChar

StartChar: slash
Encoding: 47 47 82
GlifName: slash
Width: 1040
Flags: HMW
LayerCount: 2
Fore
SplineSet
933 1560 m 2
 1046 1560 l 2
 1104.29980469 1560 1087.72811089 1536.5167554 1071.78064516 1506 c 2
 147.858064516 -262 l 2
 132.159214581 -292.041009135 122.606445312 -300 75 -300 c 2
 -15 -300 l 6
 -84.6416015625 -300 -94.0189102086 -288.671255589 -72.5462365591 -248 c 2
 859.825806452 1518 l 2
 875.836869153 1548.32645277 884.241210938 1560 933 1560 c 2
EndSplineSet
EndChar

StartChar: percent
Encoding: 37 37 83
GlifName: percent
Width: 2260
Flags: MW
LayerCount: 2
Fore
SplineSet
120 1080 m 0
 181 1366 397 1540 683 1540 c 0
 909 1540 1141 1366 1080 1080 c 0
 1019 794 742 620 496 620 c 0
 270 620 59 794 120 1080 c 0
510 1080 m 0
 467 876 479 790 547 790 c 0
 615 790 647 876 690 1080 c 0
 733 1284 730 1370 662 1370 c 0
 594 1370 553 1284 510 1080 c 0
1659 1496 m 2
 1816 1496 l 2
 1851 1496 1846.37792969 1486.29492188 1828 1464 c 2
 621 24 l 2
 604 3 592 -4 557 -4 c 2
 404 -4 l 2
 365 -4 379 19 394 37 c 2
 1612 1474 l 2
 1623 1488 1636 1496 1659 1496 c 2
1139 420 m 0
 1200 706 1427 880 1703 880 c 4
 1929 880 2160 706 2099 420 c 0
 2038 134 1762 -40 1536 -40 c 4
 1310 -40 1078 134 1139 420 c 0
1529 420 m 0
 1486 216 1509 130 1577 130 c 4
 1645 130 1666 216 1709 420 c 0
 1752 624 1740 710 1672 710 c 0
 1604 710 1572 624 1529 420 c 0
EndSplineSet
EndChar

StartChar: plus
Encoding: 43 43 84
GlifName: plus
Width: 1060
Flags: MW
LayerCount: 2
Fore
SplineSet
725 896 m 2
 913 896 l 2
 936 896 947 892 947 868 c 2
 947 691 l 2
 947 674 946 666 929 666 c 2
 676 666 l 2
 644 666 632.268554688 661.67578125 626 632 c 2
 562 389 l 2
 558.416015625 372.791992188 555 370 537 370 c 2
 349 370 l 2
 329 370 319.680664062 370.981445312 324 390 c 2
 388 625 l 2
 395.251953125 658.426757812 387 666 352 666 c 2
 156 666 l 2
 131 666 127 671 127 695 c 2
 127 869 l 2
 127 891 136 896 157 896 c 2
 411 896 l 2
 438 896 451.158203125 902.228515625 457 930 c 2
 513 1160 l 2
 517.6328125 1182.02539062 526 1190 551 1190 c 2
 730 1190 l 6
 750 1190 756.720703125 1183.20898438 752 1161 c 6
 695 934 l 2
 688.4921875 903.3828125 694 896 725 896 c 2
EndSplineSet
EndChar

StartChar: hyphen
Encoding: 45 45 85
GlifName: hyphen
Width: 820
Flags: HMW
LayerCount: 2
Fore
SplineSet
104 770 m 6
 616 770 l 6
 647 770 650 763 650 731 c 6
 650 581 l 6
 650 546 649 540 614 540 c 6
 112 540 l 6
 76 540 70 545 70 580 c 6
 70 729 l 6
 70 761 72 770 104 770 c 6
EndSplineSet
Substitution2: "Single Substitution lookup 10 subtable" hyphen.sc
EndChar

StartChar: dotlessi
Encoding: 305 305 86
GlifName: dotlessi
Width: 932
VWidth: 2310
Flags: MW
AnchorPoint: "Anchor-1" 367 0 basechar 0
AnchorPoint: "Anchor-0" 499 1040 basechar 0
AnchorPoint: "Anchor-0" 499 1040 basechar 0
AnchorPoint: "Anchor-2" 367 0 basechar 0
LayerCount: 2
Fore
SplineSet
698.262695312 980 m 2
 528 302 l 2
 525 290 522 272 522 262 c 0
 522 240 530 234 550 234 c 0
 589.055862023 234 633.878681923 275.810444605 683.24436453 368 c 0
 707.42243121 413.15211985 704.065227768 424.804342923 755 400.736263736 c 2
 859 351.593406593 l 2
 904.97943836 329.866858797 880.282972288 306.699865198 859.000014071 266.834561821 c 0
 752.978736571 68.2451388217 583.786314619 -50 366 -50 c 0
 202 -50 100 34 100 154 c 0
 100 192 113 249 120 280 c 2
 230.265625 772 l 2
 241.293945312 821.315429688 243.039326253 830 183 830 c 2
 87 830 l 2
 44.6462897469 830 40 836.1171875 40 880 c 2
 40 998 l 2
 40 1037.046875 50.3227578198 1040 87 1040 c 2
 645 1040 l 2
 710.875941267 1040 712.380859375 1035.41992188 698.262695312 980 c 2
EndSplineSet
EndChar

StartChar: braceleft
Encoding: 123 123 89
GlifName: braceleft
Width: 704
VWidth: 2310
Flags: MW
LayerCount: 2
Fore
SplineSet
452.00000762 -298.434731928 m 0
 189.571747441 -289.027654992 -70 -233.026269623 -70 -20 c 0
 -70 214 170 304 170 430 c 0
 170 497.440137568 156.471825832 514.826030715 118.289356437 530 c 0
 96.4326594396 538.685997898 90 546.631835938 90 580 c 2
 90 670 l 2
 90 701.598632812 92.1381385948 720.638580545 115.999998623 728.506030685 c 0
 177.524149128 748.791045597 262 780.785057418 262 852 c 0
 262 978 210 988 210 1202 c 0
 210 1409.80549283 468.05923091 1546.73556309 829.999982958 1559.08786243 c 0
 870.700850574 1560.47689999 884 1557.5546875 884 1513 c 2
 884 1404 l 2
 884 1350.37109375 878.170914778 1347.34400232 828.000003185 1344.63518111 c 0
 720.42569384 1338.82704325 616 1311.29833524 616 1204 c 0
 616 1072 644 1102 644 902 c 0
 644 778.126149008 545.592067509 700.426156213 420.000005026 646.799325829 c 0
 372.0332547 626.317897839 369.272597565 606.297346256 413.04212855 584 c 0
 470.794611234 554.579371664 504 501.864813835 504 440 c 0
 504 240 356 220 356 88 c 0
 356 -13.2901679584 397.359327287 -64.1736557863 477.999959436 -80.2356316662 c 0
 517.751728999 -88.1533766899 544 -81.46875 544 -134 c 2
 544 -246 l 2
 544 -307.990234375 506.976103635 -300.405420467 452.00000762 -298.434731928 c 0
EndSplineSet
EndChar

StartChar: bar
Encoding: 124 124 90
GlifName: bar
Width: 600
VWidth: 2310
Flags: MW
LayerCount: 2
Fore
SplineSet
409 1560 m 2
 521 1560 l 2
 605 1560 591.426224908 1523.20421523 577.631067961 1464 c 2
 130.854492188 -452 l 2
 121.176757812 -493.534179688 111.500550942 -500 61 -500 c 2
 -71 -500 l 6
 -131.078125 -500 -137.428227173 -488.962808284 -126.951456311 -444 c 2
 321.359223301 1480 l 2
 333.008001021 1529.99267105 342.7578125 1560 409 1560 c 2
EndSplineSet
EndChar

StartChar: braceright
Encoding: 125 125 91
GlifName: braceright
Width: 704
VWidth: 2310
Flags: HMW
LayerCount: 2
Fore
SplineSet
172 1558.43457031 m 0
 434.428710938 1549.02734375 694 1493.02636719 694 1280 c 0
 694 1046 454 956 454 830 c 0
 454 762.559570312 467.528320312 745.173828125 505.7109375 730 c 0
 527.567382812 721.314453125 534 713.368164062 534 680 c 2
 534 590 l 2
 534 558.401367188 531.862304688 539.361328125 508 531.494140625 c 0
 446.475585938 511.208984375 362 479.21484375 362 408 c 0
 362 282 414 272 414 58 c 0
 414 -149.805664062 155.940429688 -286.735351562 -206 -299.087890625 c 0
 -246.701171875 -300.4765625 -260 -297.5546875 -260 -253 c 2
 -260 -144 l 2
 -260 -90.37109375 -254.170898438 -87.34375 -204 -84.634765625 c 0
 -96.42578125 -78.8271484375 8 -51.2978515625 8 56 c 0
 8 188 -20 158 -20 358 c 0
 -20 481.874023438 78.408203125 559.57421875 204 613.200195312 c 0
 251.966796875 633.681640625 254.727539062 653.703125 210.958007812 676 c 0
 153.205078125 705.420898438 120 758.134765625 120 820 c 0
 120 1020 268 1040 268 1172 c 0
 268 1273.29003906 226.640625 1324.17382812 146 1340.23535156 c 0
 106.248046875 1348.15332031 80 1341.46875 80 1394 c 2
 80 1506 l 2
 80 1567.99023438 117.0234375 1560.40527344 172 1558.43457031 c 0
EndSplineSet
EndChar

StartChar: asciitilde
Encoding: 126 126 92
GlifName: asciitilde
Width: 1376
VWidth: 2310
Flags: MW
LayerCount: 2
Fore
SplineSet
486 814 m 0
 417.724422328 814 362.054454462 786.267658425 332.000001972 732.80449921 c 0
 317.119473437 706.333876713 315.953125 686 272 686 c 2
 156 686 l 2
 122.143554688 686 120.446706629 697.403604334 125.875366138 723.999994414 c 0
 161.757595603 899.796205292 315.922558706 1060 538 1060 c 0
 778 1060 738 892 890 892 c 0
 963.114889637 892 1021.77389207 923.802951841 1049.99999828 984.950854133 c 0
 1060.650571 1008.0238269 1063.95898438 1020 1100 1020 c 2
 1202 1020 l 6
 1250.20800781 1020 1257.1760404 1015.2888788 1249.13256207 974.000005568 c 0
 1215.50324311 801.373608173 1093.46094245 646 838 646 c 0
 604 646 652 814 486 814 c 0
EndSplineSet
EndChar

StartChar: less
Encoding: 60 60 93
GlifName: less
Width: 1120
Flags: MW
LayerCount: 2
Fore
SplineSet
438 748 m 2
 890 575 l 2
 919 564 930 553 930 511 c 2
 930 393 l 2
 930 335 923 333 884 348 c 2
 164 642 l 2
 131 655 120 672 120 720 c 2
 120 830 l 2
 120 890 135 896 176 912 c 2
 1020 1246 l 6
 1060 1262 1080 1265 1080 1199 c 6
 1080 1112 l 6
 1080 1055 1072 1037 1032 1022 c 6
 438 802 l 2
 403 789 382 788 382 776 c 0
 382 759 399 763 438 748 c 2
EndSplineSet
EndChar

StartChar: equal
Encoding: 61 61 94
GlifName: equal
Width: 1120
Flags: HMW
LayerCount: 2
Fore
SplineSet
206.529296875 1090 m 6
 1016.6484375 1090 l 6
 1046.4140625 1090 1050.29589844 1086 1050.29589844 1062 c 6
 1050.29589844 893 l 2
 1050.29589844 869 1047.70800781 860 1014.06054688 860 c 2
 203.94140625 860 l 2
 171.588867188 860 170.293945312 864 170.293945312 890 c 2
 170.293945312 1062 l 6
 170.293945312 1085 179.353515625 1090 206.529296875 1090 c 6
126.529296875 690 m 6
 936.6484375 690 l 6
 966.4140625 690 970.295898438 686 970.295898438 662 c 6
 970.295898438 493 l 2
 970.295898438 469 967.708007812 460 934.060546875 460 c 2
 123.94140625 460 l 2
 91.5888671875 460 90.2939453125 464 90.2939453125 490 c 2
 90.2939453125 662 l 6
 90.2939453125 685 99.353515625 690 126.529296875 690 c 6
EndSplineSet
EndChar

StartChar: greater
Encoding: 62 62 95
GlifName: greater
Width: 1120
Flags: HMW
LayerCount: 2
Fore
SplineSet
682 802 m 2
 230 975 l 2
 201 986 190 997 190 1039 c 2
 190 1157 l 2
 190 1215 197 1217 236 1202 c 2
 956 908 l 2
 989 895 1000 878 1000 830 c 2
 1000 720 l 2
 1000 660 985 654 944 638 c 2
 100 304 l 6
 60 288 40 285 40 351 c 6
 40 438 l 6
 40 495 48 513 88 528 c 6
 682 748 l 2
 717 761 738 762 738 774 c 0
 738 791 721 787 682 802 c 2
EndSplineSet
EndChar

StartChar: bracketleft
Encoding: 91 91 96
GlifName: bracketleft
Width: 810
Flags: MW
LayerCount: 2
Fore
SplineSet
361 1560 m 2
 873 1560 l 2
 913.283275512 1560 930 1557.16894531 930 1513 c 2
 930 1372 l 2
 930 1311.7890625 919.037062202 1310 861 1310 c 2
 737 1310 l 2
 672.821850598 1310 657.330078125 1306.91699219 645.391601562 1252 c 2
 377.826086957 22 l 2
 365.219534975 -35.9901391169 361.09375 -50 438 -50 c 2
 547 -50 l 2
 600.34765625 -50 610 -50.5342361025 610 -104 c 2
 610 -244 l 6
 610 -293.546875 602.950376748 -300 555 -300 c 2
 -41 -300 l 2
 -101.691308924 -300 -109.516601562 -297.051757812 -98.107421875 -244 c 2
 276.666666667 1498 l 2
 288.147757872 1551.3870741 293.96484375 1560 361 1560 c 2
EndSplineSet
EndChar

StartChar: backslash
Encoding: 92 92 97
GlifName: backslash
Width: 1040
Flags: MW
LayerCount: 2
Fore
SplineSet
522.993548387 1476 m 6
 828.219354839 -234 l 2
 838.809175373 -293.328512629 838.04296875 -300 765 -300 c 2
 625 -300 l 2
 554.881245584 -300 560.290247764 -290.123791434 550.227956989 -232 c 2
 251.425806452 1494 l 2
 240.936389771 1554.59104045 243.03515625 1560 317 1560 c 2
 439 1560 l 2
 520.715264148 1560 511.213776681 1541.99510654 522.993548387 1476 c 6
EndSplineSet
EndChar

StartChar: bracketright
Encoding: 93 93 98
GlifName: bracketright
Width: 810
Flags: HMW
LayerCount: 2
Fore
SplineSet
449 -300 m 2
 -63 -300 l 2
 -103.283203125 -300 -120 -297.168945312 -120 -253 c 2
 -120 -112 l 2
 -120 -51.7890625 -109.037109375 -50 -51 -50 c 2
 73 -50 l 2
 137.177734375 -50 152.669921875 -46.9169921875 164.608398438 8 c 2
 432.173828125 1238 l 2
 444.780273438 1295.99023438 448.90625 1310 372 1310 c 2
 263 1310 l 2
 209.65234375 1310 200 1310.53417969 200 1364 c 2
 200 1504 l 6
 200 1553.546875 207.049804688 1560 255 1560 c 2
 851 1560 l 2
 911.69140625 1560 919.516601562 1557.05175781 908.107421875 1504 c 2
 533.333007812 -238 l 2
 521.852539062 -291.38671875 516.03515625 -300 449 -300 c 2
EndSplineSet
EndChar

StartChar: asciicircum
Encoding: 94 94 100
GlifName: asciicircum
Width: 1090
Flags: MW
LayerCount: 2
Fore
SplineSet
676 1279.07857143 m 2
 362 1125.44285714 l 2
 314.702884027 1102.30105397 308.663874398 1100.97172771 268 1130.54545455 c 2
 238 1152.36363636 l 2
 198.357802257 1181.19432563 200.439756706 1180.35980094 238 1211.09090909 c 2
 590 1499.09090909 l 2
 626.07375049 1528.60579586 639.388260369 1540 710 1540 c 2
 772 1540 l 2
 838.047347508 1540 851.723446613 1537.78414007 879.555555556 1502 c 2
 1106.66666667 1210 l 2
 1129.61986266 1180.48874801 1130.5411421 1180.39355789 1100 1158.18181818 c 2
 1058 1127.63636364 l 2
 1021.53119842 1101.11359885 1018.82748671 1100.838347 982 1127.17 c 6
 784 1268.74 l 2
 736.969271948 1302.36697056 730.417959659 1305.70450169 676 1279.07857143 c 2
EndSplineSet
EndChar

StartChar: grave
Encoding: 96 96 101
GlifName: grave
Width: 790
Flags: MW
LayerCount: 2
Fore
SplineSet
440 1340 m 2
 343 1333 250 1412 250 1510 c 0
 250 1608 359 1724 460 1676 c 2
 823 1504.63451777 l 2
 853.878781371 1490.05722504 853.838867188 1475.17773438 852.366210938 1431 c 0
 850.166078279 1379.9810719 852.396001501 1370.90620864 805 1367.43945312 c 6
 440 1340 l 2
EndSplineSet
EndChar

StartChar: exclamdown
Encoding: 161 161 103
GlifName: exclamdown
Width: 765
Flags: HMW
LayerCount: 2
Fore
SplineSet
671.5 840 m 0
 671.5 708 563.5 600 431.5 600 c 0
 299.5 600 191.5 708 191.5 840 c 0
 191.5 972 299.5 1080 431.5 1080 c 0
 563.5 1080 671.5 972 671.5 840 c 0
-78.5 -156 m 0
 42.7451171875 167.321289062 199.176757812 214.708007812 278.52734375 478 c 0
 287.6796875 508.3671875 298.159179688 510 338.5 510 c 2
 384.5 510 l 2
 432.59765625 510 448.174804688 508.415039062 440.625976562 470 c 0
 388.896484375 206.747070312 500.119140625 87.001953125 431.5 -258 c 0
 403.5 -398 295.5 -478 155.5 -478 c 0
 -8.5 -478 -100.5 -376 -100.5 -274 c 0
 -100.5 -238 -90.5 -187 -78.5 -156 c 0
EndSplineSet
EndChar

StartChar: cent
Encoding: 162 162 104
GlifName: cent
Width: 1096
VWidth: 2310
Flags: HMW
LayerCount: 2
Fore
SplineSet
895 1230 m 6
 995 1230 l 6
 1016 1230 1022.6796875 1223.68457031 1016 1205 c 6
 533 -146 l 6
 526.954101562 -162.911132812 522 -170 503 -170 c 6
 409 -170 l 6
 387 -170 379.424804688 -162.733398438 385 -147 c 6
 868 1216 l 6
 872.31640625 1228.1796875 880 1230 895 1230 c 6
EndSplineSet
Refer: 40 99 N 1 0 0 1 0 0 2
EndChar

StartChar: sterling
Encoding: 163 163 105
GlifName: sterling
Width: 1415
VWidth: 2310
Flags: MW
LayerCount: 2
Fore
SplineSet
-55 15 m 0
 5 259 292 403 319 522 c 0
 328 563 321 560 281 560 c 2
 49 560 l 2
 11 560 -3 549 -3 591 c 2
 -3 747 l 2
 -3 787 17 790 54 790 c 2
 204 790 l 2
 295 790 266 804 246 851 c 0
 213 925 188 1003 210 1100 c 0
 275 1380 584 1550 986 1550 c 0
 1350 1550 1441 1346 1429 1162 c 4
 1418.58083214 1002.2394262 1300 910 1162 910 c 4
 1028 910 929 992 960 1126 c 0
 981 1218 1062 1248 1073 1294 c 0
 1085 1348 1032 1366 944 1366 c 0
 786 1366 711 1268 677 1120 c 0
 654 1019 673 935 694 857 c 0
 708 805 702 790 782 790 c 2
 958 790 l 2
 1015 790 1017 785 1017 729 c 2
 1017 635 l 2
 1017 566 1005 560 933 560 c 2
 755 560 l 2
 692 560 693 557 664 515 c 0
 586 400 448 350 324 271 c 0
 270 237 238 202 247 193 c 0
 260 180 389 276 472 320 c 0
 577 376 664 414 750 414 c 0
 870 414 870 326 962 326 c 0
 1012 326 1067 351 1102 407 c 0
 1127 448 1114 474 1175 474 c 2
 1267 474 l 2
 1317 474 1299 449 1286 405 c 0
 1208 143 1033 -80 796 -80 c 0
 562 -80 522 50 376 50 c 0
 310 50 190 30 127 -8 c 0
 98 -26 104 -40 64 -40 c 2
 -48 -40 l 2
 -75 -40 -60 -7 -55 15 c 0
EndSplineSet
EndChar

StartChar: currency
Encoding: 164 164 106
GlifName: currency
Width: 1140
Flags: MW
LayerCount: 2
Fore
SplineSet
8.177734375 238 m 5
 -63.3515625 331 l 5
 131.125976562 489 l 5
 81.5185546875 573 84.98828125 653 112 770 c 260
 139.01171875 887 182.481445312 967 260.874023438 1051 c 5
 139.3515625 1209 l 5
 253.822265625 1302 l 5
 375.344726562 1144 l 5
 459.349609375 1196 546.96875 1229 676.96875 1229 c 260
 806.96875 1229 877.349609375 1196 938.575195312 1145 c 5
 1131.82226562 1302 l 5
 1203.3515625 1209 l 5
 1008.87402344 1051 l 5
 1048.48144531 967 1055.01171875 887 1028 770 c 4
 1001.21972656 654 958.518554688 573 879.895507812 488 c 5
 1000.6484375 331 l 5
 886.177734375 238 l 5
 765.424804688 395 l 5
 681.650390625 344 593.80078125 310 464.80078125 310 c 260
 334.80078125 310 261.650390625 344 201.424804688 395 c 5
 8.177734375 238 l 5
502.432617188 473 m 4
 685.432617188 473 816.674804688 591 858 770 c 260
 899.325195312 949 821.567382812 1067 639.567382812 1067 c 4
 456.567382812 1067 323.325195312 949 282 770 c 260
 240.674804688 591 320.432617188 473 502.432617188 473 c 4
EndSplineSet
EndChar

StartChar: yen
Encoding: 165 165 107
GlifName: yen
Width: 1570
Flags: HMW
LayerCount: 2
Fore
SplineSet
316.190429688 582 m 6
 1356.77832031 582 l 6
 1395.01074219 582 1399.99707031 578 1399.99707031 554 c 6
 1399.99707031 385 l 2
 1399.99707031 361 1396.67285156 352 1353.453125 352 c 2
 312.866210938 352 l 2
 271.30859375 352 269.646484375 356 269.646484375 382 c 2
 269.646484375 554 l 6
 269.646484375 577 281.283203125 582 316.190429688 582 c 6
378.108398438 922 m 6
 1416.85546875 922 l 6
 1455.01953125 922 1459.99804688 918 1459.99804688 894 c 6
 1459.99804688 725 l 2
 1459.99804688 701 1456.6796875 692 1413.53613281 692 c 2
 374.790039062 692 l 2
 333.305664062 692 331.646484375 696 331.646484375 722 c 2
 331.646484375 894 l 6
 331.646484375 917 343.26171875 922 378.108398438 922 c 6
EndSplineSet
Refer: 36 89 N 1 0 0 1 0 0 2
EndChar

StartChar: brokenbar
Encoding: 166 166 108
GlifName: brokenbar
Width: 600
VWidth: 2310
Flags: MW
LayerCount: 2
Fore
SplineSet
74 332 m 5
 294 332 l 1
 100 -500 l 1
 -120 -500 l 1
 74 332 l 5
360 1560 m 1
 580 1560 l 1
 406 818 l 1
 186 818 l 1
 360 1560 l 1
EndSplineSet
EndChar

StartChar: section
Encoding: 167 167 109
GlifName: section
Width: 1188
VWidth: 2310
Flags: MW
LayerCount: 2
Fore
SplineSet
885 1316 m 0
 897 1368 837 1388 733 1388 c 0
 627 1388 587 1342 570 1268 c 0
 516 1036 1211 1076 1136 750 c 0
 1115.56928768 661.466913288 1033.54102242 580.18059751 932.481503223 513.543887277 c 1
 1007.36725051 462.561589625 1053.15686051 393.01306221 1028 284 c 0
 971 36 594 -40 404 -40 c 0
 188 -40 -154 4 -96 256 c 0
 -60 412 85 478 163 478 c 0
 257 478 336 386 314 292 c 0
 297 220 232 210 221 164 c 0
 209 112 313 112 417 112 c 0
 543 112 598 138 620 232 c 0
 674 464 -21 424 54 750 c 0
 78.3823311605 856.395626882 183.013713473 913.65918163 286.417110041 965.352644367 c 1
 195.077844735 1018.06809521 133.189288129 1091.15358189 162 1216 c 0
 210 1424 556 1540 746 1540 c 0
 1002 1540 1275 1456 1221 1224 c 0
 1190 1088 1047 1032 969 1032 c 0
 895 1032 789 1094 811 1188 c 0
 828 1260 874 1270 885 1316 c 0
483.864336932 880.20210571 m 5
 475.135484523 864.894603674 468.589035694 849.381581545 465 834 c 0
 439.306614929 721.805551856 554.261862615 671.591857131 687.523150455 622.266144935 c 1
 695.559210911 636.771443805 701.603733475 651.444572037 705 666 c 0
 731.122028829 780.066192553 615.654276703 830.066326254 483.864336932 880.20210571 c 5
EndSplineSet
EndChar

StartChar: gravecomb
Encoding: 768 768 110
GlifName: gravecomb
Width: 0
Flags: HMW
AnchorPoint: "Anchor-0" 777 1500 mark 0
AnchorPoint: "Anchor-0" 777 1500 mark 0
LayerCount: 2
Fore
SplineSet
432 2060 m 260
 497 2140 645.710725573 2150.34017226 714 2066 c 2
 948 1777 l 2
 961 1764 962 1755 949 1741 c 2
 835 1625 l 2
 824 1613 820 1610 805 1619 c 2
 469 1797 l 2
 355.44138885 1857.15902614 352 1961 432 2060 c 260
EndSplineSet
EndChar

StartChar: acutecomb
Encoding: 769 769 111
GlifName: acutecomb
Width: 0
Flags: HMW
AnchorPoint: "Anchor-0" 635 1500 mark 0
AnchorPoint: "Anchor-0" 635 1500 mark 0
LayerCount: 2
Fore
SplineSet
1054 2060 m 260
 1134 1961 1119.54297967 1851.32336423 1017 1797 c 2
 681 1619 l 2
 666 1610 661 1613 650 1625 c 2
 537 1741 l 2
 524 1755 525 1764 538 1777 c 2
 772 2066 l 2
 843.081495838 2153.78868503 989 2140 1054 2060 c 260
EndSplineSet
EndChar

StartChar: uni0302
Encoding: 770 770 112
GlifName: uni0302
Width: 0
Flags: MW
AnchorPoint: "Anchor-0" 705 1500 mark 0
AnchorPoint: "Anchor-0" 705 1500 mark 0
LayerCount: 2
Fore
SplineSet
501 1640 m 2
 428 1710 l 2
 413.733991593 1723.67973409 417 1727 433 1744 c 2
 680 2002 l 2
 695 2018 708 2019 737 2019 c 2
 922 2019 l 2
 948 2019 957 2016 964 2002 c 2
 1091 1745 l 2
 1096.54189686 1733.78529533 1093.2057621 1722.72149853 1081 1710 c 2
 1010 1636 l 2
 993.399353428 1618.69791766 991 1623 977 1635 c 2
 816 1780 l 2
 801 1793 787 1794 766 1781 c 2
 535 1634 l 2
 517 1623 512.204418809 1629.25603676 501 1640 c 2
EndSplineSet
EndChar

StartChar: tildecomb
Encoding: 771 771 113
GlifName: tildecomb
Width: 0
Flags: MW
AnchorPoint: "Anchor-0" 702 1500 mark 0
AnchorPoint: "Anchor-0" 702 1500 mark 0
LayerCount: 2
Fore
SplineSet
902 1630 m 0
 818 1630 773 1668 730 1699 c 0
 685 1732 658 1748 618 1748 c 4
 577 1748 548 1727 532 1714 c 0
 521 1705 511 1700 498 1700 c 2
 376 1700 l 2
 353 1700 355 1710 362 1730 c 0
 403 1857 543 2004 667 2004 c 0
 751 2004 784 1967 826 1935 c 0
 868 1903 915 1886 948 1886 c 0
 981 1886 1005 1891 1025 1912 c 0
 1037 1925 1038 1934 1057 1934 c 2
 1185 1934 l 2
 1203 1934 1204 1928 1199 1912 c 0
 1160 1764 1039 1630 902 1630 c 0
EndSplineSet
EndChar

StartChar: uni0304
Encoding: 772 772 114
GlifName: uni0304
Width: 0
Flags: MW
AnchorPoint: "Anchor-0" 736 1500 mark 0
AnchorPoint: "Anchor-0" 736 1500 mark 0
LayerCount: 2
Fore
SplineSet
520 1662 m 2
 520 1795 l 2
 520 1814 522 1822 540 1822 c 2
 966 1822 l 2
 991 1822 1000 1818 1000 1791 c 2
 1000 1660 l 2
 1000 1639 999 1630 978 1630 c 2
 555 1630 l 2
 529 1630 520 1634 520 1662 c 2
EndSplineSet
EndChar

StartChar: uni0306
Encoding: 774 774 115
GlifName: uni0306
Width: 0
Flags: MW
AnchorPoint: "Anchor-0" 705 1500 mark 0
AnchorPoint: "Anchor-0" 705 1500 mark 0
LayerCount: 2
Fore
SplineSet
724 1580 m 0
 522 1580 478 1705 524 1919 c 0
 528 1936 534 1938 551 1938 c 2
 665 1938 l 6
 679 1938 681 1935 680 1922 c 4
 678 1882 682 1840 779 1840 c 4
 871 1840 895 1878 914 1909 c 4
 925 1927 926 1938 950 1938 c 6
 1067 1938 l 2
 1088 1938 1088 1934 1082 1914 c 0
 1029 1704 923 1580 724 1580 c 0
EndSplineSet
EndChar

StartChar: uni0307
Encoding: 775 775 116
GlifName: uni0307
Width: 0
Flags: MW
AnchorPoint: "Anchor-0" 572 920 mark 0
AnchorPoint: "Anchor-0" 572 920 mark 0
LayerCount: 2
Fore
SplineSet
699 1269 m 0
 593 1269 507 1355 507 1461 c 0
 507 1567 593 1653 699 1653 c 0
 805 1653 891 1567 891 1461 c 0
 891 1355 805 1269 699 1269 c 0
EndSplineSet
EndChar

StartChar: uni0308
Encoding: 776 776 117
GlifName: uni0308
Width: 0
Flags: MW
AnchorPoint: "Anchor-0" 707 1500 mark 0
AnchorPoint: "Anchor-0" 707 1500 mark 0
LayerCount: 2
Fore
SplineSet
1074 1690 m 0
 968 1690 882 1776 882 1882 c 0
 882 1988 968 2074 1074 2074 c 0
 1180 2074 1266 1988 1266 1882 c 0
 1266 1776 1180 1690 1074 1690 c 0
514 1690 m 0
 408 1690 322 1776 322 1882 c 0
 322 1988 408 2074 514 2074 c 0
 620 2074 706 1988 706 1882 c 0
 706 1776 620 1690 514 1690 c 0
EndSplineSet
EndChar

StartChar: uni030A
Encoding: 778 778 118
GlifName: uni030A_
Width: 0
Flags: HMW
AnchorPoint: "Anchor-0" 706 1500 mark 0
AnchorPoint: "Anchor-0" 706 1500 mark 0
LayerCount: 2
Fore
SplineSet
776 1804 m 4
 826 1804 869 1847 879 1891 c 4
 891 1944 869 1987 819 1987 c 4
 769 1987 728 1944 716 1891 c 4
 706 1847 726 1804 776 1804 c 4
759 1640 m 0
 588 1640 517 1758 547 1889 c 0
 577 2020 693 2140 834 2140 c 0
 1006 2140 1076 2021 1046 1889 c 0
 1016 1758 900 1640 759 1640 c 0
EndSplineSet
EndChar

StartChar: uni030B
Encoding: 779 779 119
GlifName: uni030B_
Width: 0
Flags: MW
AnchorPoint: "Anchor-0" 600 1500 mark 0
AnchorPoint: "Anchor-0" 600 1500 mark 0
LayerCount: 2
Fore
SplineSet
1054 1697 m 2
 919 1787 l 2
 903 1798 902 1807 912 1822 c 2
 1081 2154 l 2
 1122 2234 1269 2288 1368 2201 c 256
 1485 2099 1454 2006 1376 1941 c 2
 1084 1698 l 2
 1071 1686 1068 1687 1054 1697 c 2
424 1697 m 2
 289 1787 l 2
 273 1798 272 1807 282 1822 c 2
 451 2154 l 2
 492 2234 652 2296 748 2206 c 256
 857 2105 824 2006 746 1941 c 2
 454 1698 l 2
 441 1686 438 1687 424 1697 c 2
EndSplineSet
EndChar

StartChar: uni030C
Encoding: 780 780 120
GlifName: uni030C_
Width: 0
Flags: MW
AnchorPoint: "Anchor-0" 705 1500 mark 0
AnchorPoint: "Anchor-0" 705 1500 mark 0
LayerCount: 2
Fore
SplineSet
601 1657 m 2
 469 1919 l 2
 463.564669796 1929.78830692 470 1938 484 1949 c 2
 570 2023 l 2
 587.183965196 2037.78620261 588 2036 602 2024 c 2
 764 1879 l 2
 779 1866 793 1865 814 1878 c 2
 1045 2025 l 2
 1063 2036 1068.54259439 2031.62100678 1079 2019 c 6
 1137 1949 l 6
 1149.25411423 1934.21055179 1148 1932 1132 1915 c 2
 885 1657 l 2
 870 1641 857 1640 828 1640 c 2
 643 1640 l 2
 617 1640 608 1643 601 1657 c 2
EndSplineSet
EndChar

StartChar: uni0311
Encoding: 785 785 121
GlifName: uni0311
Width: 0
Flags: MW
AnchorPoint: "Anchor-0" 705 1500 mark 0
AnchorPoint: "Anchor-0" 705 1500 mark 0
LayerCount: 2
Fore
SplineSet
826 2008 m 0
 1028 2008 1071 1883 1025 1669 c 0
 1021 1652 1015 1650 998 1650 c 2
 874 1650 l 6
 860 1650 859 1653 860 1666 c 4
 862 1706 858 1748 761 1748 c 4
 669 1748 645 1710 626 1679 c 4
 615 1661 613 1650 589 1650 c 6
 482 1650 l 2
 461 1650 461 1654 467 1674 c 0
 520 1884 627 2008 826 2008 c 0
EndSplineSet
EndChar

StartChar: uni0312
Encoding: 786 786 122
GlifName: uni0312
Width: 0
Flags: HMW
AnchorPoint: "Anchor-0" 569 920 mark 0
AnchorPoint: "Anchor-0" 569 920 mark 0
LayerCount: 2
Fore
SplineSet
870.599609375 1279.40039062 m 4
 870.599609375 1164.20019531 776.200195312 1092.20019531 667.400390625 1092.20019531 c 0
 557 1092.20019531 445 1157.79980469 445 1338.59960938 c 0
 445 1547.64257812 692.7421875 1656.28027344 882.599609375 1665.89941406 c 0
 910.456054688 1667.31054688 913.799804688 1665.73828125 913.799804688 1637.79980469 c 2
 913.799804688 1553 l 2
 913.799804688 1533.96777344 906.905273438 1538.953125 889.799804688 1537.60644531 c 0
 796.602539062 1530.26953125 657.129882812 1498.24023438 603.400390625 1436.51660156 c 0
 577.396484375 1406.64355469 598.4140625 1402.31738281 622.599609375 1416.47167969 c 0
 647.766601562 1431.20117188 678.927734375 1441 720.200195312 1441 c 0
 813 1441 870.599609375 1380.20019531 870.599609375 1279.40039062 c 4
EndSplineSet
EndChar

StartChar: dotbelowcomb
Encoding: 803 803 123
GlifName: dotbelowcomb
Width: 0
Flags: MW
AnchorPoint: "Anchor-1" 360 0 mark 0
AnchorPoint: "Anchor-2" 360 0 mark 0
LayerCount: 2
Fore
SplineSet
281 -553 m 0
 175 -553 89 -467 89 -361 c 0
 89 -255 175 -169 281 -169 c 0
 387 -169 473 -255 473 -361 c 0
 473 -467 387 -553 281 -553 c 0
EndSplineSet
EndChar

StartChar: uni0326
Encoding: 806 806 124
GlifName: uni0326
Width: 0
Flags: HMW
AnchorPoint: "Anchor-1" 356 0 mark 0
AnchorPoint: "Anchor-2" 356 0 mark 0
LayerCount: 2
Fore
SplineSet
51.400390625 -371.400390625 m 4
 51.400390625 -256.200195312 145.799804688 -184.200195312 254.599609375 -184.200195312 c 0
 365 -184.200195312 477 -249.799804688 477 -430.599609375 c 0
 477 -639.642578125 229.2578125 -748.280273438 39.400390625 -757.899414062 c 0
 11.5439453125 -759.310546875 8.2001953125 -757.73828125 8.2001953125 -729.799804688 c 2
 8.2001953125 -645 l 2
 8.2001953125 -625.967773438 15.0947265625 -630.953125 32.2001953125 -629.606445312 c 0
 125.397460938 -622.26953125 264.870117188 -590.240234375 318.599609375 -528.516601562 c 0
 344.603515625 -498.643554688 323.5859375 -494.317382812 299.400390625 -508.471679688 c 0
 274.233398438 -523.201171875 243.072265625 -533 201.799804688 -533 c 0
 109 -533 51.400390625 -472.200195312 51.400390625 -371.400390625 c 4
EndSplineSet
EndChar

StartChar: uni0327
Encoding: 807 807 125
GlifName: uni0327
Width: 0
Flags: MW
AnchorPoint: "Anchor-1" 388 0 mark 0
AnchorPoint: "Anchor-2" 388 0 mark 0
LayerCount: 2
Fore
SplineSet
57 -520 m 2
 57 -423 l 2
 62 -401 75 -397 95 -396 c 0
 177 -390 311 -386 323 -336 c 0
 337 -276 203 -267 115 -259 c 0
 77 -255 78 -248 95 -230 c 2
 309 2 l 2
 317 11 322 12 338 12 c 2
 436 12 l 2
 466 12 473 8 459 -8 c 2
 392 -86 l 2
 370 -109 368 -117 403 -120 c 0
 530 -130 597 -198 571 -310 c 0
 519 -535 242 -545 85 -549 c 0
 64 -550 57 -542 57 -520 c 2
EndSplineSet
EndChar

StartChar: uni0328
Encoding: 808 808 126
GlifName: uni0328
Width: 0
Flags: MW
AnchorPoint: "Anchor-2" 382 47 mark 0
AnchorPoint: "Anchor-3" 382 47 mark 0
LayerCount: 2
Fore
SplineSet
227 -422 m 0
 64 -422 -23.8564453125 -367.927734375 -17 -250 c 0
 -7 -78 262 28 386 100 c 0
 411 115 451 88 459 80 c 0
 491 49 509 44 489 26 c 0
 431 -26 304 -89 285 -170 c 0
 273 -221 305 -235 355 -235 c 0
 404 -235 435 -216 460 -194 c 0
 475 -181 483 -179 491 -187 c 2
 543 -237 l 2
 554 -246 552 -250 541 -265 c 0
 484 -338 394 -422 227 -422 c 0
EndSplineSet
EndChar

StartChar: breve
Encoding: 728 728 127
GlifName: breve
Width: 1000
Flags: HMW
AnchorPoint: "Anchor-0" 689 1500 mark 0
AnchorPoint: "Anchor-0" 689 1500 mark 0
LayerCount: 2
Fore
SplineSet
724 1620 m 0
 522 1620 478 1745 524 1959 c 0
 528 1976 534 1978 551 1978 c 2
 665 1978 l 6
 679 1978 681 1975 680 1962 c 4
 678 1922 682 1880 779 1880 c 4
 871 1880 895 1918 914 1949 c 4
 925 1967 926 1978 950 1978 c 6
 1067 1978 l 2
 1088 1978 1088 1974 1082 1954 c 0
 1029 1744 923 1620 724 1620 c 0
EndSplineSet
EndChar

StartChar: dotaccent
Encoding: 729 729 128
GlifName: dotaccent
Width: 1000
Flags: HMW
AnchorPoint: "Anchor-0" 617 1040 mark 0
AnchorPoint: "Anchor-0" 617 1040 mark 0
LayerCount: 2
Fore
SplineSet
699 1269 m 0
 593 1269 507 1355 507 1461 c 0
 507 1567 593 1653 699 1653 c 0
 805 1653 891 1567 891 1461 c 0
 891 1355 805 1269 699 1269 c 0
EndSplineSet
EndChar

StartChar: ring
Encoding: 730 730 129
GlifName: ring
Width: 1000
Flags: HMW
AnchorPoint: "Anchor-0" 710 1500 mark 0
AnchorPoint: "Anchor-0" 710 1500 mark 0
LayerCount: 2
Fore
SplineSet
776 1804 m 4
 826 1804 869 1847 879 1891 c 4
 891 1944 869 1987 819 1987 c 4
 769 1987 728 1944 716 1891 c 4
 706 1847 726 1804 776 1804 c 4
759 1640 m 0
 588 1640 517 1758 547 1889 c 0
 577 2020 693 2140 834 2140 c 0
 1006 2140 1076 2021 1046 1889 c 0
 1016 1758 900 1640 759 1640 c 0
EndSplineSet
EndChar

StartChar: ogonek
Encoding: 731 731 130
GlifName: ogonek
Width: 1000
Flags: HMW
AnchorPoint: "Anchor-2" 421 27 mark 0
AnchorPoint: "Anchor-3" 421 27 mark 0
LayerCount: 2
Fore
SplineSet
227 -422 m 0
 64 -422 -23.8564453125 -367.927734375 -17 -250 c 0
 -7 -78 262 28 386 100 c 0
 411 115 451 88 459 80 c 0
 491 49 509 44 489 26 c 0
 431 -26 304 -89 285 -170 c 0
 273 -221 305 -235 355 -235 c 0
 404 -235 435 -216 460 -194 c 0
 475 -181 483 -179 491 -187 c 2
 543 -237 l 2
 554 -246 552 -250 541 -265 c 0
 484 -338 394 -422 227 -422 c 0
EndSplineSet
EndChar

StartChar: tilde
Encoding: 732 732 131
GlifName: tilde
Width: 1000
Flags: HMW
AnchorPoint: "Anchor-0" 676 1500 mark 0
AnchorPoint: "Anchor-0" 676 1500 mark 0
LayerCount: 2
Fore
SplineSet
902 1630 m 0
 818 1630 773 1668 730 1699 c 0
 685 1732 658 1748 618 1748 c 4
 577 1748 548 1727 532 1714 c 0
 521 1705 511 1700 498 1700 c 2
 376 1700 l 2
 353 1700 355 1710 362 1730 c 0
 403 1857 543 2004 667 2004 c 0
 751 2004 784 1967 826 1935 c 0
 868 1903 915 1886 948 1886 c 0
 981 1886 1005 1891 1025 1912 c 0
 1037 1925 1038 1934 1057 1934 c 2
 1185 1934 l 2
 1203 1934 1204 1928 1199 1912 c 0
 1160 1764 1039 1630 902 1630 c 0
EndSplineSet
EndChar

StartChar: hungarumlaut
Encoding: 733 733 132
GlifName: hungarumlaut
Width: 1000
Flags: HMW
AnchorPoint: "Anchor-0" 674 1500 mark 0
AnchorPoint: "Anchor-0" 674 1500 mark 0
LayerCount: 2
Fore
SplineSet
1054 1697 m 2
 919 1787 l 2
 903 1798 902 1807 912 1822 c 2
 1081 2154 l 2
 1122 2234 1269 2288 1368 2201 c 256
 1485 2099 1454 2006 1376 1941 c 2
 1084 1698 l 2
 1071 1686 1068 1687 1054 1697 c 2
424 1697 m 2
 289 1787 l 2
 273 1798 272 1807 282 1822 c 2
 451 2154 l 2
 492 2234 652 2296 748 2206 c 256
 857 2105 824 2006 746 1941 c 2
 454 1698 l 2
 441 1686 438 1687 424 1697 c 2
EndSplineSet
EndChar

StartChar: dieresis
Encoding: 168 168 133
GlifName: dieresis
Width: 1000
Flags: HMW
AnchorPoint: "Anchor-0" 741 1500 mark 0
AnchorPoint: "Anchor-0" 741 1500 mark 0
LayerCount: 2
Fore
SplineSet
1074 1690 m 0
 968 1690 882 1776 882 1882 c 0
 882 1988 968 2074 1074 2074 c 0
 1180 2074 1266 1988 1266 1882 c 0
 1266 1776 1180 1690 1074 1690 c 0
514 1690 m 0
 408 1690 322 1776 322 1882 c 0
 322 1988 408 2074 514 2074 c 0
 620 2074 706 1988 706 1882 c 0
 706 1776 620 1690 514 1690 c 0
EndSplineSet
EndChar

StartChar: ordfeminine
Encoding: 170 170 134
GlifName: ordfeminine
Width: 907
VWidth: 2310
Flags: HMW
LayerCount: 2
Fore
SplineSet
570.599609375 1348 m 0
 570.599609375 1414 557.400390625 1474 523.799804688 1474 c 0
 448.200195312 1474 369 1328.79980469 369 1180 c 0
 369 1103.20019531 385.799804688 1076.79980469 421.799804688 1076.79980469 c 0
 471 1076.79980469 570.599609375 1187.20019531 570.599609375 1348 c 0
973.799804688 1127.79980469 m 0
 910.200195312 1006.59960938 808.200195312 934 676.200195312 934 c 0
 614.400390625 934 568.200195312 959.799804688 538.200195312 993.400390625 c 0
 531 1001.79980469 525.599609375 1007.20019531 520.799804688 1011.40039062 c 0
 507.599609375 1022.79980469 500.400390625 1018 478.200195312 1000.59960938 c 0
 432.599609375 964.599609375 376.200195312 940 305.400390625 940 c 0
 186.599609375 940 75 988 75 1168 c 0
 75 1432 258.599609375 1610.79980469 425.400390625 1610.79980469 c 0
 510 1610.79980469 560.400390625 1582.59960938 592.799804688 1526.20019531 c 0
 603 1508.79980469 611.400390625 1501 619.200195312 1536.40039062 c 2
 626.400390625 1568.79980469 l 2
 629.400390625 1583.20019531 633.599609375 1588 658.200195312 1588 c 2
 861 1588 l 2
 891.599609375 1588 891 1582.59960938 885 1560.40039062 c 2
 773.400390625 1145.20019531 l 2
 771.599609375 1138 769.799804688 1127.20019531 769.799804688 1121.20019531 c 0
 769.799804688 1108 774.599609375 1104.40039062 786.599609375 1104.40039062 c 0
 810.599609375 1104.40039062 837.599609375 1130.20019531 867.599609375 1187.20019531 c 0
 882 1214.79980469 888 1214.20019531 911.400390625 1203.40039062 c 2
 960.599609375 1180.59960938 l 2
 989.400390625 1166.79980469 991.200195312 1160.79980469 973.799804688 1127.79980469 c 0
EndSplineSet
EndChar

StartChar: cedilla
Encoding: 184 184 135
GlifName: cedilla
Width: 1000
Flags: HMW
AnchorPoint: "Anchor-1" 388 0 mark 0
AnchorPoint: "Anchor-2" 388 0 mark 0
LayerCount: 2
Fore
SplineSet
57 -520 m 2
 57 -423 l 2
 62 -401 75 -397 95 -396 c 0
 177 -390 311 -386 323 -336 c 0
 337 -276 203 -267 115 -259 c 0
 77 -255 78 -248 95 -230 c 2
 309 2 l 2
 317 11 322 12 338 12 c 2
 436 12 l 2
 466 12 473 8 459 -8 c 2
 392 -86 l 2
 370 -109 368 -117 403 -120 c 0
 530 -130 597 -198 571 -310 c 0
 519 -535 242 -545 85 -549 c 0
 64 -550 57 -542 57 -520 c 2
EndSplineSet
EndChar

StartChar: uni00B9
Encoding: 185 185 136
GlifName: uni00B_9
Width: 740
VWidth: 2310
Flags: HMW
LayerCount: 2
Fore
SplineSet
-8 951 m 2
 -8 1011.59960938 l 2
 -8 1036.79980469 -2 1038 23.7998046875 1038 c 2
 175 1038 l 2
 204.400390625 1038 207.723632812 1043.67382812 214 1070.40039062 c 2
 328 1555.79980469 l 2
 328 1579.79980469 322.599609375 1584 299.799804688 1584 c 2
 177.400390625 1584 l 2
 157.599609375 1584 150.400390625 1585.79980469 150.400390625 1607.40039062 c 2
 150.400390625 1679.40039062 l 2
 150.400390625 1711.79980469 169.599609375 1710 197.799804688 1710.59960938 c 0
 308.200195312 1713 427.599609375 1728 495.400390625 1833 c 0
 507.193359375 1851.26464844 520.599609375 1860 551.799804688 1860 c 2
 591.400390625 1860 l 2
 617.200195312 1860 627.346679688 1855.77734375 622 1832.40039062 c 2
 448 1071.59960938 l 2
 440.958007812 1040.81054688 454 1038 487 1038 c 2
 620.200195312 1038 l 2
 640 1038 652 1035.59960938 652 1014 c 2
 652 947.400390625 l 2
 652 918 650.799804688 912 621.400390625 912 c 2
 31 912 l 2
 -3.7998046875 912 -8 915 -8 951 c 2
EndSplineSet
EndChar

StartChar: ordmasculine
Encoding: 186 186 137
GlifName: ordmasculine
Width: 798
VWidth: 2310
Flags: HMW
LayerCount: 2
Fore
SplineSet
22 1202 m 0
 22 1430 211.599609375 1610 488.799804688 1610 c 0
 670 1610 787.599609375 1526 787.599609375 1346 c 0
 787.599609375 1118 598 938 320.799804688 938 c 0
 139.599609375 938 22 1022 22 1202 c 0
292 1166 m 0
 292 1089.20019531 310 1070 344.799804688 1070 c 0
 427.599609375 1070 517.599609375 1221.20019531 517.599609375 1382 c 0
 517.599609375 1458.79980469 499.599609375 1478 464.799804688 1478 c 0
 382 1478 292 1326.79980469 292 1166 c 0
EndSplineSet
EndChar

StartChar: paragraph
Encoding: 182 182 138
GlifName: paragraph
Width: 1632
Flags: MW
LayerCount: 2
Fore
SplineSet
1003 -44 m 6
 1303 1258 l 6
 1309 1286 1301 1287 1272 1287 c 6
 1228 1287 l 6
 1190 1287 1184 1281 1175 1242 c 6
 880 -36 l 6
 872 -69 868 -87 905 -87 c 6
 941 -87 l 6
 983 -87 993 -86 1003 -44 c 6
214 989 m 0
 294 1336 614 1500 872 1500 c 2
 1673 1500 l 2
 1701 1500 1714 1496.04190076 1714 1466 c 2
 1714 1328 l 2
 1714 1288.93652344 1695 1287 1656 1287 c 2
 1566 1287 l 2
 1524 1287 1521 1278 1511 1236 c 2
 1219 -32 l 2
 1211 -66 1209 -87 1247 -87 c 2
 1345 -87 l 2
 1371 -87 1380 -88 1380 -114 c 2
 1380 -259 l 2
 1380 -293 1365 -300 1332 -300 c 2
 349 -300 l 2
 323 -300 311 -299 311 -270 c 2
 311 -146 l 2
 311 -97 326 -87 375 -87 c 2
 613 -87 l 2
 645 -87 656 -86 663 -54 c 2
 777 440 l 2
 785 475 777 479 744 479 c 2
 637 479 l 2
 380 479 134 642 214 989 c 0
EndSplineSet
EndChar

StartChar: onequarter
Encoding: 188 188 140
GlifName: onequarter
Width: 2000
Flags: MW
LayerCount: 2
Fore
SplineSet
1522 1440 m 5
 1650 1440 l 5
 728 -60 l 5
 590 -60 l 5
 1522 1440 l 5
EndSplineSet
Refer: 6 52 N 0.6 0 0 0.6 1070 4 2
Refer: 3 49 N 0.6 0 0 0.6 214 632 2
EndChar

StartChar: onehalf
Encoding: 189 189 141
GlifName: onehalf
Width: 2000
Flags: MW
LayerCount: 2
Fore
SplineSet
1492 1450 m 5
 1620 1450 l 5
 698 -50 l 5
 560 -50 l 5
 1492 1450 l 5
EndSplineSet
Refer: 4 50 N 0.6 0 0 0.6 1152 -16 2
Refer: 3 49 N 0.6 0 0 0.6 214 622 2
EndChar

StartChar: threequarters
Encoding: 190 190 142
GlifName: threequarters
Width: 2000
Flags: MW
LayerCount: 2
Fore
SplineSet
1432 1400 m 5
 1560 1400 l 5
 638 -100 l 5
 500 -100 l 5
 1432 1400 l 5
EndSplineSet
Refer: 6 52 N 0.6 0 0 0.6 1070 -36 2
Refer: 5 51 N 0.6 0 0 0.6 130 614 2
EndChar

StartChar: questiondown
Encoding: 191 191 143
GlifName: questiondown
Width: 1220
Flags: HMW
LayerCount: 2
Fore
SplineSet
468 546.4921875 m 4
 540.522460938 564.333984375 601.732421875 568 633 568 c 4
 754 568 905 504 905 360 c 4
 905 44 337 175 337 -160 c 4
 337 -268 395 -326 493 -326 c 4
 561 -326 617 -310 617 -286 c 4
 617 -246 535 -242 535 -100 c 4
 535 24 681 100 791 100 c 4
 901 100 1045 14 1045 -122 c 4
 1045 -326 797 -500 433 -500 c 4
 91 -500 -85 -360 -85 -140 c 4
 -85 314 664 257 664 339 c 4
 664 362 642 374 595 374 c 4
 572.883789062 374 520.197265625 370.256835938 467 351.928710938 c 4
 428.8828125 338.796875 425.811523438 326.129882812 420.360351562 379 c 6
 409.432617188 485 l 6
 403.845703125 539.193359375 425.060546875 535.928710938 468 546.4921875 c 4
927 840 m 0
 927 708 819 600 687 600 c 0
 555 600 447 708 447 840 c 0
 447 972 555 1080 687 1080 c 0
 819 1080 927 972 927 840 c 0
EndSplineSet
EndChar

StartChar: degree
Encoding: 176 176 144
GlifName: degree
Width: 639
Flags: MW
LayerCount: 2
Fore
SplineSet
403 1359 m 4
 391 1306 420 1270 473 1270 c 4
 527 1270 572 1306 584 1359 c 4
 596 1413 569 1450 515 1450 c 4
 462 1450 415 1413 403 1359 c 4
254 1359 m 0
 285 1495 413 1600 549 1600 c 0
 686 1600 767 1496 735 1359 c 0
 704 1223 575 1120 439 1120 c 0
 303 1120 223 1223 254 1359 c 0
EndSplineSet
EndChar

StartChar: plusminus
Encoding: 177 177 145
GlifName: plusminus
Width: 1059
Flags: MW
LayerCount: 2
Fore
SplineSet
366 361 m 5
 437 666 l 5
 134 666 l 5
 183 878 l 5
 486 878 l 5
 555 1180 l 5
 768 1180 l 5
 699 878 l 5
 1002 878 l 5
 953 666 l 5
 650 666 l 5
 579 361 l 5
 366 361 l 5
-22 -15 m 1
 26 197 l 1
 845 197 l 1
 797 -15 l 1
 -22 -15 l 1
EndSplineSet
EndChar

StartChar: acute
Encoding: 180 180 146
GlifName: acute
Width: 790
Flags: MW
LayerCount: 2
Fore
SplineSet
735 1340 m 2
 351 1373 l 2
 289 1378 265 1377 261 1432 c 0
 255 1509 284 1512 348 1536 c 2
 715 1676 l 2
 831 1720 925 1628 925 1510 c 0
 925 1392 840 1331 735 1340 c 2
EndSplineSet
EndChar

StartChar: uni00B2
Encoding: 178 178 147
GlifName: uni00B_2
Width: 859
VWidth: 2310
Flags: HMW
LayerCount: 2
Fore
SplineSet
807.400390625 1220 m 0
 770.799804688 1028.59960938 632.799804688 902 472 902 c 0
 331.599609375 902 265.599609375 974 178 974 c 0
 143.799804688 974 121.599609375 958.400390625 107.799804688 934.400390625 c 0
 98.2001953125 918.200195312 101.799804688 914 74.7998046875 914 c 2
 -10.400390625 914 l 2
 -33.7998046875 914 -37.5 916.400390625 -37.400390625 939.200195312 c 0
 -36.7998046875 1076 111.291992188 1267.25488281 288.400390625 1362.79980469 c 0
 425.200195312 1436.59960938 606.400390625 1527.20019531 606.400390625 1634 c 4
 606.400390625 1692.79980469 569.200195312 1721.59960938 480.400390625 1721.59960938 c 0
 403.599609375 1721.59960938 305.200195312 1692.79980469 305.200195312 1666.40039062 c 0
 305.200195312 1644.79980469 402.400390625 1650.79980469 402.400390625 1547.59960938 c 0
 402.400390625 1467.20019531 339.400390625 1424 271 1424 c 0
 200.200195312 1424 131.200195312 1469.59960938 131.200195312 1563.20019531 c 0
 131.200195312 1727.59960938 346 1826 558.400390625 1826 c 0
 739.599609375 1826 859.599609375 1784 859.599609375 1628 c 0
 859.599609375 1460 613 1389.20019531 432.400390625 1310 c 0
 331.599609375 1265.59960938 248.799804688 1214.59960938 211 1178.59960938 c 0
 179.84765625 1148.93066406 139.567382812 1098.42773438 152.200195312 1094.59960938 c 0
 172 1088.59960938 177.400390625 1127.59960938 226.599609375 1162.40039062 c 0
 258.137695312 1184.70703125 318.400390625 1195.40039062 358 1195.40039062 c 0
 460 1195.40039062 478 1142.59960938 569.200195312 1142.59960938 c 0
 633.400390625 1142.59960938 682 1172.59960938 689.799804688 1220 c 0
 693.400390625 1245.20019531 690.400390625 1246.40039062 719.200195312 1246.40039062 c 2
 782.799804688 1246.40039062 l 2
 809.200195312 1246.40039062 812.1328125 1244.75195312 807.400390625 1220 c 0
EndSplineSet
EndChar

StartChar: uni00B3
Encoding: 179 179 148
GlifName: uni00B_3
Width: 776
VWidth: 2310
Flags: HMW
LayerCount: 2
Fore
SplineSet
10 1122.79980469 m 0
 10 1204.40039062 64 1268 152.799804688 1268 c 0
 233.200195312 1268 275.200195312 1224.79980469 275.200195312 1168.40039062 c 0
 275.200195312 1089.20019531 200.200195312 1089.20019531 200.200195312 1061.59960938 c 0
 200.200195312 1029.20019531 258.400390625 1012.40039062 305.200195312 1012.40039062 c 0
 394 1012.40039062 476.799804688 1071.20019531 476.799804688 1196 c 0
 476.799804688 1277.59960938 435.400390625 1307 355.599609375 1316 c 0
 332.873046875 1318.56347656 324.400390625 1311.79980469 324.400390625 1338.20019531 c 2
 324.400390625 1416.79980469 l 2
 324.400390625 1440.20019531 329.799804688 1435.40039062 350.200195312 1437.20019531 c 0
 460.599609375 1445.59960938 548.799804688 1547 548.799804688 1635.20019531 c 0
 548.799804688 1700 490 1721.59960938 413.200195312 1721.59960938 c 0
 378.400390625 1721.59960938 338.799804688 1712 338.799804688 1691.59960938 c 0
 338.799804688 1664 419.200195312 1670 419.200195312 1584.79980469 c 0
 419.200195312 1534.40039062 371.200195312 1485.20019531 296.799804688 1485.20019531 c 0
 226 1485.20019531 154 1530.79980469 154 1618.40039062 c 0
 154 1734.79980469 302.799804688 1826 491.200195312 1826 c 0
 690.400390625 1826 790 1755.20019531 790 1641.20019531 c 0
 790 1506.79980469 661 1434.79980469 528.400390625 1392.79980469 c 0
 502 1384.40039062 484 1387.40039062 484 1379 c 0
 484 1368.79980469 495.400390625 1373.59960938 528.400390625 1365.20019531 c 0
 671.200195312 1327.40039062 712 1286.59960938 712 1190 c 0
 712 1010 492.400390625 902 311.200195312 902 c 0
 116.799804688 902 10 1006.40039062 10 1122.79980469 c 0
EndSplineSet
EndChar

StartChar: mu
Encoding: 181 181 149
GlifName: mu
Width: 1545
Flags: HMW
LayerCount: 2
Fore
SplineSet
632 847 m 1
 332 -82 l 6
 251.779997332 -330.414608261 506 -383 524 -375 c 0
 533 -371 471 -346 471 -252 c 0
 471 -157 559 -86 694 -86 c 0
 844 -86 917 -158 917 -280 c 0
 917 -401 810 -520 550 -520 c 0
 268 -520 33.0108093625 -351.376527008 120 -82 c 6
 420 847 l 1
 632 847 l 1
EndSplineSet
Refer: 58 117 N 1 0 0 1 0 0 2
EndChar

StartChar: guillemotleft
Encoding: 171 171 150
GlifName: guillemotleft
Width: 1390
Flags: MW
LayerCount: 2
Fore
SplineSet
1041 775 m 5
 1298 380 l 5
 1192 270 l 5
 623 750 l 5
 635 800 l 5
 1426 1280 l 5
 1480 1170 l 5
 1041 775 l 5
481 775 m 1
 738 380 l 1
 632 270 l 1
 63 750 l 1
 75 800 l 1
 866 1280 l 1
 920 1170 l 1
 481 775 l 1
EndSplineSet
EndChar

StartChar: guillemotright
Encoding: 187 187 151
GlifName: guillemotright
Width: 1390
Flags: MW
LayerCount: 2
Fore
SplineSet
427 775 m 1
 170 1170 l 1
 276 1280 l 1
 845 800 l 1
 833 750 l 1
 42 270 l 1
 -12 380 l 1
 427 775 l 1
987 775 m 5
 730 1170 l 5
 836 1280 l 5
 1405 800 l 5
 1393 750 l 5
 602 270 l 5
 548 380 l 5
 987 775 l 5
EndSplineSet
EndChar

StartChar: logicalnot
Encoding: 172 172 152
GlifName: logicalnot
Width: 1051
Flags: MW
LayerCount: 2
Fore
SplineSet
693 406 m 1
 753 666 l 1
 134 666 l 1
 183 880 l 1
 995 880 l 1
 886 406 l 1
 693 406 l 1
EndSplineSet
EndChar

StartChar: uni00AD
Encoding: 173 173 153
GlifName: uni00A_D_
Width: 920
Flags: MW
LayerCount: 2
Fore
SplineSet
219 890 m 2
 831 890 l 2
 862 890 863 883 856 851 c 2
 822 701 l 2
 814 666 811 660 776 660 c 2
 174 660 l 2
 138 660 134 665 142 700 c 2
 176 849 l 2
 183 881 187 890 219 890 c 2
EndSplineSet
EndChar

StartChar: copyright
Encoding: 169 169 154
GlifName: copyright
Width: 1739
Flags: MW
LayerCount: 2
Fore
SplineSet
747 73 m 4
 1130 73 1486 349 1579 750 c 4
 1672 1151 1440 1427 1059 1427 c 4
 676 1427 320 1151 227 750 c 4
 134 347 366 73 747 73 c 4
1081 1520 m 0
 1525 1520 1776 1192 1674 750 c 0
 1571 306 1167 -20 725 -20 c 0
 281 -20 31 308 133 750 c 0
 235 1193 639 1520 1081 1520 c 0
EndSplineSet
Refer: 14 67 N 0.6 0 0 0.6 344 290 2
EndChar

StartChar: registered
Encoding: 174 174 155
GlifName: registered
Width: 1739
Flags: MW
LayerCount: 2
Fore
SplineSet
747 73 m 4
 1130 73 1486 349 1579 750 c 4
 1672 1151 1440 1427 1059 1427 c 4
 676 1427 320 1151 227 750 c 4
 134 347 366 73 747 73 c 4
1081 1520 m 0
 1525 1520 1776 1192 1674 750 c 0
 1571 306 1167 -20 725 -20 c 0
 281 -20 31 308 133 750 c 0
 235 1193 639 1520 1081 1520 c 0
EndSplineSet
Refer: 29 82 N 0.54 0 0 0.54 412 350 2
EndChar

StartChar: multiply
Encoding: 215 215 157
GlifName: multiply
Width: 1090
Flags: MW
LayerCount: 2
Fore
SplineSet
625 860 m 2
 821 1020 l 2
 845 1039 858 1047 874 1026 c 2
 960 913 l 2
 976 892 979 884 953 863 c 2
 753 700 l 2
 724 677 726 673 744 649 c 2
 872 483 l 2
 883 469 878 462 860 447 c 2
 712 327 l 2
 688 308 682 310 667 330 c 2
 548 485 l 2
 530 509 523 513 494 490 c 2
 294 327 l 2
 275 311 265 309 252 326 c 2
 154 453 l 2
 142 469 147 471 166 487 c 2
 376 658 l 2
 398 676 396 684 382 702 c 2
 262 857 l 2
 244 880 244 888 272 911 c 2
 413 1026 l 2
 438 1047 444 1040 460 1019 c 2
 582 860 l 2
 596 842 603 842 625 860 c 2
EndSplineSet
EndChar

StartChar: divide
Encoding: 247 247 158
GlifName: divide
Width: 1119
Flags: MW
LayerCount: 2
Fore
SplineSet
175 886 m 2
 1034 886 l 2
 1054 886 1060 880 1060 858 c 2
 1060 692 l 2
 1060 677 1052 674 1036 674 c 2
 172 674 l 2
 146 674 140 679 140 704 c 2
 140 846 l 2
 140 879 143 886 175 886 c 2
336 410 m 0
 336 509 420 590 519 590 c 0
 618 590 697 509 697 410 c 0
 697 311 618 230 519 230 c 0
 420 230 336 311 336 410 c 0
508 1160 m 0
 508 1259 592 1340 691 1340 c 0
 790 1340 869 1259 869 1160 c 0
 869 1061 790 980 691 980 c 0
 592 980 508 1061 508 1160 c 0
EndSplineSet
EndChar

StartChar: uni0394
Encoding: 916 916 159
GlifName: uni0394
Width: 1900
Flags: MW
LayerCount: 2
Fore
SplineSet
999 270 m 6
 1057 270 1065 280 1060 319 c 6
 970 1023 l 6
 965 1069 944 1050 924 1019 c 6
 470 313 l 6
 450 281 449 270 485 270 c 6
 999 270 l 6
1560 0 m 2
 35 0 l 2
 -7 0 -10 15 4 37 c 2
 964 1497 l 2
 984 1529 988 1530 1034 1530 c 2
 1334 1530 l 2
 1381 1530 1384 1519 1390 1487 c 2
 1627 61 l 2
 1633 23 1617 0 1560 0 c 2
EndSplineSet
EndChar

StartChar: uni03A9
Encoding: 937 937 160
GlifName: uni03A_9
Width: 1719
Flags: MW
LayerCount: 2
Fore
SplineSet
1383 400 m 1
 1596 400 l 1
 1504 0 l 1
 805 0 l 1
 922 506 l 1
 1106 576 1184 687 1233 900 c 0
 1294 1163 1215 1313 1017 1313 c 0
 819 1313 673 1163 612 900 c 0
 563 687 586 567 738 497 c 1
 623 0 l 1
 -65 0 l 1
 27 400 l 1
 230 400 l 1
 208 306 213 163 316 163 c 2
 452 163 l 1
 492 337 l 1
 319 424 120 626 183 900 c 0
 281 1326 618 1520 1065 1520 c 0
 1512 1520 1760 1326 1662 900 c 0
 1599 626 1308 430 1095 345 c 1
 1053 163 l 1
 1189 163 l 2
 1292 163 1361 306 1383 400 c 1
EndSplineSet
EndChar

StartChar: pi
Encoding: 960 960 162
GlifName: pi
Width: 1561
VWidth: 2309
Flags: MW
LayerCount: 2
Fore
SplineSet
1483 900 m 2
 1434 563 l 2
 1430 542 1431 540 1409 540 c 2
 1281 540 l 2
 1246 540 1248 537 1241 503 c 2
 1165 247 l 2
 1156 207 1174 175 1222 175 c 0
 1254 175 1272 184 1311 232 c 0
 1326 250 1326 255 1346 245 c 2
 1390 224 l 2
 1409 215 1411 214 1397 192 c 0
 1319 64 1193 -20 1012 -20 c 0
 828 -20 753.201428904 99.0025968321 792 246 c 2
 863 515 l 2
 868 537 870 540 847 540 c 2
 703 540 l 2
 679 540 679 539 674 515 c 2
 649 386 l 2
 582 70 281 -20 144 -20 c 0
 12 -20 -54 44.8046875 -54 176 c 0
 -54 513 303.970349451 148.478879856 353 459 c 6
 362 516 l 2
 367 537 369 540 347 540 c 2
 291 540 l 2
 269 540 271 536 267 515 c 2
 247 419 l 2
 241 393 242 390 215 390 c 2
 151 390 l 2
 126 390 128 391 133 416 c 2
 211 888 l 2
 218 921 219 920 252 920 c 2
 1466 920 l 2
 1487 920 1487 921 1483 900 c 2
EndSplineSet
EndChar

StartChar: uni1E9E
Encoding: 7838 7838 163
GlifName: uni1E_9E_
Width: 2172
VWidth: 2309
Flags: MW
LayerCount: 2
Fore
SplineSet
-100 0 m 5
 -52 210 l 1
 129 210 l 1
 285 882 l 2
 379 1288 962 1520 1498 1520 c 0
 1915 1520 2153 1348 2199 1282 c 1
 1686 798 l 1
 1973 714 2087 540 2050 380 c 0
 1990 120 1637 -30 1355 -30 c 0
 1071 -30 865 66 910 261 c 0
 940 393 1065 492 1185 492 c 0
 1296 492 1372 402 1344 280 c 0
 1337 250 1323 220 1304 194 c 1
 1324 189 1344 187 1366 187 c 0
 1514 187 1620 292 1647 410 c 0
 1681 558 1609 665 1257 735 c 1
 1283 848 l 1
 1677 1198 l 1
 1622 1263 1537 1307 1419 1307 c 0
 1091 1307 755 1185 680 861 c 2
 529 210 l 1
 709 210 l 1
 661 0 l 1
 -100 0 l 5
EndSplineSet
EndChar

StartChar: uni2010
Encoding: 8208 8208 176
GlifName: uni2010
Width: 920
Flags: HMW
LayerCount: 2
Fore
SplineSet
188 890 m 6
 814 890 l 6
 837 890 840 886 840 862 c 6
 840 693 l 2
 840 669 838 660 812 660 c 2
 186 660 l 2
 161 660 160 664 160 690 c 2
 160 862 l 6
 160 885 167 890 188 890 c 6
EndSplineSet
EndChar

StartChar: uni2011
Encoding: 8209 8209 177
GlifName: uni2011
Width: 920
Flags: HMW
LayerCount: 2
Fore
SplineSet
188 890 m 6
 814 890 l 6
 837 890 840 886 840 862 c 6
 840 693 l 2
 840 669 838 660 812 660 c 2
 186 660 l 2
 161 660 160 664 160 690 c 2
 160 862 l 6
 160 885 167 890 188 890 c 6
EndSplineSet
EndChar

StartChar: figuredash
Encoding: 8210 8210 178
GlifName: figuredash
Width: 1224
Flags: HMW
LayerCount: 2
Fore
SplineSet
200.24609375 890 m 6
 1106.45019531 890 l 6
 1139.74511719 890 1144.08789062 886 1144.08789062 862 c 6
 1144.08789062 693 l 2
 1144.08789062 669 1141.19238281 660 1103.5546875 660 c 2
 197.350585938 660 l 2
 161.161132812 660 159.712890625 664 159.712890625 690 c 2
 159.712890625 862 l 6
 159.712890625 885 169.846679688 890 200.24609375 890 c 6
EndSplineSet
EndChar

StartChar: endash
Encoding: 8211 8211 179
GlifName: endash
Width: 1432
Flags: HMW
LayerCount: 2
Fore
SplineSet
209.4140625 890 m 6
 1306.66699219 890 l 6
 1346.98144531 890 1352.24023438 886 1352.24023438 862 c 6
 1352.24023438 693 l 2
 1352.24023438 669 1348.734375 660 1303.16113281 660 c 2
 205.909179688 660 l 2
 162.088867188 660 160.3359375 664 160.3359375 690 c 2
 160.3359375 862 l 6
 160.3359375 885 172.60546875 890 209.4140625 890 c 6
EndSplineSet
EndChar

StartChar: emdash
Encoding: 8212 8212 180
GlifName: emdash
Width: 2124
Flags: HMW
LayerCount: 2
Fore
SplineSet
237.973632812 890 m 6
 1972.04980469 890 l 6
 2035.76171875 890 2044.07226562 886 2044.07226562 862 c 6
 2044.07226562 693 l 2
 2044.07226562 669 2038.53222656 660 1966.50976562 660 c 2
 232.43359375 660 l 2
 163.180664062 660 160.411132812 664 160.411132812 690 c 2
 160.411132812 862 l 6
 160.411132812 885 179.801757812 890 237.973632812 890 c 6
EndSplineSet
EndChar

StartChar: uni2015
Encoding: 8213 8213 181
GlifName: uni2015
Width: 2331
Flags: HMW
LayerCount: 2
Fore
SplineSet
246.141601562 890 m 6
 2171.26660156 890 l 6
 2241.99804688 890 2251.22363281 886 2251.22363281 862 c 6
 2251.22363281 693 l 2
 2251.22363281 669 2245.07324219 660 2165.11621094 660 c 2
 239.991210938 660 l 2
 163.108398438 660 160.033203125 664 160.033203125 690 c 2
 160.033203125 862 l 6
 160.033203125 885 181.560546875 890 246.141601562 890 c 6
EndSplineSet
EndChar

StartChar: dagger
Encoding: 8224 8224 182
GlifName: dagger
Width: 1186
Flags: MW
LayerCount: 2
Fore
SplineSet
598 1088 m 0
 616 1195 546 1179 558 1311 c 0
 559 1325 561 1336 564 1348 c 0
 587 1446 695 1520 804 1520 c 0
 913 1520 987 1446 964 1348 c 0
 961 1336 959 1325 954 1311 c 0
 906 1182 845 1195 813 1094 c 0
 808 1078 806 1072 822 1075 c 0
 900 1088 936 1157 1058 1174 c 0
 1072 1176 1084 1176 1096 1176 c 0
 1194 1176 1246 1085 1221 976 c 0
 1196 867 1101 776 1003 776 c 0
 991 776 981 776 967 778 c 0
 859 794 849 857 786 875 c 0
 771 879 759 877 757 863 c 0
 730 711 758 611 795 528 c 0
 802 511 805 498 792 479 c 0
 679 315 549 -6 438 -478 c 0
 433 -499 426 -500 405 -500 c 2
 273 -500 l 2
 251 -500 243 -497 248 -476 c 0
 353 -14 372 303 337 469 c 0
 331 497 337 509 359 533 c 0
 432 615 503 711 545 858 c 0
 550 876 545 880 524 875 c 0
 453 857 415 794 299 778 c 0
 285 776 273 776 261 776 c 0
 153 776 110 867 135 976 c 0
 160 1085 246 1176 354 1176 c 0
 366 1176 376 1176 390 1174 c 0
 506 1157 509 1085 585 1074 c 0
 595 1073 596 1077 598 1088 c 0
EndSplineSet
EndChar

StartChar: daggerdbl
Encoding: 8225 8225 183
GlifName: daggerdbl
Width: 1186
Flags: MW
LayerCount: 2
Fore
SplineSet
596 1085 m 0
 610 1182 548 1190 560 1321 c 0
 561 1335 564 1346 567 1358 c 0
 585 1436 695 1520 804 1520 c 0
 913 1520 987 1446 969 1368 c 0
 966 1356 963 1345 958 1331 c 0
 911 1205 846 1185 814 1096 c 0
 806 1076 805 1072 826 1076 c 0
 901 1091 939 1157 1058 1174 c 0
 1072 1176 1084 1176 1096 1176 c 0
 1194 1176 1246 1085 1221 976 c 0
 1196 867 1101 776 1003 776 c 0
 991 776 981 776 967 778 c 0
 862 794 851 854 791 873 c 0
 768 880 761 882 756 852 c 0
 730 710 758 615 793 535 c 0
 803 511 806 499 784 474 c 0
 709 391 633 294 592 143 c 0
 586 123 584 119 604 123 c 0
 681 137 718 205 838 222 c 0
 852 224 864 224 876 224 c 0
 974 224 1027 133 1002 24 c 0
 975 -95 881 -176 783 -176 c 0
 771 -176 761 -176 747 -174 c 0
 641 -158 630 -97 570 -78 c 0
 554 -73 542 -67 539 -91 c 0
 528 -183 589 -193 577 -321 c 0
 576 -335 573 -346 570 -358 c 0
 552 -436 452 -520 333 -520 c 0
 214 -520 152 -436 170 -358 c 0
 173 -346 176 -335 181 -321 c 0
 228 -194 294 -183 325 -93 c 0
 333 -70 324 -72 304 -77 c 0
 233 -94 195 -158 79 -174 c 0
 65 -176 53 -176 41 -176 c 0
 -57 -176 -111 -95 -84 24 c 0
 -59 133 36 224 134 224 c 0
 146 224 156 224 170 222 c 0
 282 205 287 137 358 123 c 0
 375 120 377 122 380 141 c 0
 407 286 380 382 346 463 c 0
 332 495 335 505 363 537 c 0
 433 617 504 711 544 853 c 0
 552 884 544 880 518 873 c 0
 450 853 411 794 299 778 c 0
 285 776 273 776 261 776 c 0
 153 776 110 867 135 976 c 0
 160 1085 246 1176 354 1176 c 0
 366 1176 376 1176 390 1174 c 0
 502 1157 507 1089 578 1075 c 0
 590 1073 594 1070 596 1085 c 0
EndSplineSet
EndChar

StartChar: perthousand
Encoding: 8240 8240 185
GlifName: perthousand
Width: 3300
Flags: MW
LayerCount: 2
Fore
SplineSet
2179 420 m 4
 2240 706 2467 880 2743 880 c 4
 2969 880 3200 706 3139 420 c 4
 3078 134 2802 -40 2576 -40 c 4
 2350 -40 2118 134 2179 420 c 4
2569 420 m 4
 2526 216 2549 130 2617 130 c 4
 2685 130 2706 216 2749 420 c 4
 2792 624 2780 710 2712 710 c 4
 2644 710 2612 624 2569 420 c 4
120 1080 m 4
 181 1366 397 1540 683 1540 c 4
 909 1540 1141 1366 1080 1080 c 4
 1019 794 742 620 496 620 c 4
 270 620 59 794 120 1080 c 4
510 1080 m 4
 467 876 479 790 547 790 c 4
 615 790 647 876 690 1080 c 4
 733 1284 730 1370 662 1370 c 4
 594 1370 553 1284 510 1080 c 4
1659 1496 m 6
 1816 1496 l 6
 1851 1496 1846.37792969 1486.29492188 1828 1464 c 6
 621 24 l 6
 604 3 592 -4 557 -4 c 6
 404 -4 l 6
 365 -4 379 19 394 37 c 6
 1612 1474 l 6
 1623 1488 1636 1496 1659 1496 c 6
1139 420 m 4
 1200 706 1427 880 1703 880 c 4
 1929 880 2160 706 2099 420 c 4
 2038 134 1762 -40 1536 -40 c 4
 1310 -40 1078 134 1139 420 c 4
1529 420 m 4
 1486 216 1509 130 1577 130 c 4
 1645 130 1666 216 1709 420 c 4
 1752 624 1740 710 1672 710 c 4
 1604 710 1572 624 1529 420 c 4
EndSplineSet
EndChar

StartChar: uni2031
Encoding: 8241 8241 186
GlifName: uni2031
Width: 4340
Flags: MW
LayerCount: 2
Fore
SplineSet
3219 420 m 4
 3280 706 3507 880 3783 880 c 4
 4009 880 4240 706 4179 420 c 4
 4118 134 3842 -40 3616 -40 c 4
 3390 -40 3158 134 3219 420 c 4
3609 420 m 4
 3566 216 3589 130 3657 130 c 4
 3725 130 3746 216 3789 420 c 4
 3832 624 3820 710 3752 710 c 4
 3684 710 3652 624 3609 420 c 4
2179 420 m 0
 2240 706 2467 880 2743 880 c 0
 2969 880 3200 706 3139 420 c 0
 3078 134 2802 -40 2576 -40 c 0
 2350 -40 2118 134 2179 420 c 0
2569 420 m 0
 2526 216 2549 130 2617 130 c 0
 2685 130 2706 216 2749 420 c 0
 2792 624 2780 710 2712 710 c 0
 2644 710 2612 624 2569 420 c 0
120 1080 m 0
 181 1366 397 1540 683 1540 c 0
 909 1540 1141 1366 1080 1080 c 0
 1019 794 742 620 496 620 c 0
 270 620 59 794 120 1080 c 0
510 1080 m 0
 467 876 479 790 547 790 c 0
 615 790 647 876 690 1080 c 0
 733 1284 730 1370 662 1370 c 0
 594 1370 553 1284 510 1080 c 0
1659 1496 m 2
 1816 1496 l 2
 1851 1496 1846.37792969 1486.29492188 1828 1464 c 2
 621 24 l 2
 604 3 592 -4 557 -4 c 2
 404 -4 l 2
 365 -4 379 19 394 37 c 2
 1612 1474 l 2
 1623 1488 1636 1496 1659 1496 c 2
1139 420 m 0
 1200 706 1427 880 1703 880 c 0
 1929 880 2160 706 2099 420 c 0
 2038 134 1762 -40 1536 -40 c 0
 1310 -40 1078 134 1139 420 c 0
1529 420 m 0
 1486 216 1509 130 1577 130 c 0
 1645 130 1666 216 1709 420 c 0
 1752 624 1740 710 1672 710 c 0
 1604 710 1572 624 1529 420 c 0
EndSplineSet
EndChar

StartChar: guilsinglleft
Encoding: 8249 8249 187
GlifName: guilsinglleft
Width: 830
Flags: MW
LayerCount: 2
Fore
SplineSet
481 775 m 1
 738 380 l 1
 632 270 l 1
 63 750 l 1
 75 800 l 1
 866 1280 l 1
 920 1170 l 1
 481 775 l 1
EndSplineSet
EndChar

StartChar: guilsinglright
Encoding: 8250 8250 188
GlifName: guilsinglright
Width: 830
Flags: MW
LayerCount: 2
Fore
SplineSet
427 775 m 1
 170 1170 l 1
 276 1280 l 1
 845 800 l 1
 833 750 l 1
 42 270 l 1
 -12 380 l 1
 427 775 l 1
EndSplineSet
EndChar

StartChar: uni203E
Encoding: 8254 8254 189
GlifName: uni203E_
Width: 719
Flags: HMW
LayerCount: 2
Fore
SplineSet
303.166992188 1919 m 6
 1268.25292969 1919 l 6
 1303.7109375 1919 1308.3359375 1915 1308.3359375 1891 c 6
 1308.3359375 1722 l 2
 1308.3359375 1698 1305.25292969 1689 1265.16894531 1689 c 2
 300.083984375 1689 l 2
 261.541992188 1689 260 1693 260 1719 c 2
 260 1891 l 6
 260 1914 270.791992188 1919 303.166992188 1919 c 6
EndSplineSet
EndChar

StartChar: uni2074
Encoding: 8308 8308 191
GlifName: uni2074
Width: 860
VWidth: 2309
Flags: HMW
LayerCount: 2
Fore
SplineSet
720.000976562 1017.40039062 m 2
 720.000976562 940.599609375 l 2
 720.000976562 920.799804688 715.201171875 919 694.801757812 919 c 2
 255.6015625 919 l 6
 227.401367188 919 222.000976562 919.599609375 222.000976562 947.799804688 c 6
 222.000976562 1018 l 6
 222.000976562 1039.59960938 226.201171875 1045 248.401367188 1045 c 6
 355.801757812 1045 l 2
 382.201171875 1045 383.254882812 1050.83496094 390.000976562 1076.20019531 c 2
 405.000976562 1132.59960938 l 2
 413.088867188 1163.00878906 396.000976562 1165 363.6015625 1165 c 2
 88.8017578125 1165 l 2
 63.0009765625 1165 63.0009765625 1169.79980469 54.6015625 1185.40039062 c 2
 36.0009765625 1220.20019531 l 2
 28.8017578125 1232.79980469 33.0009765625 1238.20019531 39.6015625 1251.40039062 c 0
 133.801757812 1439.79980469 513.000976562 1547.79980469 574.801757812 1785.40039062 c 0
 581.401367188 1810.59960938 582.000976562 1819 615.6015625 1819 c 2
 777.6015625 1819 l 2
 809.401367188 1819 814.801757812 1816 810.000976562 1787.79980469 c 0
 771.6015625 1556.20019531 382.201171875 1465.59960938 264.6015625 1334.20019531 c 0
 248.401367188 1316.20019531 233.401367188 1291 280.201171875 1291 c 2
 415.201171875 1291 l 2
 436.201171875 1291 436.103515625 1299.234375 444.000976562 1317.40039062 c 2
 453.000976562 1345 l 2
 463.217773438 1368.49707031 462.6015625 1371.40039062 481.201171875 1381.59960938 c 0
 520.801757812 1402.59960938 604.201171875 1431.40039062 628.801757812 1483 c 0
 634.201171875 1495 637.801757812 1501 656.401367188 1501 c 2
 696.000976562 1501 l 2
 714.6015625 1501 724.23046875 1499.53417969 720.000976562 1481.79980469 c 2
 682.801757812 1325.79980469 l 2
 678.301757812 1306.9296875 688.201171875 1291 710.401367188 1291 c 2
 788.401367188 1291 l 2
 807.6015625 1291 810.000976562 1286.20019531 810.000976562 1268.20019531 c 2
 810.000976562 1198.59960938 l 2
 810.000976562 1171 810.000976562 1165 782.401367188 1165 c 2
 671.401367188 1165 l 2
 646.801757812 1165 645.46875 1161.07421875 639.000976562 1136.20019531 c 2
 623.401367188 1076.20019531 l 2
 616.788085938 1050.76367188 626.401367188 1045 654.6015625 1045 c 2
 693.6015625 1045 l 2
 717.000976562 1045 720.000976562 1041.40039062 720.000976562 1017.40039062 c 2
EndSplineSet
EndChar

StartChar: Euro
Encoding: 8364 8364 192
GlifName: E_uro
Width: 1792
Flags: HMW
LayerCount: 2
Fore
SplineSet
1160 1304 m 4
 812 1304 600 964 600 600 c 0
 600 316 682 198 860 198 c 0
 1161 198 1291 325 1298 464 c 0
 1298.60546875 476.026367188 1304 480 1318 480 c 2
 1488 480 l 2
 1502 480 1509.32617188 479.034179688 1509 466 c 0
 1504 266 1271 -20 840 -20 c 0
 334 -20 170 244 170 600 c 0
 170 1046 594 1520 1100 1520 c 0
 1474 1520 1682 1306 1682 1102 c 0
 1682 946 1572 870 1454 870 c 0
 1320 870 1240 952 1240 1086 c 0
 1240 1208 1324 1207 1324 1243 c 0
 1324 1277 1268 1304 1160 1304 c 4
EndSplineSet
Refer: 94 61 N 1 0 0 1 -69.9994 -30 2
EndChar

StartChar: partialdiff
Encoding: 8706 8706 193
GlifName: partialdiff
Width: 1330
VWidth: 2310
Flags: MW
LayerCount: 2
Fore
SplineSet
429 470 m 4
 388 292 442 210 560 210 c 4
 688 210 780 302 816 460 c 4
 853 620 785 722 679 722 c 4
 571 722 472 658 429 470 c 4
667 1312 m 0
 661 1286 701 1248 684 1176 c 0
 658 1062 551 990 417 990 c 0
 278 990 221 1086 252 1222 c 0
 290 1386 509 1520 813 1520 c 0
 1185 1520 1392 1220 1281 740 c 0
 1149 170 829 -20 507 -20 c 0
 205 -20 -50 130 35 500 c 0
 107 810 358 960 580 960 c 0
 710 960 813 914 867 842 c 0
 882 822 883 806 893 811 c 0
 901 815 899 829 905 864 c 0
 962 1197 885 1366 767 1366 c 0
 699 1366 673 1338 667 1312 c 0
EndSplineSet
EndChar

StartChar: emptyset
Encoding: 8709 8709 194
GlifName: emptyset
Width: 1140
VWidth: 2309
Flags: MW
LayerCount: 2
Fore
SplineSet
18 341 m 1
 989 1312 l 1
 1132 1179 l 5
 161 208 l 5
 18 341 l 1
292 770 m 0
 292 622 388 483 571 483 c 0
 754 483 848 622 848 770 c 0
 848 918 754 1057 571 1057 c 0
 388 1057 292 918 292 770 c 0
62 770 m 0
 62 1020 239 1279 571 1279 c 0
 903 1279 1078 1020 1078 770 c 0
 1078 520 903 260 571 260 c 0
 239 260 62 520 62 770 c 0
EndSplineSet
EndChar

StartChar: product
Encoding: 8719 8719 195
GlifName: product
Width: 2020
Flags: MW
LayerCount: 2
Fore
SplineSet
874 1188 m 2
 676 329 l 2
 666 285 663 270 707 270 c 2
 779 270 l 6
 819 270 853 267 853 228 c 2
 853 65 l 2
 839 6 812 0 758 0 c 2
 23 0 l 2
 -35 0 -42 6 -42 67 c 2
 -42 206 l 2
 -42 251 -26 270 19 270 c 2
 127 270 l 2
 176 270 193 271 204 320 c 2
 403 1184 l 2
 412 1225 403 1230 360 1230 c 2
 269 1230 l 2
 217 1230 208 1235 208 1290 c 2
 208 1444 l 2
 208 1493 226 1500 271 1500 c 2
 2066 1500 l 2
 2104 1500 2125 1493 2125 1451 c 2
 2125 1278 l 2
 2125 1239 2106 1230 2064 1230 c 2
 1935 1230 l 2
 1897 1230 1891 1218 1882 1179 c 2
 1684 320 l 2
 1675 282 1673 270 1711 270 c 2
 1821 270 l 2
 1866 270 1879 260 1879 213 c 2
 1879 81 l 2
 1879 8 1851 0 1780 0 c 2
 1066 0 l 2
 1007 0 992 7 992 70 c 2
 992 225 l 2
 992 263 1015 270 1051 270 c 2
 1140 270 l 2
 1187 270 1202 271 1213 318 c 2
 1416 1196 l 2
 1423 1228 1412 1230 1379 1230 c 2
 927 1230 l 2
 891 1230 883 1225 874 1188 c 2
EndSplineSet
EndChar

StartChar: summation
Encoding: 8721 8721 196
GlifName: summation
Width: 1449
Flags: MW
LayerCount: 2
Fore
SplineSet
316 1500 m 1
 1520 1500 l 1
 1403 990 l 1
 1189 990 l 1
 1238 1204 1232 1287 998 1287 c 2
 767 1287 l 1
 994 813 l 1
 385 213 l 1
 729 213 l 2
 1002 213 1048 296 1107 550 c 1
 1320 550 l 1
 1193 0 l 1
 -120 0 l 1
 611 730 l 1
 290 1387 l 1
 316 1500 l 1
EndSplineSet
EndChar

StartChar: minus
Encoding: 8722 8722 197
GlifName: minus
Width: 1224
Flags: HMW
LayerCount: 2
Fore
SplineSet
200.24609375 890 m 6
 1106.45019531 890 l 6
 1139.74511719 890 1144.08789062 886 1144.08789062 862 c 6
 1144.08789062 693 l 2
 1144.08789062 669 1141.19238281 660 1103.5546875 660 c 2
 197.350585938 660 l 2
 161.161132812 660 159.712890625 664 159.712890625 690 c 2
 159.712890625 862 l 6
 159.712890625 885 169.846679688 890 200.24609375 890 c 6
EndSplineSet
EndChar

StartChar: uni2219
Encoding: 8729 8729 199
GlifName: uni2219
Width: 610
Flags: HMW
LayerCount: 2
Fore
SplineSet
125 870 m 0
 125 1002 233 1110 365 1110 c 0
 497 1110 605 1002 605 870 c 0
 605 738 497 630 365 630 c 0
 233 630 125 738 125 870 c 0
EndSplineSet
EndChar

StartChar: radical
Encoding: 8730 8730 200
GlifName: radical
Width: 1180
Flags: MW
LayerCount: 2
Fore
SplineSet
1184 1290 m 1
 572 -20 l 1
 284 -20 l 1
 181 381 l 1
 56 323 l 1
 6 500 l 1
 461 730 l 1
 552 330 l 1
 1095 1500 l 1
 1386 1500 l 1
 1338 1290 l 1
 1184 1290 l 1
EndSplineSet
EndChar

StartChar: infinity
Encoding: 8734 8734 201
GlifName: infinity
Width: 1913
VWidth: 2309
Flags: MW
LayerCount: 2
Fore
SplineSet
1622 780 m 0
 1622 928 1547 997 1414 997 c 0
 1286.87109375 997 1196.33984375 945.045898438 1101 825.452148438 c 0
 1073.51367188 790.973632812 1061.63085938 784.893554688 1090 748.450195312 c 0
 1187.11132812 623.701171875 1282.04003906 563 1414 563 c 0
 1547 563 1622 642 1622 780 c 0
1863 780 m 4
 1863 490 1676 351 1434 351 c 0
 1278.63964844 351 1111.40234375 457.727539062 996 594.221679688 c 0
 955.90625 641.64453125 960.427734375 646.012695312 920 597.78515625 c 0
 804.155273438 459.58984375 635.709960938 351 479 351 c 0
 237 351 50 500 50 780 c 4
 50 1070 237 1209 479 1209 c 0
 641.1015625 1209 812.859375 1094.16113281 931 948.684570312 c 0
 956.291992188 917.541015625 954.231445312 914.291015625 979.826171875 946 c 0
 1098.27539062 1092.74511719 1270.90332031 1209 1434 1209 c 0
 1676 1209 1863 1070 1863 780 c 4
816.059570312 820 m 0
 718.153320312 941.930664062 618.056640625 997 489 997 c 0
 366 997 291 908 291 780 c 0
 291 642 366 563 489 563 c 0
 619.388671875 563 721.462890625 621.081054688 819.303710938 744 c 0
 848.3046875 780.434570312 844.661132812 784.380859375 816.059570312 820 c 0
EndSplineSet
EndChar

StartChar: integral
Encoding: 8747 8747 202
GlifName: integral
Width: 920
VWidth: 2310
Flags: MW
LayerCount: 2
Fore
SplineSet
210 1144 m 6
 210 1366 404 1600 804 1600 c 0
 1126 1600 1270 1462 1270 1308 c 0
 1270 1148 1160 1086 1036 1086 c 0
 892 1086 796 1162 796 1272 c 0
 796 1366 868 1388 868 1410 c 0
 868 1424 840 1426 820 1426 c 0
 740 1426 630 1354 630 1100 c 2
 630 -63 l 2
 630 -285 436 -519 36 -519 c 0
 -286 -519 -430 -381 -430 -227 c 0
 -430 -67 -320 -5 -196 -5 c 0
 -52 -5 44 -81 44 -191 c 0
 44 -285 -28 -307 -28 -329 c 0
 -28 -343 0 -345 20 -345 c 0
 100 -345 210 -273 210 -19 c 2
 210 1144 l 6
EndSplineSet
EndChar

StartChar: approxequal
Encoding: 8776 8776 203
GlifName: approxequal
Width: 1200
VWidth: 0
Flags: MW
LayerCount: 2
Fore
SplineSet
832 674 m 4
 691 674 617 767 575 835 c 4
 544 885 490 901 455 901 c 4
 370 901 341 867 329 817 c 4
 326 806 325 792 325 778 c 6
 325 778 326 771 325 767 c 4
 319 727 277 692 237 692 c 6
 154 692 l 6
 124 692 101 713 99 743 c 4
 90 905 207 1066 378 1111 c 4
 410 1119 443 1124 476 1124 c 4
 625 1124 698 1028 739 964 c 4
 774 909 824 897 854 897 c 4
 918 897 940 920 951 970 c 4
 954 984 956 1000 955 1018 c 4
 955 1021 955 1027 956 1031 c 4
 962 1071 1003 1106 1043 1106 c 6
 1126 1106 l 6
 1155 1106 1182 1084 1182 1052 c 4
 1184 882 1060 718 897 681 c 4
 876 676 854 674 832 674 c 4
718 174 m 0
 577 174 492 267 450 335 c 0
 419 385 375 401 340 401 c 0
 255 401 227 367 215 317 c 0
 212 306 211 292 211 278 c 2
 211 278 211 271 210 267 c 0
 204 227 163 192 123 192 c 2
 40 192 l 2
 10 192 -14 213 -16 243 c 0
 -25 405 92 566 263 611 c 0
 295 619 328 624 361 624 c 0
 510 624 583 528 624 464 c 0
 659 409 709 397 739 397 c 0
 803 397 825 420 836 470 c 0
 839 484 841 500 840 518 c 0
 840 521 840 527 841 531 c 0
 847 571 888 606 928 606 c 2
 1011 606 l 2
 1040 606 1067 584 1067 552 c 0
 1069 382 945 218 782 181 c 0
 761 176 740 174 718 174 c 0
EndSplineSet
EndChar

StartChar: notequal
Encoding: 8800 8800 204
GlifName: notequal
Width: 1119
Flags: HMW
LayerCount: 2
Fore
SplineSet
155.971679688 397.1875 m 6
 942.490234375 1260.39257812 l 6
 971.387695312 1292.10742188 977.522460938 1294.08886719 991.71484375 1281.15722656 c 6
 1091.65136719 1190.09863281 l 2
 1105.84375 1177.16699219 1108.65332031 1169.56054688 1075.98632812 1133.70800781 c 2
 289.466796875 270.50390625 l 2
 258.057617188 236.03125 254.434570312 236.806640625 239.060546875 250.81640625 c 2
 137.349609375 343.491210938 l 6
 123.748046875 355.883789062 129.586914062 368.23046875 155.971679688 397.1875 c 6
146.529296875 690 m 6
 956.6484375 690 l 6
 986.4140625 690 990.295898438 686 990.295898438 662 c 6
 990.295898438 493 l 2
 990.295898438 469 987.708007812 460 954.060546875 460 c 2
 143.94140625 460 l 2
 111.588867188 460 110.293945312 464 110.293945312 490 c 2
 110.293945312 662 l 6
 110.293945312 685 119.353515625 690 146.529296875 690 c 6
226.529296875 1090 m 6
 1036.6484375 1090 l 6
 1066.4140625 1090 1070.29589844 1086 1070.29589844 1062 c 6
 1070.29589844 893 l 2
 1070.29589844 869 1067.70800781 860 1034.06054688 860 c 2
 223.94140625 860 l 2
 191.588867188 860 190.293945312 864 190.293945312 890 c 2
 190.293945312 1062 l 6
 190.293945312 1085 199.353515625 1090 226.529296875 1090 c 6
EndSplineSet
EndChar

StartChar: lessequal
Encoding: 8804 8804 205
GlifName: lessequal
Width: 1119
Flags: HMW
LayerCount: 2
Fore
SplineSet
41.6591796875 230 m 6
 852.19140625 230 l 6
 881.971679688 230 885.85546875 226 885.85546875 202 c 6
 885.85546875 33 l 2
 885.85546875 9 883.266601562 0 849.6015625 0 c 2
 39.0693359375 0 l 2
 6.701171875 0 5.4052734375 4 5.4052734375 30 c 2
 5.4052734375 202 l 6
 5.4052734375 225 14.4697265625 230 41.6591796875 230 c 6
468 748 m 2
 920 575 l 2
 949 564 960 553 960 511 c 2
 960 393 l 2
 960 335 953 333 914 348 c 2
 194 642 l 2
 161 655 150 672 150 720 c 2
 150 830 l 2
 150 890 165 896 206 912 c 2
 1050 1246 l 6
 1090 1262 1110 1265 1110 1199 c 6
 1110 1112 l 6
 1110 1055 1102 1037 1062 1022 c 6
 468 802 l 2
 433 789 412 788 412 776 c 0
 412 759 429 763 468 748 c 2
EndSplineSet
EndChar

StartChar: greaterequal
Encoding: 8805 8805 206
GlifName: greaterequal
Width: 1119
Flags: HMW
LayerCount: 2
Fore
SplineSet
41.6591796875 230 m 6
 852.19140625 230 l 6
 881.971679688 230 885.85546875 226 885.85546875 202 c 6
 885.85546875 33 l 2
 885.85546875 9 883.266601562 0 849.6015625 0 c 2
 39.0693359375 0 l 2
 6.701171875 0 5.4052734375 4 5.4052734375 30 c 2
 5.4052734375 202 l 6
 5.4052734375 225 14.4697265625 230 41.6591796875 230 c 6
712 802 m 2
 260 975 l 2
 231 986 220 997 220 1039 c 2
 220 1157 l 2
 220 1215 227 1217 266 1202 c 2
 986 908 l 2
 1019 895 1030 878 1030 830 c 2
 1030 720 l 2
 1030 660 1015 654 974 638 c 2
 130 304 l 6
 90 288 70 285 70 351 c 6
 70 438 l 6
 70 495 78 513 118 528 c 6
 712 748 l 2
 747 761 768 762 768 774 c 0
 768 791 751 787 712 802 c 2
EndSplineSet
EndChar

StartChar: lozenge
Encoding: 9674 9674 207
GlifName: lozenge
Width: 1200
VWidth: 0
Flags: MW
LayerCount: 2
Fore
SplineSet
561 430 m 1
 454 692 l 1
 706 972 l 1
 792 732 l 1
 561 430 l 1
479 30 m 1
 1024 712 l 1
 793 1392 l 1
 224 712 l 1
 479 30 l 1
EndSplineSet
EndChar

StartChar: uniF8E8
Encoding: 63720 63720 208
GlifName: uniF_8E_8
Width: 1125
Flags: HMW
LayerCount: 2
Fore
SplineSet
588.599609375 723.799804688 m 4
 818.400390625 723.799804688 1032 889.400390625 1087.79980469 1130 c 4
 1143.59960938 1370.59960938 1004.40039062 1536.20019531 775.799804688 1536.20019531 c 4
 546 1536.20019531 332.400390625 1370.59960938 276.599609375 1130 c 4
 220.799804688 888.200195312 360 723.799804688 588.599609375 723.799804688 c 4
789 1592 m 0
 1055.40039062 1592 1206 1395.20019531 1144.79980469 1130 c 0
 1083 863.599609375 840.599609375 668 575.400390625 668 c 0
 309 668 159 864.799804688 220.200195312 1130 c 0
 281.400390625 1395.79980469 523.799804688 1592 789 1592 c 0
964.3203125 940.219726562 m 4
 926.735351562 895.18359375 865.82421875 880.280273438 821.111328125 880.280273438 c 4
 760.200195312 880.280273438 717.431640625 904.255859375 717.431640625 952.85546875 c 4
 717.431640625 985.255859375 725.85546875 1008.58398438 725.85546875 1034.50390625 c 4
 725.85546875 1050.70410156 712.896484375 1087.640625 659.111328125 1087.640625 c 6
 635.135742188 1087.640625 l 6
 620.879882812 1087.640625 618.288085938 1085.04785156 615.696289062 1073.05957031 c 6
 599.171875 994.65234375 l 6
 596.580078125 982.016601562 594.959960938 977.479492188 611.807617188 977.479492188 c 6
 643.559570312 977.479492188 l 6
 656.520507812 977.479492188 659.759765625 977.15625 659.759765625 964.196289062 c 6
 659.759765625 907.8203125 l 6
 659.759765625 891.620117188 657.81640625 890 642.264648438 890 c 6
 382.740234375 890 l 6
 370.103515625 890 368.16015625 892.268554688 368.16015625 904.580078125 c 6
 368.16015625 962.900390625 l 6
 368.16015625 975.536132812 369.780273438 977.479492188 383.064453125 977.479492188 c 6
 426.479492188 977.479492188 l 6
 442.6796875 977.479492188 440.735351562 981.368164062 443.328125 994.00390625 c 6
 502.620117188 1271.34765625 l 6
 505.859375 1286.57617188 505.211914062 1288.52050781 487.392578125 1288.52050781 c 6
 456.288085938 1288.52050781 l 6
 441.708007812 1288.52050781 439.440429688 1289.4921875 439.440429688 1303.74804688 c 6
 439.440429688 1363.36425781 l 6
 439.440429688 1375.67578125 442.35546875 1376 454.9921875 1376 c 6
 749.83203125 1376 l 6
 867.120117188 1376 944.231445312 1350.08007812 944.231445312 1265.83984375 c 4
 944.231445312 1204.60351562 897.900390625 1168.31640625 832.776367188 1147.25585938 c 4
 813.01171875 1141.09960938 802.64453125 1140.45214844 802.64453125 1135.26855469 c 4
 802.64453125 1130.40820312 812.364257812 1129.43554688 832.776367188 1122.30761719 c 4
 864.204101562 1111.29199219 883.3203125 1092.5 883.3203125 1049.40820312 c 4
 883.3203125 1019.59960938 869.064453125 1008.58398438 869.064453125 994.328125 c 4
 869.064453125 987.200195312 874.896484375 982.016601562 882.024414062 982.016601562 c 4
 890.772460938 982.016601562 900.16796875 984.284179688 915.719726562 1000.48339844 c 4
 924.14453125 1009.23144531 923.8203125 1010.20410156 932.892578125 1000.48339844 c 6
 966.587890625 964.84375 l 6
 976.631835938 954.15234375 973.715820312 951.559570312 964.3203125 940.219726562 c 4
657.81640625 1178.359375 m 6
 704.471679688 1178.359375 l 6
 753.719726562 1178.359375 788.711914062 1211.40820312 788.711914062 1250.28808594 c 4
 788.711914062 1272.96777344 766.6796875 1288.52050781 736.872070312 1288.52050781 c 6
 681.14453125 1288.52050781 l 6
 664.620117188 1288.52050781 661.379882812 1286.57617188 658.463867188 1272.64453125 c 6
 641.940429688 1195.53222656 l 6
 638.700195312 1180.62792969 639.024414062 1178.359375 657.81640625 1178.359375 c 6
EndSplineSet
EndChar

StartChar: uniF8E9
Encoding: 63721 63721 209
GlifName: uniF_8E_9
Width: 1125
Flags: HMW
LayerCount: 2
Fore
SplineSet
598.599609375 723.799804688 m 4
 828.400390625 723.799804688 1042 889.400390625 1097.79980469 1130 c 4
 1153.59960938 1370.59960938 1014.40039062 1536.20019531 785.799804688 1536.20019531 c 4
 556 1536.20019531 342.400390625 1370.59960938 286.599609375 1130 c 4
 230.799804688 888.200195312 370 723.799804688 598.599609375 723.799804688 c 4
799 1592 m 0
 1065.40039062 1592 1216 1395.20019531 1154.79980469 1130 c 0
 1093 863.599609375 850.599609375 668 585.400390625 668 c 0
 319 668 169 864.799804688 230.200195312 1130 c 0
 291.400390625 1395.79980469 533.799804688 1592 799 1592 c 0
946.479492188 1032.97265625 m 0
 910.876953125 937.420898438 800.818359375 839.599609375 634 839.599609375 c 0
 487.83984375 839.599609375 382 911.599609375 382 1077.20019531 c 0
 382 1257.91992188 520.240234375 1408.40039062 727.599609375 1408.40039062 c 0
 784.23046875 1408.40039062 824.75 1392.90039062 852.879882812 1369.61425781 c 0
 865.630859375 1359.05957031 866.295898438 1349.86230469 879.520507812 1362.45703125 c 2
 897.520507812 1379.59960938 l 2
 906.219726562 1387.88574219 908.427734375 1394 926.3203125 1394 c 2
 994 1394 l 2
 1009.69921875 1394 1009.19921875 1391.90332031 1006.69238281 1378.52050781 c 2
 970.731445312 1185.20019531 l 2
 968.30859375 1172.265625 967.075195312 1167.20019531 950.799804688 1167.20019531 c 2
 887.440429688 1167.20019531 l 2
 872.491210938 1167.20019531 870.706054688 1168.17285156 871.686523438 1180.87988281 c 0
 878.650390625 1271.24902344 818.4375 1317.6796875 747.759765625 1317.6796875 c 0
 639.040039062 1317.6796875 565.599609375 1206.79980469 565.599609375 1080.79980469 c 0
 565.599609375 978.559570312 612.400390625 946.16015625 672.879882812 946.16015625 c 4
 734.578125 946.16015625 795.127929688 980.580078125 832 1037.64355469 c 0
 839.736328125 1049.61523438 842.125976562 1059.20019531 862.959960938 1059.20019531 c 2
 921.280273438 1059.20019531 l 2
 951.140625 1059.20019531 954.81640625 1055.34472656 946.479492188 1032.97265625 c 0
EndSplineSet
EndChar

StartChar: uniF8EA
Encoding: 63722 63722 210
GlifName: uniF_8E_A_
Width: 1626
Flags: HMW
LayerCount: 2
Fore
SplineSet
306.3203125 995.879882812 m 2
 306.3203125 1054.91992188 l 2
 306.3203125 1071.94824219 309.731445312 1072.20019531 326.83984375 1072.20019531 c 2
 383.719726562 1072.20019531 l 2
 406.1171875 1072.20019531 404.302734375 1075.86816406 408.129882812 1093.79980469 c 2
 477.1953125 1417.44042969 l 2
 477.904296875 1420.76464844 473.31640625 1421.40039062 469.040039062 1421.40039062 c 2
 468.3203125 1421.40039062 l 2
 402.440429688 1421.40039062 377.227539062 1393.70703125 352.286132812 1315.20019531 c 0
 346.379882812 1296.61035156 344.540039062 1291.79980469 322.16015625 1291.79980469 c 2
 286.879882812 1291.79980469 l 2
 259.609375 1291.79980469 259.271484375 1293.82910156 264.234375 1315.20019531 c 2
 306.125 1495.55957031 l 2
 310.08984375 1512.63085938 312.671875 1515 334.400390625 1515 c 2
 827.599609375 1515 l 2
 855.1171875 1515 858.807617188 1513.02050781 852.319335938 1485.83984375 c 2
 810.296875 1309.79980469 l 2
 807.143554688 1296.59082031 805.63671875 1291.79980469 788.360351562 1291.79980469 c 2
 741.559570312 1291.79980469 l 2
 713.787109375 1291.79980469 718.009765625 1298.52636719 721.8046875 1318.44042969 c 0
 736.60546875 1396.11425781 719.356445312 1421.40039062 656.240234375 1421.40039062 c 2
 644.719726562 1421.40039062 l 2
 634.68359375 1421.40039062 634.091796875 1415.23046875 632.412109375 1407.36035156 c 2
 567.912109375 1100.28027344 l 2
 563.630859375 1080.21484375 558.967773438 1072.20019531 586.040039062 1072.20019531 c 2
 632.120117188 1072.20019531 l 2
 650.223632812 1072.20019531 651.919921875 1070.04882812 651.919921875 1051.3203125 c 2
 651.919921875 1001.28027344 l 2
 651.919921875 976.654296875 649.586914062 975 625.639648438 975 c 2
 327.559570312 975 l 2
 308.91796875 975 306.3203125 976.51171875 306.3203125 995.879882812 c 2
1387.08007812 1281.36035156 m 2
 1220.75976562 984 l 2
 1213.91992188 971.759765625 1214.28027344 967.799804688 1193.75976562 967.799804688 c 2
 1135.44042969 967.799804688 l 2
 1112.04003906 967.799804688 1111.6796875 968.16015625 1108.44042969 988.3203125 c 2
 1064.51953125 1270.55957031 l 2
 1058.75976562 1308.71972656 1061.22558594 1336.44042969 1054.08007812 1336.44042969 c 4
 1046.87988281 1336.44042969 1044.71972656 1311.24023438 1035.36035156 1273.44042969 c 2
 990 1089.12011719 l 2
 986.040039062 1072.91992188 988.200195312 1072.20019531 1008.71972656 1072.20019531 c 2
 1046.87988281 1072.20019531 l 2
 1061.28027344 1072.20019531 1062 1069.3203125 1062 1054.55957031 c 2
 1062 992.639648438 l 2
 1062 976.799804688 1059.83984375 975 1043.28027344 975 c 2
 826.559570312 975 l 2
 806.400390625 975 802.799804688 975.360351562 802.799804688 995.51953125 c 2
 802.799804688 1058.51953125 l 2
 802.799804688 1069.6796875 804.959960938 1072.20019531 815.759765625 1072.20019531 c 2
 865.440429688 1072.20019531 l 2
 889.559570312 1072.20019531 888.120117188 1075.44042969 892.799804688 1094.16015625 c 2
 969.120117188 1395.12011719 l 2
 974.16015625 1414.55957031 974.879882812 1417.79980469 948.959960938 1417.79980469 c 2
 923.040039062 1417.79980469 l 2
 903.599609375 1417.79980469 901.440429688 1419.59960938 901.440429688 1438.3203125 c 2
 901.440429688 1498.79980469 l 2
 901.440429688 1515 907.200195312 1515 922.3203125 1515 c 2
 1180.08007812 1515 l 2
 1204.91992188 1515 1207.08007812 1512.83984375 1210.6796875 1490.87988281 c 2
 1245.95996094 1278.48046875 l 2
 1251.71972656 1243.20019531 1252.08007812 1222.6796875 1257.12011719 1222.6796875 c 0
 1263.24023438 1222.6796875 1275.12011719 1250.04003906 1290.59960938 1277.04003906 c 2
 1416.95996094 1495.20019531 l 2
 1425.95996094 1511.04003906 1429.91992188 1515 1455.83984375 1515 c 2
 1674 1515 l 2
 1688.04003906 1515 1690.55957031 1513.91992188 1690.55957031 1500.24023438 c 2
 1690.55957031 1442.63964844 l 2
 1690.55957031 1420.6796875 1689.48046875 1417.79980469 1667.51953125 1417.79980469 c 2
 1612.08007812 1417.79980469 l 2
 1596.24023438 1417.79980469 1595.87988281 1417.44042969 1593.71972656 1403.75976562 c 2
 1543.3203125 1094.16015625 l 2
 1540.08007812 1074.71972656 1541.51953125 1072.20019531 1563.83984375 1072.20019531 c 2
 1606.3203125 1072.20019531 l 2
 1621.79980469 1072.20019531 1624.3203125 1071.12011719 1624.3203125 1056 c 2
 1624.3203125 995.51953125 l 2
 1624.3203125 976.080078125 1620.71972656 975 1602 975 c 2
 1332 975 l 2
 1311.48046875 975 1307.51953125 975.719726562 1307.51953125 996.959960938 c 2
 1307.51953125 1050.24023438 l 2
 1307.51953125 1070.40039062 1309.6796875 1072.20019531 1329.12011719 1072.20019531 c 2
 1349.28027344 1072.20019531 l 2
 1377.36035156 1072.20019531 1375.91992188 1075.08007812 1379.87988281 1098.48046875 c 2
 1409.75976562 1277.75976562 l 2
 1415.51953125 1311.24023438 1434.24023438 1335 1422.36035156 1335 c 0
 1415.19628906 1335 1402.91992188 1309.79980469 1387.08007812 1281.36035156 c 2
EndSplineSet
EndChar

StartChar: uniFB00
Encoding: 64256 64256 211
GlifName: uniF_B_00
Width: 1820
VWidth: 2310
Flags: MW
LayerCount: 2
Fore
SplineSet
1114 1060 m 0
 1115 1062 1115 1064 1115 1066 c 0
 1114 1081 1097 1075 1078 1078 c 0
 993 1089 924 1124 924 1220 c 0
 924 1312 980 1316 980 1340 c 0
 980 1352 962 1360 938 1360 c 0
 866 1360 763 1306 699 1108 c 0
 683 1059 665 1040 736 1040 c 2
 1064 1040 l 2
 1094 1040 1102.15939191 1036.31878382 1114 1060 c 0
992 830 m 2
 700 830 l 2
 647 830 640 834 631 788 c 2
 435 -224 l 2
 420 -300 417 -300 326 -300 c 2
 78 -300 l 2
 -19 -300 4 -279 19 -204 c 2
 204 748 l 2
 215 804 240 830 164 830 c 2
 92 830 l 2
 39 830 50 847 50 896 c 2
 50 996 l 2
 50 1043 54 1040 100 1040 c 2
 212 1040 l 2
 262 1040 262 1042 270 1084 c 0
 354 1446 644 1540 944 1540 c 0
 1064 1540 1171 1515 1253 1472 c 0
 1292 1451 1292 1441 1327 1468 c 0
 1456 1567 1628 1600 1804 1600 c 0
 2066 1600 2270 1482 2270 1308 c 0
 2270 1162 2142 1074 2014 1074 c 0
 1898 1074 1784 1136 1784 1260 c 0
 1784 1352 1840 1376 1840 1400 c 0
 1840 1412 1822 1420 1798 1420 c 0
 1718 1420 1590 1356 1540 1100 c 0
 1529 1045 1522 1040 1590 1040 c 2
 1736 1040 l 2
 1783 1040 1790 1045 1790 996 c 2
 1790 898 l 2
 1790 848 1802 830 1748 830 c 2
 1566 830 l 2
 1481 830 1486 821 1473 752 c 2
 1301 -132 l 2
 1288 -197 1288 -200 1210 -200 c 2
 938 -200 l 2
 869 -200 868 -202 879 -144 c 2
 1052 744 l 2
 1066 816 1083 830 992 830 c 2
EndSplineSet
Ligature2: "'liga' Standard Ligatures lookup 0 subtable" f f
EndChar

StartChar: uniFB01
Encoding: 64257 64257 212
GlifName: uniF_B_01
Width: 1712
VWidth: 2310
Flags: MW
LayerCount: 2
Fore
SplineSet
25 -176 m 6
 209 740 l 2
 220 796 250 830 172 830 c 2
 112 830 l 2
 55 830 50 825 50 884 c 2
 50 996 l 2
 50 1045 56 1040 104 1040 c 2
 180 1040 l 2
 284 1040 273 1061 290 1144 c 0
 364 1508 684 1600 984 1600 c 0
 1246 1600 1470 1542 1470 1328 c 0
 1470 1182 1342 1114 1214 1114 c 0
 1098 1114 984 1156 984 1280 c 0
 984 1372 1040 1376 1040 1400 c 0
 1040 1412 1022 1420 998 1420 c 0
 918 1420 760 1354 700 1100 c 1
 686 1030 700 1040 780 1040 c 2
 1428 1040 l 2
 1498 1040 1496 1040 1482 984 c 2
 1308 302 l 2
 1305 290 1302 272 1302 262 c 0
 1302 240 1310 234 1330 234 c 0
 1368 234 1411 273 1459 360 c 0
 1483 404 1479 427 1532 402 c 2
 1620 361 l 2
 1678 333 1670 325 1640 269 c 0
 1534 69 1364 -50 1146 -50 c 0
 982 -50 880 34 880 154 c 0
 880 192 893 249 900 280 c 2
 1002 736 l 2
 1017 804 1045 830 952 830 c 2
 728 830 l 2
 635 830 643 815 628 740 c 2
 436 -220 l 2
 420 -301 414 -300 316 -300 c 2
 96 -300 l 2
 -26 -300 6 -269 25 -176 c 6
EndSplineSet
Ligature2: "'liga' Standard Ligatures lookup 0 subtable" f i
EndChar

StartChar: uniFB02
Encoding: 64258 64258 213
GlifName: uniF_B_02
Width: 1770
VWidth: 2310
Flags: MW
LayerCount: 2
Fore
SplineSet
1648 1520 m 2
 1366 302 l 2
 1363 290 1360 272 1360 262 c 0
 1360 240 1368 234 1388 234 c 0
 1427 234 1472 276 1521 368 c 0
 1542 407 1539 426 1584 405 c 2
 1682 359 l 2
 1731 336 1731 333 1706 284 c 0
 1601 75 1428 -50 1204 -50 c 0
 1040 -50 940 28 940 148 c 0
 940 186 949 241 958 280 c 2
 1135 1070 l 2
 1144 1110 1150 1112 1104 1117 c 0
 1016 1127 944 1161 944 1260 c 0
 944 1352 1000 1376 1000 1400 c 0
 1000 1412 982 1420 958 1420 c 0
 878 1420 741 1324 700 1100 c 0
 694.121605006 1067.88389077 687 1040 760 1040 c 2
 900 1040 l 2
 949 1040 950 1041 950 992 c 2
 950 878 l 2
 950 827 946 830 896 830 c 2
 706 830 l 2
 652 830 646 832 637 786 c 2
 442 -192 l 2
 424 -283 432 -300 320 -300 c 2
 84 -300 l 2
 -2 -300 0 -300 14 -228 c 2
 219 788 l 2
 229 840 213 830 156 830 c 2
 116 830 l 2
 50 830 50 830 50 896 c 2
 50 980 l 2
 50 1033 45 1040 100 1040 c 2
 224 1040 l 2
 280 1040 272 1056 281 1100 c 2
 290 1144 l 2
 364 1508 664 1600 964 1600 c 0
 1102 1600 1224 1567 1308 1511 c 0
 1384 1460 1375 1450 1464 1496 c 2
 1598 1565 l 2
 1651 1592 1662 1582 1648 1520 c 2
EndSplineSet
Ligature2: "'liga' Standard Ligatures lookup 0 subtable" f l
EndChar

StartChar: uniFB03
Encoding: 64259 64259 214
GlifName: uniF_B_03
Width: 2552
VWidth: 2310
Flags: MW
LayerCount: 2
Fore
SplineSet
717 1156 m 4
 692 1097 647 1040 752 1040 c 2
 1052 1040 l 2
 1085.40162609 1040 1104.63510643 1032.95273506 1111 1055.41346273 c 2
 1114 1066 l 2
 1125.42388351 1106.31312285 1102 1096 1066 1104 c 0
 996 1119 944 1156 944 1240 c 0
 944 1332 1000 1336 1000 1360 c 0
 1000 1372 982 1380 958 1380 c 0
 892 1380 786 1321 717 1156 c 4
2310 1328 m 0
 2310 1182 2182 1114 2054 1114 c 0
 1938 1114 1824 1156 1824 1280 c 0
 1824 1372 1880 1376 1880 1400 c 0
 1880 1412 1862 1420 1838 1420 c 0
 1758 1420 1600 1354 1540 1100 c 0
 1529 1046 1520 1040 1588 1040 c 2
 2246 1040 l 2
 2330 1040 2338 1047 2320 976 c 2
 2148 302 l 2
 2145 290 2142 272 2142 262 c 0
 2142 240 2150 234 2170 234 c 0
 2207 234 2250 272 2296 354 c 0
 2327 409 2322 426 2386 396 c 2
 2460 361 l 2
 2525 330 2504 311 2471 252 c 0
 2365 62 2198 -50 1986 -50 c 0
 1822 -50 1720 34 1720 154 c 0
 1720 192 1733 249 1740 280 c 2
 1841 732 l 2
 1857 805 1885 830 1786 830 c 2
 1552 830 l 2
 1486 830 1485 827 1474 772 c 2
 1274 -230 l 2
 1261 -295 1263 -300 1184 -300 c 2
 956 -300 l 2
 818 -300 844 -279 866 -170 c 2
 1046 728 l 2
 1064 816 1083 830 972 830 c 2
 748 830 l 2
 630 830 637 816 618 720 c 2
 441 -194 l 2
 421 -296 419 -300 296 -300 c 2
 104 -300 l 2
 -23 -300 5 -276 24 -178 c 2
 209 772 l 2
 219 824 227 830 162 830 c 2
 104 830 l 2
 54 830 50 826 50 878 c 2
 50 984 l 2
 50 1036 46 1040 100 1040 c 2
 202 1040 l 2
 256 1040 261 1038 270 1084 c 0
 354 1446 664 1540 964 1540 c 0
 1086 1540 1196 1527 1278 1496 c 0
 1342 1472 1340 1478 1398 1509 c 0
 1523 1577 1675 1600 1824 1600 c 0
 2086 1600 2310 1542 2310 1328 c 0
EndSplineSet
Ligature2: "'liga' Standard Ligatures lookup 0 subtable" f f i
EndChar

StartChar: uniFB04
Encoding: 64260 64260 215
GlifName: uniF_B_04
Width: 2610
VWidth: 2310
Flags: MW
LayerCount: 2
Fore
SplineSet
1070 1079 m 4
 989 1091 924 1127 924 1220 c 4
 924 1312 980 1316 980 1340 c 4
 980 1352 962 1360 938 1360 c 4
 867 1360 767 1308 703 1120 c 4
 681 1054 668 1040 760 1040 c 6
 1064 1040 l 6
 1095.38908567 1040 1111.14270858 1047.45691301 1112.32265863 1055.99999971 c 4
 1113.54853854 1064.87562838 1099.04409557 1074.92363571 1070 1079 c 4
724 830 m 2
 630 830 637 817 622 740 c 2
 438 -206 l 2
 421 -296 420 -300 312 -300 c 2
 112 -300 l 2
 -10 -300 2 -293 21 -194 c 2
 209 772 l 2
 219 823 228 830 164 830 c 2
 100 830 l 2
 40 830 50 844 50 900 c 2
 50 976 l 2
 50 1025 40 1040 92 1040 c 2
 212 1040 l 2
 262 1040 262 1042 270 1084 c 0
 354 1446 644 1540 944 1540 c 0
 1032.38279347 1540 1114.27158678 1526.24799968 1183.99999205 1501.57719299 c 0
 1314.49004095 1455.40813522 1291.65647999 1459.86156626 1409.99999138 1520.12367367 c 0
 1525.79761876 1579.0893827 1663.79825057 1600 1804 1600 c 0
 1932 1600 2047 1571 2130 1522 c 0
 2218 1470 2205 1445 2306 1497 c 2
 2438 1565 l 2
 2492 1593 2497 1565 2476 1472 c 2
 2206 302 l 2
 2203 290 2200 272 2200 262 c 0
 2200 240 2208 234 2228 234 c 0
 2266 234 2310 275 2359 364 c 0
 2381 405 2378 427 2426 404 c 2
 2490 374 l 2
 2531 355 2578 351 2556 304 c 0
 2452 83 2275 -50 2044 -50 c 0
 1880 -50 1780 28 1780 148 c 0
 1780 186 1789 241 1798 280 c 2
 1970 1048 l 2
 1984 1110 1991 1109 1924 1120 c 0
 1845 1133 1784 1169 1784 1260 c 0
 1784 1352 1840 1376 1840 1400 c 0
 1840 1412 1822 1420 1798 1420 c 0
 1718 1420 1591 1356 1540 1100 c 0
 1528 1040 1526 1040 1598 1040 c 2
 1718 1040 l 2
 1776 1040 1790 1050 1790 988 c 2
 1790 888 l 2
 1790 824 1782 830 1720 830 c 2
 1542 830 l 2
 1480 830 1484 822 1474 772 c 2
 1280 -198 l 2
 1264 -279 1275 -300 1172 -300 c 2
 948 -300 l 2
 826 -300 842 -288 862 -190 c 2
 1045 720 l 2
 1062 804 1090 830 980 830 c 2
 724 830 l 2
EndSplineSet
Ligature2: "'liga' Standard Ligatures lookup 0 subtable" f f l
EndChar

StartChar: uniFF10
Encoding: 65296 65296 216
GlifName: uniF_F_10
Width: 1400
Flags: HMW
LayerCount: 2
Fore
SplineSet
123.151367188 750 m 0
 253.822265625 1316 514.919921875 1520 880.919921875 1520 c 4
 1246.91992188 1520 1473.82226562 1316 1343.15136719 750 c 0
 1212.47949219 184 941.3828125 -20 595.3828125 -20 c 4
 249.3828125 -20 -7.5205078125 184 123.151367188 750 c 0
543.151367188 750 m 0
 440.645507812 306 475.865234375 190 603.865234375 190 c 0
 741.865234375 190 820.645507812 306 923.151367188 750 c 0
 1025.65625 1194 1000.4375 1310 862.4375 1310 c 0
 734.4375 1310 645.65625 1194 543.151367188 750 c 0
EndSplineSet
EndChar

StartChar: uniFF19
Encoding: 65305 65305 225
GlifName: uniF_F_19
Width: 1400
VWidth: 2310
Flags: HMW
LayerCount: 2
Fore
SplineSet
446 178 m 4
 446 151.31640625 474 134 522 134 c 4
 640 134 795 303 892 636 c 4
 902 671 910 685 904 689 c 4
 896 694 889 678 864 658 c 4
 776 586 651 540 521 540 c 4
 299 540 118 690 190 1000 c 4
 275 1370 560 1520 862 1520 c 4
 1184 1520 1456 1330 1324 760 c 4
 1213 280 858 -20 486 -20 c 4
 202 -20 73 114 73 278 c 4
 73 418 175 510 304 510 c 4
 438 510 525 448 525 354 c 4
 525 250 446 224 446 178 c 4
596 1030 m 4
 553 842 622 778 730 778 c 4
 836 778 952 880 989 1040 c 4
 1025 1198 987 1290 859 1290 c 4
 741 1290 637 1208 596 1030 c 4
EndSplineSet
EndChar

StartChar: t.alt
Encoding: 65536 -1 226
GlifName: t.alt
Width: 950
VWidth: 2310
Flags: MW
LayerCount: 2
Fore
SplineSet
82 1040 m 2
 224 1040 l 2
 233.450968691 1040 258.186523438 1040 258.186523438 1040 c 2
 258.165039062 1040 l 2
 258.165039062 1040 263.469726562 1040.72167969 266 1040.82617188 c 4
 391.405273438 1046.02734375 520.467773438 1185.84375 559 1211.37792969 c 0
 599.112304688 1237.95898438 592.087890625 1236 656 1236 c 0
 704.747070312 1236 723.66796875 1234.39746094 714.6953125 1198 c 2
 683.869140625 1084 l 2
 674.469726562 1047.96582031 673.203794089 1040 718 1040 c 2
 866 1040 l 2
 895.265212659 1040 910 1038.23339844 910 1006 c 2
 910 884 l 2
 910 838.10546875 907.79789572 830 862 830 c 2
 656 830 l 2
 620.336404919 830 615.03515625 820.135742188 607.6953125 792 c 2
 486 324 l 2
 476 286 466 236 514 236 c 0
 559.341501941 236 603.162403439 284.65921416 656.069828789 377.999970869 c 0
 671.654944602 405.495667242 681.487304688 421.41015625 714 404.56640625 c 2
 810 354.65060241 l 2
 847.07335197 335.443926088 846.200351752 331.226014009 830.254684464 290.000025419 c 0
 748.525563219 78.6972458624 566.082128276 -40 340 -40 c 0
 124 -40 30 60 72 252 c 2
 198.539792388 782 l 2
 205.647677996 811.770709288 212.669921875 830 170 830 c 2
 80 830 l 2
 40.7071421962 830 20 831.66796875 20 875 c 2
 20 995 l 2
 20 1038.73730469 42.2195838308 1040 82 1040 c 2
EndSplineSet
EndChar

StartChar: R.alt
Encoding: 65537 -1 227
GlifName: R_.alt
Width: 1810
Flags: MW
LayerCount: 2
Fore
SplineSet
1556 0 m 2
 1324 0 l 2
 1096 0 1008 56 1008 176 c 0
 1008 278 1058 376 1058 480 c 0
 1058 582 984 610 854 610 c 2
 768 610 l 2
 698 610 708 584 697 530 c 2
 654 326 l 2
 644 277 633 270 696 270 c 2
 756 270 l 2
 817 270 840 284 840 218 c 2
 840 102 l 2
 840 24 856 0 772 0 c 2
 40 0 l 2
 -43 0 -60 -13 -60 74 c 2
 -60 222 l 2
 -60 272 -58 270 -8 270 c 2
 96 270 l 2
 178 270 166 294 180 358 c 2
 348 1146 l 2
 362 1209 385 1230 300 1230 c 2
 216 1230 l 2
 146 1230 160 1252 160 1318 c 2
 160 1454 l 2
 160 1520 205 1500 264 1500 c 2
 1118 1500 l 2
 1480 1500 1718 1420 1718 1160 c 0
 1718 963.385813076 1568.92104109 817.375122239 1350.00000985 775.952658077 c 4
 1239.66097261 755.075199252 1233.70678052 737.500052743 1353.99999455 719.742567169 c 0
 1471.44453514 702.405598063 1550 637.132284344 1550 554 c 0
 1550 454 1496 398 1496 338 c 0
 1496 296 1510 270 1556 270 c 2
 1588 270 l 2
 1639 270 1634 264 1634 214 c 2
 1634 90 l 2
 1634 8 1641 0 1556 0 c 2
840 890 m 2
 978 890 l 2
 1130 890 1238 992 1238 1112 c 0
 1238 1182 1170 1230 1078 1230 c 2
 904 1230 l 2
 836 1230 843 1215 832 1162 c 2
 790 966 l 2
 777 905 759 890 840 890 c 2
EndSplineSet
EndChar

StartChar: zero.oldstyle
Encoding: 65538 -1 228
GlifName: zero.oldstyle
Width: 1260
Flags: MW
LayerCount: 2
Fore
SplineSet
470 520 m 4
 414 276 434 180 532 180 c 4
 620 180 694 276 750 520 c 4
 806 764 777 860 689 860 c 4
 591 860 526 764 470 520 c 4
50 520 m 0
 134 886 429 1060 735 1060 c 0
 1051 1060 1254 886 1170 520 c 0
 1086 154 761 -20 485 -20 c 0
 179 -20 -34 154 50 520 c 0
EndSplineSet
Substitution2: "'tnum' Tabular Numbers lookup 2 subtable" zero.oldtab
EndChar

StartChar: one.oldstyle
Encoding: 65539 -1 229
GlifName: one.oldstyle
Width: 1070
VWidth: 2310
Flags: MW
LayerCount: 2
Fore
SplineSet
-60 42 m 2
 -30 174 l 2
 -23 206 -15 210 18 210 c 2
 236 210 l 2
 271 210 279 213 287 247 c 2
 389 687 l 2
 396 719 387 720 354 720 c 2
 160 720 l 2
 135 720 132 726 138 753 c 2
 171 895 l 2
 179 929 189 930 223 930 c 0
 413 931 541 946 680 1146 c 0
 695 1167 704 1180 738 1180 c 2
 840 1180 l 2
 886 1180 891 1175 880 1127 c 2
 675 238 l 2
 669 211 677 210 704 210 c 2
 910 210 l 2
 943 210 947 204 939 170 c 2
 912 52 l 2
 901 6 895 0 850 0 c 2
 -32 0 l 2
 -66 0 -68 7 -60 42 c 2
EndSplineSet
Substitution2: "'tnum' Tabular Numbers lookup 2 subtable" one.oldtab
EndChar

StartChar: two.oldstyle
Encoding: 65540 -1 230
GlifName: two.oldstyle
Width: 1313
VWidth: 2310
Flags: MW
LayerCount: 2
Fore
SplineSet
1191 380 m 0
 1118 104 922 -60 749 -60 c 0
 535 -60 464 60 298 60 c 0
 233 60 176 35 139 -5 c 0
 115 -30 110 -40 65 -40 c 2
 -41 -40 l 2
 -74 -40 -74 -26 -65 3 c 0
 16 275 248 477 547 608 c 0
 682 667 748 742 771 840 c 0
 796 948 735 996 637 996 c 0
 559 996 517 968 511 944 c 0
 505 918 562 888 545 816 c 0
 514 682 386 600 282 600 c 0
 144 600 73 686 100 802 c 0
 147 1006 476 1140 750 1140 c 0
 1062 1140 1242 1050 1200 870 c 0
 1154 669 872 581 523 460 c 0
 346 399 244 309 174 207 c 0
 147 167 133 142 142 139 c 0
 148 137 163 165 197 197 c 0
 282 275 427 394 574 394 c 0
 724 394 758 326 880 326 c 0
 954 326 999 350 1020 387 c 0
 1032 408 1038 414 1064 414 c 2
 1166 414 l 2
 1193 414 1198 408 1191 380 c 0
EndSplineSet
Substitution2: "'tnum' Tabular Numbers lookup 2 subtable" two.oldtab
EndChar

StartChar: three.oldstyle
Encoding: 65541 -1 231
GlifName: three.oldstyle
Width: 1235
VWidth: 2310
Flags: HMW
LayerCount: 2
Fore
SplineSet
-20 -112 m 0
 -20 24 70 130 218 130 c 0
 352 130 422 58 422 -36 c 0
 422 -168 297 -168 297 -214 c 0
 297 -268 394 -296 472 -296 c 0
 620 -296 758 -198 758 10 c 0
 758 146 689 195 556 210 c 0
 518.122070312 214.271484375 504 203 504 247 c 2
 504 378 l 2
 504 417 513 409 547 412 c 0
 731 426 878 595 878 742 c 0
 878 850 780 886 652 886 c 0
 594 886 528 870 528 836 c 0
 528 790 662 800 662 658 c 0
 662 574 582 492 458 492 c 0
 340 492 220 568 220 714 c 0
 220 908 468 1060 782 1060 c 0
 1114 1060 1280 942 1280 752 c 0
 1280 528 1065 408 844 338 c 0
 800 324 770 329 770 315 c 0
 770 298 789 306 844 292 c 0
 1082 229 1150 161 1150 0 c 0
 1150 -300 784 -480 482 -480 c 0
 158 -480 -20 -306 -20 -112 c 0
EndSplineSet
Substitution2: "'tnum' Tabular Numbers lookup 2 subtable" three.oldtab
EndChar

StartChar: four.oldstyle
Encoding: 65542 -1 232
GlifName: four.oldstyle
Width: 1310
VWidth: 2310
Flags: HMW
LayerCount: 2
Fore
SplineSet
1140 -296 m 2
 1140 -424 l 2
 1140 -457 1132 -460 1098 -460 c 2
 366 -460 l 6
 319 -460 310 -459 310 -412 c 6
 310 -295 l 6
 310 -259 317 -250 354 -250 c 6
 533 -250 l 2
 577 -250 578.756835938 -240.275390625 590 -198 c 2
 615 -104 l 2
 628.479492188 -53.3193359375 600 -50 546 -50 c 2
 88 -50 l 2
 45 -50 45 -42 31 -16 c 2
 0 42 l 2
 -12 63 -5 72 6 94 c 0
 163 408 795 588 898 984 c 0
 909 1026 910 1040 966 1040 c 2
 1236 1040 l 2
 1289 1040 1298 1035 1290 988 c 0
 1226 602 577 451 381 232 c 0
 354 202 329 160 407 160 c 2
 632 160 l 2
 667 160 666.8359375 173.723632812 680 204 c 2
 695 250 l 2
 712.02734375 289.162109375 711 294 742 311 c 0
 808 346 947 394 988 480 c 0
 997 500 1003 510 1034 510 c 2
 1100 510 l 2
 1131 510 1147.04882812 507.557617188 1140 478 c 2
 1078 218 l 2
 1070.5 186.549804688 1087 160 1124 160 c 2
 1254 160 l 2
 1286 160 1290 152 1290 122 c 2
 1290 6 l 2
 1290 -40 1290 -50 1244 -50 c 2
 1059 -50 l 2
 1018 -50 1015.77929688 -56.54296875 1005 -98 c 2
 979 -198 l 2
 967.977539062 -240.39453125 984 -250 1031 -250 c 2
 1096 -250 l 2
 1135 -250 1140 -256 1140 -296 c 2
EndSplineSet
Substitution2: "'tnum' Tabular Numbers lookup 2 subtable" four.oldtab
EndChar

StartChar: five.oldstyle
Encoding: 65543 -1 233
GlifName: five.oldstyle
Width: 1300
VWidth: 2310
Flags: HMW
LayerCount: 2
Fore
SplineSet
-5 -142 m 0
 -5 4 95 90 223 90 c 0
 347 90 427 8 427 -76 c 0
 427 -168 353 -208 353 -254 c 0
 353 -298 409 -316 487 -316 c 0
 645 -316 833 -68 833 140 c 0
 833 308 755 352 637 352 c 0
 558 352 446 303 360 195 c 0
 344 174 333 164 294 164 c 2
 230 164 l 2
 176 164 181 182 186 226 c 2
 458 1000 l 2
 470.435546875 1035.38671875 472 1040 514 1040 c 2
 789 1040 l 2
 990 1040 1152 1008 1218 1083 c 0
 1231 1098 1241 1104 1272 1104 c 2
 1377 1104 l 2
 1403 1104 1414 1097 1409 1074 c 2
 1401 1040 l 2
 1365 876 1229 660 755 660 c 2
 530 660 l 2
 492 660 494.50390625 648.955078125 483 618 c 2
 428 470 l 2
 413.78125 434.926757812 388 390 396 386 c 0
 411 377 432 412 464 436 c 0
 540 492 670 540 811 540 c 4
 1113 540 1245 370 1245 140 c 0
 1245 -200 909 -480 527 -480 c 0
 223 -480 -5 -346 -5 -142 c 0
EndSplineSet
Substitution2: "'tnum' Tabular Numbers lookup 2 subtable" five.oldtab
EndChar

StartChar: seven.oldstyle
Encoding: 65544 -1 234
GlifName: seven.oldstyle
Width: 1203
VWidth: 2310
Flags: HMW
LayerCount: 2
Fore
SplineSet
155 522 m 0
 215 857 434 1060 635 1060 c 0
 829 1060 889 940 1055 940 c 0
 1123 940 1156 967 1176 1011 c 0
 1184 1029 1187 1040 1215 1040 c 2
 1344 1040 l 2
 1379 1040 1385 1033 1380 1000 c 0
 1357 845 1056 473 841 266 c 0
 697.766601562 128.096679688 593 52 593 -16 c 0
 593 -102 749 -82 749 -244 c 0
 749 -358 659 -480 511 -480 c 0
 363 -480 259 -406 259 -238 c 0
 259 -60 424.728515625 118.790039062 613 292 c 0
 713 384 861 515 967 640 c 4
 999.73046875 678.596679688 1021 716 1011 726 c 4
 996 741 972 699 943 676 c 4
 896 638 839 606 755 606 c 4
 635 606 585 674 483 674 c 0
 396 674 341 622 331 520 c 0
 329 497 336 486 308 486 c 2
 192 486 l 2
 162 486 150.060546875 494.420898438 155 522 c 0
EndSplineSet
Substitution2: "'tnum' Tabular Numbers lookup 2 subtable" seven.oldtab
EndChar

StartChar: nine.oldstyle
Encoding: 65545 -1 235
GlifName: nine.oldstyle
Width: 1330
VWidth: 2310
Flags: HMW
LayerCount: 2
Fore
SplineSet
411 -282 m 4
 411 -308.68359375 439 -326 487 -326 c 4
 605 -326 760 -157 857 176 c 4
 867 211 875 225 869 229 c 4
 861 234 854 218 829 198 c 4
 741 126 616 80 486 80 c 4
 264 80 83 230 155 540 c 4
 240 910 525 1060 827 1060 c 4
 1149 1060 1421 870 1289 300 c 4
 1178 -180 823 -480 451 -480 c 4
 167 -480 38 -346 38 -182 c 4
 38 -42 140 50 269 50 c 4
 403 50 490 -12 490 -106 c 4
 490 -210 411 -236 411 -282 c 4
561 570 m 4
 518 382 587 318 695 318 c 4
 801 318 917 420 954 580 c 4
 990 738 952 830 824 830 c 4
 706 830 602 748 561 570 c 4
EndSplineSet
Substitution2: "'tnum' Tabular Numbers lookup 2 subtable" nine.oldtab
EndChar

